<mxfile host="app.diagrams.net" modified="2022-04-04T07:37:19.871Z" agent="5.0 (Windows)" etag="GQX44cll_oMbhnkp02cO" version="17.3.0" type="github">
  <diagram id="sm5dAa0SaY0yiSCkx61z" name="Page-1">
    <mxGraphModel dx="2782" dy="1810" grid="0" gridSize="10" guides="1" tooltips="1" connect="1" arrows="1" fold="1" page="1" pageScale="1" pageWidth="827" pageHeight="1169" math="0" shadow="0">
      <root>
        <mxCell id="0" />
        <mxCell id="1" parent="0" />
        <mxCell id="GCuUB6PzgqnTOFlLj93c-12" value="" style="rounded=1;whiteSpace=wrap;html=1;shadow=0;glass=0;labelBackgroundColor=none;labelBorderColor=none;sketch=0;fontFamily=Helvetica;fontSize=15;strokeColor=#d79b00;strokeWidth=3;fillColor=#ffe6cc;opacity=40;dashed=1;" vertex="1" parent="1">
          <mxGeometry x="431.5" y="281" width="351" height="180" as="geometry" />
        </mxCell>
        <mxCell id="GCuUB6PzgqnTOFlLj93c-8" value="" style="rounded=1;whiteSpace=wrap;html=1;shadow=0;glass=0;labelBackgroundColor=none;labelBorderColor=none;sketch=0;fontFamily=Helvetica;fontSize=15;strokeColor=#6c8ebf;strokeWidth=3;fillColor=#dae8fc;opacity=40;dashed=1;" vertex="1" parent="1">
          <mxGeometry x="-128" y="995" width="1194" height="120" as="geometry" />
        </mxCell>
        <mxCell id="ruudqL98C5SeJLmAqFBZ-1" value="" style="rounded=1;whiteSpace=wrap;html=1;shadow=0;glass=0;labelBackgroundColor=none;labelBorderColor=none;sketch=0;fontFamily=Helvetica;fontSize=15;fontColor=none;strokeColor=#6B6B6B;strokeWidth=3;fillColor=#D4E1F5;opacity=40;dashed=1;" parent="1" vertex="1">
          <mxGeometry x="-128" y="474" width="1194" height="489" as="geometry" />
        </mxCell>
        <mxCell id="GCuUB6PzgqnTOFlLj93c-2" value="" style="rounded=1;whiteSpace=wrap;html=1;shadow=0;glass=0;labelBackgroundColor=none;labelBorderColor=none;sketch=0;fontFamily=Helvetica;fontSize=15;fontColor=none;strokeColor=#6B6B6B;strokeWidth=3;fillColor=#B7C2D4;opacity=40;dashed=1;" vertex="1" parent="1">
          <mxGeometry x="-40" y="755" width="1000" height="150" as="geometry" />
        </mxCell>
        <mxCell id="GCuUB6PzgqnTOFlLj93c-3" style="edgeStyle=orthogonalEdgeStyle;rounded=0;orthogonalLoop=1;jettySize=auto;html=1;entryX=0;entryY=0.5;entryDx=0;entryDy=0;" edge="1" parent="1" source="ruudqL98C5SeJLmAqFBZ-3" target="ruudqL98C5SeJLmAqFBZ-34">
          <mxGeometry relative="1" as="geometry" />
        </mxCell>
        <mxCell id="ruudqL98C5SeJLmAqFBZ-3" value="" style="rounded=1;whiteSpace=wrap;html=1;shadow=0;glass=0;dashed=1;labelBackgroundColor=none;labelBorderColor=none;sketch=0;fontFamily=Helvetica;fontSize=15;strokeColor=#82b366;strokeWidth=3;fillColor=#d5e8d4;opacity=40;" parent="1" vertex="1">
          <mxGeometry x="-464" y="452.5" width="209" height="344" as="geometry" />
        </mxCell>
        <mxCell id="ruudqL98C5SeJLmAqFBZ-4" value=".xls file " style="shape=image;verticalLabelPosition=bottom;labelBackgroundColor=none;verticalAlign=top;aspect=fixed;imageAspect=0;image=data:image/png,iVBORw0KGgoAAAANSUhEUgAAAzoAAAMACAYAAADsUBJ/AAAABGdBTUEAALGPC/xhBQAAACBjSFJNAAB6JgAAgIQAAPoAAACA6AAAdTAAAOpgAAA6mAAAF3CculE8AAAABmJLR0QA/wD/AP+gvaeTAABlUElEQVR42u3dd7gkZZk34Ke6z5kzEYYh5yRBQRSRJFlgUSSbEyq6sJ/rqqCA2cHMGjCigoqKYl4jOWeRJAgIIiI5p8kndX1/jOg4TDihq7re6vvey2sFZ+rUeeqtqvfX9T7VWQClWPdHh63VM9izUzRi08hj84jYJCJWjYipETHlH/8B6KgJU6cMTF11+gSVAMZoXkTMjYjZecRjWRZ/jTy7NY/8tizyK6/deebdZe1I5lhAMbb55uG9T0zJ94mIl+V5tkdEbKYqQPWDzuSYuupKCgEU5Y6I/MI8z87on5GffvMWMwcEHUjEht9721ZZo3lYHvlrI2I1FQEEHYAlejyy/MetPE65fueZ1wg6UFHrn3r4CxpZvC/yeIVzCxB0AEbl8jyP46/b5aO/FXSgIjY47fDNs+H8yxHZ3qoBCDoA4wonlwzn2Tuv3+UjNwg60CHr/PTISRP65x6bR7wvIvpUBBB0ANpiKPL8xJ7e+PBVO8ycJehAidb7wRHPaUT+0yyPLVQDEHQACnF3o5G/9uoXzbxC0IESbHjqEYdG5F+PiMmqAQg6AIUayvL45DU75x+LbGZL0IEi/PSVzY0Gpn81z7P/UgxA0AEo1Q9j4hpvufaFRwyO9C801AyWb4ufvnLChgtW+qGQAwDQEa/PFzx0xk6XHT9N0IE2hpx5AzN+E1m8WjUAADoji3yvBbHgzG2umTmi9gFBB5Zl5szGvAUrfT/yfB/FAADouJ3yBY1fb3HzzAmCDozDhhvf/yVPcgAAqiOLfK+JT8TJkeeZoANjsMH3//PNEfEOlQAAqFzcOXSbKz7+P8sORMAzbPS9/9w0b2TXRMQ01QC6ibeuAQkZbGXZbtfv9JErl/Q/eqIDi9nip6+ckDeyXwg5AACV1tvI8x9uceHMqYIOjMC8gZWOjogtVQIAoPI27OuJDy/pf7B0DRax0fcPXy/P4paImKIaQDeydA1I0FDeyre5bteZNy76Lz3RgUXkWXxByAEASEpPNBqfX/xfCjrwD+t//23PjoiDVQIAIC1Z5Hu98JKP7STowBJPkMaHnBMAAGnKG/n7BR1YzAan/NcGmS8GBQBI2b7bXPGx5wo6sKje4UMjoqkQAADJyiLP3yTowKJnRZ69ThUAABKXxxt2v3Bmj6ADEbH+947YMSI2UwkAgOStPqsv21PQgYhoNPKXqgIAQE3mdq38JYIOLLSHEgAA1EMe2YsjIjKloJut9c3DJ/dNjiciYoJqAERMmDo5pq66kkIASWednp6eNT3RoatNmtLYWsgBAKiVbGh46IWCDl2t1co3VwUAgNplnc0EHbr8HMi9bQ0AoG5TvGgJOnT7SZA9SxUAAOolz7NNBB26+ySIfIYqAADUzgxBh66WRUxTBQCA2pkm6NDV8oipqgAAIOhA3UxUAgCA2pkk6AAAALUj6AAAAIIOAACAoAMAACDoAAAACDoAAACCDgAAIOgAAAAIOgAAAIIOAACAoAMAACDoAAAAgg4AAICgAwAAIOgAAAAIOgAAAIIOAAAg6AAAAAg6AAAAgg4AAICgAwAAIOgAAAAIOgAAgKADAAAg6AAAAAg6AAAAgg4AAICgAwAACDoAAACCDgAAgKADAAAg6AAAAAg6AACAoAMAACDoAAAACDoAAACCDgAAgKADAAAIOgAAAIIOAACAoAMAACDoAAAACDoAAACCDgAAIOgAAAAIOgAAAIIOAACAoAMAACDoAAAAgg4AAICgAwAAIOgAAAAIOgAAAIIOAAAg6AAAAAg6AAAAgg4AAICgAwAAIOgAAACCDgAAgKADAAAg6AAAAAg6AAAAgg4AAICgAwAACDoAAACCDgAAgKADAAAg6AAAAAg6AACAoAMAACDoAAAACDoAAACCDgAAgKADAAAIOgAAAIIOAACAoAMAACDoAAAACDoAAICgowQAAICgAwAAIOgAAAAIOgAAAIIOAACAoAMAAAg6AAAAgg4AAICgAwAAIOgAAAAIOgAAgKADAAAg6AAAAAg6AAAAgg4AAICgAwAACDoAAACCDgAAgKADAAAg6AAAAAg6AAAAgg4AACDoAAAACDoAAACCDgAAgKADAAAg6AAAAIIOAACAoAMAACDoAAAACDoAAACCDgAAIOgAAAAIOgAAAIIOAACAoAMAACDoAAAA3atHCehm+cBQpgqQgCyLyBb+/6zRWPjfAUDQgSUbnjfQyHJ1gOQ0ssiaWURPM7KeRmTNpvADgKADQOJaeeStPGKwFXlERBaR9TQjm9CMrLdH6AFA0AGgBvKIfHA48sHhiMZAZL090ZjYG9GQeAAEHQCog1ZE3j8Uw/1DC5/wTOyNrOndOwCCDgDURD4wHPnAcGR9PdGYNMGSNoAu4iMuAOofePqHYnjW/IVL2wAQdACgNlp5tOb0R2tuf4S3LQIIOgBQJ/nAcAzPWRDRknYABB0AqJOhVgzPnh/5cEstAAQdAKiRVkRrzoLIh4QdAEEHAIQdAAQdAKi4PKI1d4FlbACCDgDUTCuiNac/IveCAgBBBwBqFXbyha+eBkDQAYA6yQdb0VowqBAAgg4A1CzszB/UrwMg6ABA/bTmDSgCgKADADUz1Ip8YEgdABLW09Gf/tNXNte7Y94KQ1ljWp71TIlWPrm7yj/ot+j0vj85e2KjrLzvZU6J6OIDlTUiy7LIGllElo1vW40sotmIRqMR0ZPmZ2qt+QPR7O2JyJwVAILOMqz9qYNXbjWHd8sj2yFasVlksXn8bWDDgaynd+HcojXGm0k+rjlK56Y0eYz6gVrH51/5Ev+p0f5NlzZxbTWGolVW6bLR/rqJTLjz8vY7j5LHSZ7kARj7YXr63w1HxHAe+YKhiIE8YnA4YkErsqF8bDXJsmhM7I3GxN7IJvZGc9rEaE7ti2hUPAC1IvKBocj6egKA9BT6OdVan9p/87zReGMrYt8sYqto61K5lANO5WZ4o9qBvCIlSaJwYx6mCcyw83L3O6/mgap8yGlrDm3lEXMHI589HFl/a+E/j/nuk0VzyoRoTp8SvatMq+5Tn0YWzRUmddVTnQlTJ8fUVVcyQwJSN6ftl+4NZu4+sX/iim/KIw6LiO1KubEnEXIEHAFHwBFwyq1KoQ/bWnnkTw1ENnsoYnD8G26uOCl6Vlkhelaq3grmxpQJkU3onqc6gg4g6Cxm1ZmvnNqY2P/WiOzoLGJtAac+AaftuyPgpBlwCp85dzDgJHMI8qodpoXmDkU80b9wmds4f1ZjYm/0rr5i9Kw8rTKvy8l6G9GYOlHQAUgs6DTbcN/N1ph40JsbvUO/yyJ7eRaxQoVmjx2ev+Sl/JUi99tTnKKHqYAj4CQccP45M25ErDAh8glZxPzhyMbxc/OhVgw/NS+Gn5gbzYkTqtEf08qj0dcz/hc0JKI5oTcmTJlkigSkbmBcV+3VP3nwlllz+OsR2c5VnJTowxFwqhtwEplhW6aWRMjJqzS0WhH54wsWLmlrw5s+emZMib71Vul4D09j8oSueSmBJzpATYz9ic4anznw0KyR/yoi27hqAadz93kBR8ARcCofcJIJORV/irM0WR7Z5J6ISc3I5w9HNs6w05o/GEOPzo5s4oRoTOzt7K/WJX06nugANTH6JzqrHH/AtJ7ITo48Xi3g1CfgtH13BJw0A07JM2cBp0YBZ0k70Mojf2hBZPPa8xL33rWmx4S1OvSkIYtorji5K96+5okOUBOje6Kz9qcOXjnL4syIeEmFZo8dvsfrwxFyahJyBBwBp937nWWRTeuNPM8Xvo56nFqzF0Q+fzB6pk/pSODIepsLv0y15jzRAWpiYMRBZ41PH7RB3sgviojnVWlSog9HwBFwiiitPpzKh5w8nf3OJvdEHnlkC9oQdhYMRmtOf/RMnxxRcujIehuRNRtRd4IO0FVBZ63P7L9e3sgujYiNqhJwOnefF3AEHAGn8gEnmZBTw6c4SwsJk3oij2hL2MkHhqI1Z0H0zJhS7pvQmllkvc2oO0EH6Jqgs/anDl65lcUFEdHGlw6kuExNH05XBZzFdkEfjoAj4Ix/B7JJzYXL2NoSdoajNWcgemZMLW0ZW5ZlXfFCAkEHqEvQWeYz+A1m7j5xuNE6IyKe3b6bZL7Ufxzl3xZyRrEDba9d3Z/i1DXk5DUOOXkKh2BkO/mMP9Xx3619O5DN6IuY2p7lX8Oz50f/3Y+UV4VWKwBIxzLvNvMnrvjFiNiukJtkMgEnL+2vFbHfhQScvGL1LjDg5Gkc8HEEnDzBIzm+D0yq8MHDqP5U4k9xlmj1iQu/XLQNhh6dE0OPzE62FAB0IOis8ZmDXpVFHFFIwKn8ywbSDzhtr52AI+BULeAkM/H0FOeZm84iW31i214m0H/3Y9GaN1BCSSQdgOSDztrHH7JORH7y+G+S4ws4ySxTq8R8t6BlanUOODHWeXMijxDqHnAsU0sw4Cyy6d5G5DPa9AWgeR79f3s4olX2OQVAckFnOB8+ISJWaMtNMqmAk+J34hS8TK2uM4ZxPcVJcX6tD6fDKVPAWcKmsxV6I+9rz1Od1oLBGHjwiSocWgCqGnTW+vRB/xERr2jLnSyZt6npwynvd7NMrfyAow+nateTrujDGeGms1UnLqdbdOQGH3gqWgND7uwALCHozJzZaGX5F9sScCr/FEcfjoBTk4AToQ8noYDT7U9xnmFCI/IpbfpumjyPwXsed2cHICKi+W9fCLBG33Uvj8hG8SrpFJ/gjPEnV+xbyH3pZxQ8TH0fTrkV8X04lb8GFrjpbMXemP+3ByNvtWG/Hs6id+DJiIK+76Yxra/2M4MJK0yLgTlrmCIBqRv+9yc6WXbsyO9kXfa66I5PSixTG++P14eTSMjRh9NVIWfhzLoZzVWntWkf8hh+bL7bOwD/Wrq2+vEH7RkR24wp4HhdtIBTm4CjD6e8itR/mVq1frcKLFNbht61VozI2vRigln9EUO+3BNA0Pnnjar15qIDjj6cse2AgCPgLH3m7HXRVQw4+nBGL5vYE812LQvL82g9tcAdHkDQiVj9s/8xJYvsoBHNrnwfTmn77XXRY//xeSr7PeZxKeAIOPUIOIturrHylLZtszWr3x0eQNCJaAxPPjgipo5oUpJEwNGHU97B8BSn/IBTXMgpNYnW9WUD+nDGPMSbq06JrNGe5Wt5/1DEAq+aBuj6oJNHvvdyA44+HAFHwKltwNGHM7aqLPEpTgL7XYVN50vYeNZsRGPKhLb9jNbcAXd5gG4POpHHbku8S1umVtqERMAZ++HWh5NQwLFMTcCJZS/QzaZNbF/QmTfoLg/QzUFn1U8f8KzI8vXH8y3klqmNfQf04Yz9cHtddFWPpIAj4Iw+4DytOX1S+37mfEEHoJv1NLP8BRHZmGZASX3hZwUDTjozVy8aKLe0NQo4SfCln0VuOh/lxrNpfQtfM523YSdaecTAUGFfHgpAtTUiyzb7571HH04p+22Z2th+vNdFV/VIdmEfjqc4YxjiI9t41sgi62m0bR9aC4bd6QG6VE/eis1G846bpJ7iVGKyVWDAqVKtC96F2ixRW2rASfFI5okeAk9wit50Ps6NZxN7Ih9sU0AZEHQAulUji2yjkd649OGMbb/14Yz9cOvDSSTk1Oh10dV7glPg0exQH85yg05fb/v2aVDQAehWPRH5itWcQurD6bqAM6a90YfT8YCTBE9xitx03uaNt3PpWj7ccqcH6N6gs/gXhQo47dgBT3AEnLJnzpapCTid2HQhV742fWloRETIOQBdHXSmVecerw9HyBFwBBwBp2sDzj/vTO17ohMtSQegm4NOb5IBp2KTEgGn6ICTyAzbMrUkQk5eyaHVncvUliTLkjlJAKh40OngvUDAEXAEnMoHnGQmi57iFL3pPL1BAUA3Bx0BpyK3eQEnzYBT8sxZwBFwBBwAGGHQSeLmrg9HyElmfp0neBQFHAFHwAFA0Cn/DmyZmoDTxQGn9JBT59dF68MZx6aEHAAEHQFHwBFwUgw4ycxlPcUpetOe4gAg6BR1B9aHk2bAGXPI0Ycj4Ag4Ak6alwUAujLoeIrTVSHHU5w0Q47XRQs4UcEnOEIOANUMOgKOgCPgCDjlVkXIademPMUBQNCpZcBp++4IOOnOZCxTE3BqHHAKvvIJOADUKeh4XXR5v58+HAFHwBFwBBwAKDjoWKZW7u/mKU65pbVMrWqz3rySQyvFZWr6cAAQdAQcAUfAEXAqMeP1FKddm/IUBwBBp5YBp+27I+CkO5OxTE3AqXHAKfjKJ+AAUKegow9HyKnJbEbAEXAEHAEHAEHHMjUBp74Bp0YhRx+OkBN1WqYmHQFQaNARcAQcAafyASeZOaGnOEVvuh5PcQQcAAoNOvpwuirgLLYL+nAEHAFHwBFwAKhh0PEUp6tCjqc4CRxJAUfASSDgjHkXBBwACg86Ao6AI+BU70h20eui9eGMY1Oe4gDAMoKOgCPgCDiVDTjJzAk9xSl605apAUBRQUcfTro39jGFHH04Ao6AI+AIOADUPeh4ipPmzd1TnDRDjtdFCzihDwcAig06Ao6AI+AIOGOsipDTrk15igMA7Qs6lqkJOEnMry1TE3DqE3AKvvIJOAB0edCp2NuP0nmKow9HwBFwBBwBBwCqGXQsU0vz5m6ZWpohRx+OkBP6cACg2KAj4Ag4Ao6AM8aqeIrTrk15igMA7Q86Fbmz6sMRcMqeOVumJuB0YtOWqQFArYOOpzhCjoAj4Ag4Ag4A1CboCDgCzkh20TK1yoccfTjj2JSQAwA1CjoCjoDTRQEnmTmhpzhFb9pTHJEKgNoGHX047dgFfTgCjoAj4HRDwBFyAEgk6HiK044f7ylOFY+kgCPgJBBwxrwLAg4Ago6AI+B0WcAZ14EScmoccvThCDgA1DroCDgCThcFnGRmaAJO0Zu2TE3AAaC2QUcfTrkhRx+OgCPgCDjpBhwhB4BEgo6nOOUFnESmB5apJRFyBJyaBJwx74KAA4CgI+AIOAKOPhwhJ/ThCDgA1DzoWKYm4HR25myZmoDTiU1bplbST5SIAOhM0PEUp7yQI+AIOAKOgJNuwBFyAEgk6Ag45QWcRO72lqklEXLySg6tFJep6cMpN+DkUg8ARQcdAUfAEXBSDDjVDDn6cMr93VJdpibgAFBo0NGHI+B0duZsmZqA04lNW6ZW0u4KOAB0Juh4iiPkCDgCjoAj4BT0U/MkT0IA0g46Ao6AM5JdtEyt8iFHH844NiXkCDgA1Czo5AKOgNMdASeZ+ZWnOEVv2lOcTgUcIQeAUoOOPpyx7oI+HAFHwBFwuiHgjPqnCjgAVCHoCDlj+/Ge4lTxSAo4Ak4CAWfMu6APBwBGFXQEHAEn/YAzrgMl5NQ45OjD6WTAEXIASDnoCDgCTtUCTjJzKwGn6E1bpibgACDoCDhtCTn6cAQcAUfASTfgjPqnCjgA1C7oeIqT5s3dMrUkQo6AU5OAM+Zd0IcDAOUHHQFHwBFwCq2KkNOuTXmKU17AEXIASDnoCDjp3tgtUxNwahxwnrk5AUfAAYCRBh0hR8ARcAQcAac2Aac9IUfAASDloCPgpBlyLFNLIuRUc95omVp5v5uAAwDlBx0BR8CpWsBJZn7lKY6AU83riWVqAHR30BFw0r2xW6Ym4NQ44DxzcwJOYT9VwAGgdkFHyEnz5i7gCDgCjoDTrp9qmRoAtQw6Ak7iAadGIafOr4vWhzOOTQk5Ag4AdDzoCDidDDjbr7tFbLbqeukFnOX8wOG8FT/64znRyvMqHoQE5o6j24HNVl0vtl93y+SD2d1PPhQX3nGtgDPG60lHD7u8BUB1gk61voW8W/twnlwwJz7zkrdHT6NZu4E6p39+/PqWSwScgs/LLLL40v5HxQvXeXbyY+bg7x9b+4Az6p9a9YADAG3USP7ulNc45OSjmz3f9shd8d1rT6/lQD1619dHI8uqcACW/6c6/on02Hfg4C13r0XI+dmfLohL7ry+pMtZZw74qH9qXo39FnIASCDodPgmuYSAk6ew3+MKOMvf709f9P14eM4TtRuom626Xhy8xe6Vm3nV6WUDE5o98YE93pT8WJndPy9mnntySZezRAJOVXtxqvcpAQDdHXQEnCoGnEUneZ+66Hu1HKzH7Pb6Epbldd9TnKe9ddsDYoOV1kx+nHz8/G/Hg7MfKyHg5NU+wm24ngg4AHRJ0KnAjWhMLxtI5AbaxgnJj/54blx73621G6wbzVg7Xr7l7gJOAeN7xYlT48hdXpv8GLnhgdvju9ecXmDZOrdMrRYBJwQcACoXdKrXh5OnsN/jmpSMZ5N5HHvmiTGct2o3YN+7axFPdbo34Dzt3Tu/OmZMWiHpsdHK8zj69K8sf9zrw6nIkBVwAOho0LFMrfyA0579vvHBv8YPrz+7dgN2g5XWjFdttWep08i6f+nnmtNWibdte2DyY+M7V/9m2U8y9eFUKOAIOQB0LOgIOOXOU4vZ709e+N14fN6s2g3a9+76+pjQ7GnfAEtmflbMDnxoz7fEpN6+pMfEI3OfiE9d+L0CAo4+HAEHgBoFHX04dbjx5xHx+PzZ8ZmLT63doF13xdXiNc/bW8Bpgy1W2zBe+dw9kx8THzzrG/HUgjnJBpwxXXn14QDASINOyk9xUgs4xe73olv+3nVnxPX3/6V2A/fInV8TE5q9bZ1GVvMD6LzQTc/c+z878P1E7XX5XTfG/910URvKllAfTlWDhD4cAKoVdCxTKz/g5KX9uFaexwfP+WbkNZtwrLPiavGGrfdp2zipZh9OXuimd9nw+bHHxtskPQ4GhofiPb/70r/Gtz6cCgUcIQeAjgcdAaew36+DAWdRV9/75/jJDefVbvAetctrY2LPhHEHnG5ZprbophtZFsft/Z/Jj4EvX/6TuP3Re7wuWsABgIoEnTH14Yx6elCheWpnAs6ijrvglHhqwdxaDd7Vp86IN2z9EgFnDJt+1VZ7xVZrPivp43/nE/fHCZf+2OuiOzlki7rOyUoAJBd0LFPr2Dzg0blPxmcv+WHtBvC7d371Im8MG0NXVxf04Syur2dCvG+PQ5M/9h848+uxYLA/iVl0/ftw8g4VCgA6HXQEnM5NmBbx7Wt+Gzc/9LdaDeDVp86IN71g3xjzU5zqDZ7CN33E9gfFOiuulvRx/80tl8Y5f7mq8rNofTgCDgB1Djp1f110AgHnaUOt4Tj2rK/X7sUE79751TFlwqSOzM9SCjgREdMnTo3/2elVSR/vOf3z44Nnfb3ys2h9OAIOAHUNOl4X3ZkJ03Jcdc/N8cubL67VIF558orxlm1eJuCMYNPv3e0NsdKkaUkf709f+L24f9ajlQ44+nDqcakHQNBpY8CxTK2MLX/43JNjdv+8Wg3k/3nRq2LqIk91qvm66M5uev3pa8Rh2+6X9HG+5aE749tX/6aSs2jL1Dqf9wGgmKDjddGVDzhPb/3hOY/HCZf9uFYDecbkFeJt2x7gKc4yfGjPt4zyS1arpZXncdTvvhSDw0OVup60L+BYpgYA1Qs6de/DKWnmXHTAWXTr3/zDLxd+/0iN/L8dXx7T+iYLOEuw9VqbxkFb7Jb08T31ujPj6ntuqdT1pDYBJwq+zuWj+aMSEQBVCDr6cDozYWpDEh0YGor3j6qhu/pmTFohjtjuIAFnCT6812GRZVmyx/bxebPik+efUqmAU6s+nKJeRziKXzP/x/8BQGeDjj6cFKbFyz1QF995ffzu1strNaDfvuPLY/rEqR0cPNXb9D6b7hC7brh10sf1w+d8Mx6b91SpHw+0LeDowxlRyAGAzgYdfThpBpxlzK0+dPY3Y97ggtoM6BX6psTh2x9U9elvaZtuZo348F6HJX1Mf3/3TfGTP57X0euJPpziAo6QA0Dng44+nHQDzjJ+4H2zHokvX/6zWg3q/7fDISW9Qrm6Aedpr9t6n9h81fWTPZZDreE45vSvLtK3UfE+nAh9OAIOAMkEHX04nZswjWfro5jDfOWKn8Udj91Xm0E9rW9y/L8dDqna9Lf0TU/s6Yujd3tD0sfya1f8PG5+6I5Ic5maPhwBB4BqBh19OJ2bMI1366P8YQPDg/H+s+v1YoIjtj8oVpkyPa2j2eZN//eLXhFrrbBKssfw3qcejs9f8sMEA07BQbgq4UsfDgDJBR19OGkHnDH+wAvvuDbOuf2q2gzsKRMmxdvb+lQnnYCTR8TKk1eMd7zoFUkfw2PP+GrMHZjf2cvDmAKOPpzFA04+8kc+3iwNQEFBZ8wPBixTSzXgLOqDZ38z+ocGajO437bdAW14qpNWwHl6c8fs/sZ/fadQgs67/Q9x1m1XdvbyMKpLXlX7cCKS6cMRcAAoJOhYptaJecD4t97mX+PvTzwQX7vyF7UZ3JN7J8b/jOupRvX7cJY0DDZeee04dJuXJnvc5g/2xzFnfKW6ASepPpzyn+KMKeAIOQAUEnQEnM5MmMa79YJ+2AmX/TjuefKh2gzwt217QKwxbeXqHM1CX3S1cOMf2fOw6G30JHvMPnvxqXHXEw9WPOAU/7FGagHn6ZAj4ABQnaAT+nCSCzgFHoIFQwPxkfO+VZsB3tczYRS9KmkuU1v0n7ZZe/N42eY7JXu8bn3473FiwU8V9eEUE3D04QBQuaCjD6ekCdN4t17i5OB3f74sLrjjmtoM8rds87LlvH0s/YDztI/vc0RkWZbkccrzPI4982sxODxUjUOhD6e9ASeR2wgANQo6pc/USg04NXiK06Hyv/+sb8TA8GAtBnlfz4R4506vKn/mVehXlTxz4/s/e5fYft0tkj1OP77h3Ljszj9WI+BYpjaikFORiyYAjDboWKbW0YDT4bnV3x6/L076w69rM9APfcG+sd701cs5miX04Syup9GMD7z4Tckenyfmz46Z555c0YBjmdriAccyNQASDToJBZyS3n5Utz6ckfrcJafFA7Mfq8VAn9Ds+cdTnfosU1vUm7Z5WWy6ynrJHp+PnfeteHTukwWFw7H8haouUys0Rbcv4EQIOABULejowyn3Xl3NgPO0uQPz47jzvl2bwf76rfeJ9aevUfmBMpqAE7Hwy1Hfu+vrkj0u1993W/zgujM7kzWTe110+aHc66IBSDzo6MMp915djT6ckfjFTRfGZX+/oRaDvbfRE+/e5TWVHSgj6cNZknfu9KpYbeqMJI/JcKsVR/3ui9HK83IPgz6cEYeczlw0JSUA2hZ0Kk4fTke9/6wTY7A1VIsB/5rn7R0brLRm5QZKPsaNrzFt5Xj7ji9P9nicdNUv48YH/lrelFgfzogDTmf6cDwOAqBbgo4+nEocgFsfuStOueZ3tRjwvY2eeM94lnl1sA9nSd63+6ExuXdiksfiodmPx/9efGp5h0IfTnsDTrS7fAIOAN0QdPThVG3mFZ+56Pvx0JzHazHoX7XVXvGsldfp6EAZ6zK1RW2yyrrx2uf/R7LH4X1nfi1mLZhbTsDRh9P+gFPUUxwPdQCoZdCpcx9O8Ymq0KrM7p8Xn7jglFoM+mbWGN1TnYosU1vccXsfHj2NZpLH4MI7ro3f3HJJyQGnQiehPhwBB4AuCjp1DziJLFNblp/ccF78/u6bajHwD9lyj+W/jrliy9QW9aL1nxv7bLp9krXvHxqMY8/46vguD2MKOPpwFg84nfs+HAEHgG4IOrVZplbfgPP0n2pFHu8/++sxnLeSH/jNrLH0VzJXOOBERGSRxUf2emuytf/CpafFHY/dW8z8Opk+nIju7cPJy7ggA0AHg07tlqmlFnBGPstY9E/96YE74tQ2fedJpx20xe6xxeobFjr3zAvY+CFb7h7brvOcJGv+t8fui69c/tNiAo5lau0POJapASDodHPAqU8fzojmZxHxyQu+G4/Nm5X+4M+yOGqX1xUyUPKCRuGEZk+8/8VvSrbm7zn9S9E/NFBCwLFMbfGQI+AAIOgUfeOvc8Cp0TK1Zc3Pnpg/Oz514XdrcQIc8OxdYovVNiqowu0fFG/d9oDYcKW1kqz1z/90QVzyt+tHfnlINeBE6MNZvAgCDgC1DTpeF121mdeYAs6iTr3uzLjuvtuSPwGyLItjdn9D5QNORMSKE6fGUeP5DqAOmt0/Lz56zkntmV9XPeAU+broIgJO2y+a+nAA6IagU+dlakkFnJGFnNFMfFp5Hsec+bVo5enPYvbd7EWx9Vqbtqm6xdXj3Tu/JmZMWiHJGn/8/G/Hg7MfG3/A0YczopDTmYumZWoAdEvQ0YeTTMAZ6/zsj/f/JX50wznJnwRZlsV7d3v9OId4saNwzWmrxH9ud2CS9b3h/tvju9f8roCAow9n8YDTmWVqAg4A3RJ0SvwWcn04nQk4i/r4+afEUwvmJH8i7LPpDrHN2puPocLlDIoP7/mWmNTbl1xdW3keR5/x5Rhutcb2GUE39uGMslCdX6ZW1LYBoCpBRx9O1WZepeTQR+c+GcdfdGotToajl9Or04mAExGxxeobxSu32ivJmp5y9W/j2ntvbcNTnC7qw/G6aACoSNDRh1PFmdfIYlCbfrdvX/3buOmhvyV/Muz1rG1jh/W2HEF1yx0Ux+39n9HIsuTq+cicJ+ITF5yiD6eAC5uAAwBFBx19OMkEnCI/HB/OW3HsGV8b3eSrohbv1SmzD2dJdt7gebHHxtskWcsPnv2NkS9r1Icz4oBT+z4cwQmAjgYdfTgCzmKuuufm+MWfLkz+hNh9oxfEi9bfqmPL1P7t5Myy+Ph/HJFkHS//+40jHw/6cNobcNoeFkr8EEjIAaBjQUcfTtVmXh2Zny3NR849OWb1z03+pPjAi99UiZnXq7baK7Za81nJ1W9geCjec/qXlj8x14dTTMBJ9SmOkANAR4JOnftwOjuXbXtVipyfLc/Dc56Iz1/yo+RPih3W2zJ23mCrjg6MvuaEeP8eb0qyfl++/Cfxl0fuHsP1pKoBRx9OeQFH4gGgzKBT94BjmVpbffOqX8YtD/89+RPjAy9+c0cP93/tcHCss+JqydXtnicfii9e9uNRBhx9OIsHnM704YSAA0CXBJ3aLFMTcMo01BqKD539jeRPjO3X3SJ22+gF5R/yiJg+aWr8z06vSrJux5zx1Zg3sGAEJ3hV+3DafDVKqg8nL+OCLOAA0MGgU7tlaineU/Ox/am8Gvt9yZ3Xx29uuTT5k+P9exzakUx79G5viJUmTUuuXr+55ZI4+y+/H+H1pIqfJXTmKU739uEIOACUFXT04VRx5lX6/Kxd+/2hc74R8wYXJH1ybLvOc2LPZ21b6uFef6U14i0v3D+5Ws3pnxcfOOsb0anrSYoB5+mQ050BR8gBoKygow9HwGnzft8/69Gl92ok5IMvfnNkkZV2uD+052HR19ObXJ0+fdH34/5Zj1Q74ESk+bpofTgAMMag43XRVZp5JR9wFvXVK34Wdzx2b9InyPPW3CT+Y9PtSjncW6+9WRy8xW7J1eiWh+6Mb/3h19UPOKm+LrqoHS31+3AEHAA6EXRKmJSU+hQnqYAzspBTrfnCyHdgYHgo3nfWicmfJO/b/U3jf6ozgsP9kT0PiyzLkqpNK8/jqN9+KQaHhqo5sbVMLSxTA6CLg04r9OFUM+Ck+BRncRfecW2cdduVSZ8kW635rHjp5jsWWrZ9Nt0+dt1o6+Rq84Przow/3HNz9Sa2Xhct4AAg6NQm4OjDqVTAWdQHz/lm9A8NJH2ifGCPN0djNE9bRlG2ZqMRH9nrbcnV5PF5s+Lj532neidhin04EcX14UR4XTQAgk7J84D23Lz14XR0v0firiceiC9f8bOkT5Rnr7ZB7PfsnQsp2+u3fklsvtr6ydXkI+d8Mx6b92Tow2lDwPG66DJvJAAIOoXNA6p98y52JjCye3qexn6Pxpcu+0nc9eSDSZ8sx+5+6LKf6oyhbBN7++Lo3V6fXC1+f/dN8aM/nlPhgKMPJ8llah4IAVCloKMPZ3wBp27L1JZmwWB/fOTsk5I+WTZfdf04aElvRRtz2fJ4x4teEWutsGpSdRhqDccxp38l8jyv2GnWjX04IeAAQLuDjj4cAWe0mz791svjvL9enfQJ877dD42eRnPcAScij1WmrBjveNErk6vBiVf8PG568I7On2pFjd+k+nA68broztUbAAoPOvpwxl6VuvbhjHTT7z/zxBgYHkz2hNl45XXikC13H0fZ/vUXj9n90JjWNzmp3/++px6Jz178gwplcn04SffhCDkAVCXoWKY29qoUOV+o3CxjGZu+8/H74+tX/l/SJ80xu73xX091xliUjVdeJw59wb7J/e7HnvGVmDswvyIBRx+OZWoAMM6gY5lamwNOFyxTW5YvXPqjuH/Wo8meNBvOWCteudWe4yrKh/c8LHqbPUn93mfddmWccesVXR1w9OEIOADUKOgIOAJOuzc9d2B+fPSctF9M8J5dX7ecpzpLL8pWa24y8ldVV8T8wf543xlfK3/IFnU10oeznP1OqO8JAEYbdIp/ipNawBn53bqar4uu1qZ/efPFcemdf0z2xNlwxloLe3XGUJRjd39jZKP58tEK+N+LTo27y3o9eEWeKujDqXi9AWC0QUcfztjv1p7ijM77zvxaDLaGkj15jtzltYt9r87yi/LcNTaOfTbdIanf87ZH7ooTr/x51wScpyfd3RlwEqg3AIw26OjDEXDK3vRtj9wd3/rDb5I9eTZddb14yWY7jqooxyT2NCfP8zjm9K/E4PBQ8UO2qPGrD6fSAUfIAaDQoON10WObHQk449/cZy78fjw05/FkT6CjdnntiP/ss1fbIF6y2YuS+v1+fMO5xS4xTPl10UXtaGl9OAXUW8ABoEpBp7SnOEkFnJGFnOImPgXPMjq46cWrO2dgXhx33reTPYG2Xnuz2G2jF4zoz75vjzctttSt2p6cPztmFvXSCMvUohuXqQk4AJQadEoJCvpwOr7fVdh0vpSN//SG8+KKu/6U7El05Aie6my+2gax7+Y7JfV7HXfet+KRuU/WOuB0ZpmaPpxRXiwAoNNBRx+OgDOSzeVLiDx5fOCsE2M4byV5Eu2y4fPjhes8e5l/5pjd3pjU05xr7v1znHrtGe0fV+Wk6PYFnLZPukv8EMj3DwEg6BR089aH09H9rsKmlxRpluZPD94R373m9GRPpGU91dl45XVi/+fskszvMtxqxXt/96Vo5UVNjBPqw/G66EQDJQCMO+jUf5latX63NJ7iLDngLH/jn7rglHh03lNJnkj7bLpDPGf1DZf4v719x5cn9TTnpKt+GTc+8NeCJtz6cCxTK++yBoCg076AY5laVwecGGPAedqTC+bEJ88/JckTKcuyeNt2Bz7j368yZXq85nl7J/N7PDzn8Tj+ou/XasLtddHdUm8AGFfQEXAEnJFsbuwb/8H1Z8a1992a5Mn0qq32ipUmTfu3f3fE9gfHxN6+ZH6HY8/4WsxaMLddSTe6tw+nE6+L7ta+JwAYd9Cpbx9O0fOFwmcZHdz0aPpwRqKV53H06V9pX39IiSb19sXrtt7n3/75zS/cL5n9v/COa+LXN1/cpoGQyOuL9eEkXG8AGHfQ6cLXRSew31XYdF7Qxm944Pb44fVnJXlCveWF+/+zH+eNL9g3ZkxeIYn97h8ajGPP+FqyAefpSXd3Bhx9OAAwyqBjmZqAM5LNFbPfHzvv2/H4/FnJnVAbzlgr9tpku2g2GnH49gcls98nXHpa/PXRe5KdcOvD6ZZ6A8C4g46AI+B0JuA87fH5s+L4i05N8qR667YHxIHP2S02nLFWEvt7x2P3xZcu+8mY5vZL+RdtyQ1tnXBH6MNJut4AMO6gU+ISjOJmAh2ZnxU+y+jgptvdhzNSp1z92/jTg3ckd1Lttcl2cfIrPpDM/r7/zK9F/9DAGAaCPhx9OEXXGwDGHXS6sA/HU5wx5KVyCzect+KYM74SeW7WVJRf/OmCOO/2PyQRcJ6edHdnwNGHAwBjCDqWqQk4y9tc5wr3h3tuiZ/deL4ztQCz++fFh8/+5iiSbiLLpvThtCXgVKLeADC+oJNSwBnZTVDAST/gLLoLHzn35PF9twtL9InzvxMPzn5sFCdR+WO2O/twCqh3JFhvABh30Ekq4Iws5BR3Iy54ltHBTXeqD2ckO/TInCfisxf/wNnaRn+8/y/xnat/U+6nBJapVbbelet7AoC2BJ0aBRxPcdqRlzpcuKX8+JOu+lXc8tCdztg2aOV5HHP6V2K41apswOnMsil9OLWtNwCCjoDTfQGnMsvUlvPjh1rDXkzQJqdc/du45t4/LyXpduvri0t8GYs+HAEHgG4OOikGnIJnR3VfpjYCV951U/z6lkuctePwyJwn4pMXnLKMk6j8UO510d0WKC1TA6Arg07KfTjVf4qz5ICTJ1W2D5/9zZg7MN+ZO0YfOvsb8eS82ZZNWaZW33oDQLWCjmVqRW869YDz9F+8f9Yj8YVLf+TMHYMr/n5j/PzGCyoz4fa66G6ot4ADQNcGHQGnjICTSh/OSP/iiVf8LP766D3O3lEYGB6Ko377xUV6nCybSrIPJ7l6Rzn1BoBqBZ189H9KH844MkWeaNnyJU7ajz3za87eUfjKZT+Jvzxyd3h9caTdh6PeAFDloDOOpzgdn6lbplbe77bsv3jRHdfGGbde7gwegXuefChOuPS00BcS+nAEHAAEnYoFHMvUxrC5egacRb3/zBNj/mC/s3g5jjn9yzFvYEFHJtz6cNQbAGocdAScrgo4UXzAedq9Tz0cX7n8p87iZfjtLZfE2bf9vtRjqg8n1BsA6h908rH9KX04Y4wGFQg4eblF+dLlP4m/P/GAM3kJ5g/2x4fO+kZpx1QfTrnnkD4cAOhI0PEUp+hNd0MfzkgsGOyPD539DWfyEnzy/O/EPU8+VMox1YdT7jkk4ABA6UFHwCkj4HRTH85InHnrFXHu7X9wNi/izw/fGSdf9at2pOjlTrgr8fpifTglXNY6VW8A6HjQEXC6JuCMecJa3H6//8yvRf/QgDM6IvI8jyN/c0IMDg8Vdngqt2yqtHGuD6fcegNAR4POyJ/iVOuGpg+n3ABX7H7f+fj9ceKVv3BGR8QPrjsz/nD3zYUdU8vUyjuH9D0BQEeCjmVqRW9aH87ofP6SH469J6UmHp83Kz527rcKCzidWTalD0e9AaCUoCPglBFw9OGM3vzB/vjouSd39Qn90bO/GY/Ne2q0Kbp9ASeiuL6QCK+LLvw0E3AA6Nqgk2LAKXh2VPdlagkEnEV/6q9uvjgu+Os1XXky//6um+K0P57dtsNj2VS5HxR0bx+OgANAR4NOyn04lqmV97vlldjVD5z99dE34iduqDUcx5z+5cjzvC3H1LKpcs8h9QaA0oOOZWplBBzL1NoRDv/lL4/cHSeN9dXKifr6FT+Pmx68oy0Tbsumyg04+p4AoNSgI+AIONUOOMv7qf978amxYLC/a07keYMLRp4ExzvhjqjJsqlE+nAKqXekX2+KO2zDLUUAaqFnrHfU6r0JNJ0+nPJmGUX+bnmld/XALXaLib19XXMiv3uX18Uv/nRh/PXRe4pbMlWbCXfhJ7V6j7PejYFWNB5vz/diZROGo693ftt+tcak4dpfT4an9scTc+eaIQFpy6LZ+Pcb0Rif4nR8pq4Pp7zfrfz9Hu1PXG3KjPjY3od31bnc19MbX9j/yMgiK2bSbdnUuGui3gBQ6gSy1bBMrZyAY5laO8LhyHbxs/v9T0yfNLXrzuedN3xeHPLcPUY04daHU27AUW8AKN9y37om4NQk4ETUrg9nSb/b/s/ZJfZ/9s5de0J/6qVvj+mTpo1/wh2hD2ecNVFvAKhw0Knm66Krv+lKfh9Owq+LHulfWGHilPjMS9/e1Sf0qlNXig/u9ZbxT7h9H86Ya6LeAFDhoOMpTrvykmVqZQScp33yJf8Va66wStef1G/Z9oDYdt3n/HPS3Z0Tbn043VBvABhx0BFw2rU5AWfs4XAsu5jHLhs+L173/H2c0RHRyLI44cAjo6fZLOggjGJj+nBKOM0EHABYatCpZh9pisvU9OEU+lPzJW9hUm9ffPGAoyLLMmf0Pzxn9Y3iP7c/qORD36m+kAJO6iICTiGBsrv6ngBgVEGnmn041X+Kow+n5ICzjIH6wRe/JTacsZazeTEf3POwWG/6Gp0JODV/qqAPp9qXegCIWHTpmmVqY4wGlqmVH3D+9S+3XnuzOGKHQ5zJSzB5wsT4xEv/n4DT5oGpD0fAASCVoCPgjHFzAs7Yw+FY/sIz97un0YwT9j8ymo2GM3kp9n/OLvGSzXcc40EYxQHyuug2DPoRbkzAAYARBp2O8rro8n63hPpwRjjROnKX18ZWaz7LWbwcn33Zu2JK76RijqjXRRd8qul7AoDEgo5lauX+bun34SzuWausG0ft+jpn8AisM321eO/ub0g84Fimpu8JACoddCxTKz/gpPm66GVtpZFl8eUD3xN9PROcwSP0jp1fFVuusfH4j6jXRQs4nQ6UAFCtoCPgdEvAacfropfnbdsdGDust6WzdxR6Gs044aCjojGqV3B33+uLK9OHk2q987BMDYBuCjr6cMr93eq3TG1R66y4Wnxoz8OcuWPwwnWeHW/YZt+xBRx9OAV+llCjegs4AHRH0NGHU+7vVo/XRS/P/77sf2Jq32Rn7hjN3OfwWHXK9IpOuPXhqDcAVDroWKZW94ATHQg4ERGvft7e8ZLNdnTWjsNKk6bFcS85YtlHVB9OCaeZerfvAgMAhQcdAaec1ND5gFNGH87iVp68Ynx8n/9yxrbBa57/H7HrRlsv+Xh4fXHBk259T0IOAIkFHX045Qa4evfhLMnx+74jVpmyojO2DbIsi88fcGT09fSUk5tTfX2xPpyE6w0A4w46+nDKDzj178NZ3N6bbB+HPHcPZ2sbPWuVdeJ/dn6NvpDaB5xuqzcAjDvoWKZW94ATY/mJefv3e1rf5PjC/u92phbgvbu/MZ61yjq1n3Drw+mWegPAuINOisvU9OEU+lMLnGjN3Ps/Y+0VV3WmFqCvpzeO3+9dBY9zfTj6cMq9jQDAGIJOGk9x9OF0MuC0d793XP+58aYX7pfMyXTn4/fHLQ/dmdQF4MWbvLA9ywL14YQ+nM7eRgBgDEFHH075Aaf7+nAW19fTGyfsf2Q0siyZk+mES06LD55xYnIXgU+/7B2x4sSpSQecpyfd3Rlw9OEAwCiDjj6cugeciGr04SzJsbu/KTZddb1kTqQFg/3xm5sviYv/dl3c8tDfkroIrDZtRnxw78PGOXi6ddmUPhwBB4DEgo7XRZf3u+nDWdxz19g43rHTK5M6kX7xpwvjqQVzIo88vv2H3yR3IThsuwPjBetsPo6xUP7ArNwytdKuK/pwAGAMQccytXJ/N304i+tpNONLB74nehrNpE6kb1z5i3/+95/88dyYtWBuUvvfbDTiywcfvey6WzYV3bhMTR8OAIkHHcvUyg84FV+mVkIfzpK8/UWviOevtWlSJ9HFf7subnrwjn/+89yB+XHa9WcldzHYYo2N4m07HFT5gNOZZVP6cAQcABIMOgJO8amh8wEnH9fvVs5+b7zy2vG+3Q9N7iT6/EU/eMa/O/GKn0f/0GByv8sH9jos1lxhlaWMBX047d/2sn6UegPAOINOVULASCfpXhddaMDJO7PfWZbF5/Z7d0zs7UvqBLr4b9fFpXf+8Rn//p4nH4rvJNirM61vcnzqZf+tD2dJG/O66HLrDQCVCjr6cCpx867i66KX59Bt9o3dNto6qZMnz/P4xHnfWWpNv3DxD2N2/7zkLgoHbbl77L3Z9u0fB/pwRhhw1FveAaA6QUcfTiUCTiQYcCIiVp82I2bu/Z/JnTw/veG8uOaeW5ZavkfnPhlfveynSV4YPn/gkTF5Ql9HzqHOvr7Y66IFHAAEnboHnAh9OCX53H7vGvsXVnbI3IH5MfOck5Y7Xr52+c/i4TlPJHdhWHf66vGe3d9Q6jnU+b6QTrwuWh9O4fUGQNApJwSMdJKuD6fQgJN3fr+fdtCWu8XLNt8puRPnS5f+OB6c/dhyD8LcgflLfFlBCt6xy6tj89U3KHxg6sMp90LQNfUGQNApLwSMJBpYplZ+wOlcvVeaNC2Of+k7kjtpHpz9WHztip+NuHynXP3buPPx+5P7PSc0e+OEA98TWZYVNjD14ZR7IRBwABB0Sgo4+nDaEQ7H8heqMcv45EveHqtOXSm5k+bT53835vUvGPGfHxweis9c8L0kLxA7bPDceN0LXlLIhFsfTrkBp/b1BoAxBR19OJUJOON7ilOdWcauG24dr37eXsmdMLc/cnecdt3ovwz05zecFzc+cHuSF4mPvfT/xSpTprflHNKHU+41q2vqDQCjDjqFfgCpD6e8gFOhWUYeMamnL7544FGjWxJVER8+65sx1Boe9d9r5Xl84tzvJHmRmDF5hfjoPoePe2DqwynvQqAPBwCWFnT04RRflCJiVQX7cJa0Gx/Z+22xwUprJneyXH7nDXH2bVeO+e+f+5ffx6V/uz7JC8Xrt3lp7PL09xx5ffEIA44+HAEHgOoEHX04lQo4qb4ueln7ts06m8fbtjswuRMlz/OYec7J4y7CceecFHme3uwvy7L4/EFHRV+zt5iAE5Hm64v14TyzwAIOAJULOnV/XXS5f7HcgFPRPpzFd2VCsxlfOei90Ww0kjtR/u9PFz7zy0HHUIRr77k1zrz1iiQvFpussm68fedXFRNwUn2KU9T1Qh8OALQh6FimVvTMq6SAU6FZxlLC15G7vj42X22D5E6SgeGh+OR53xlfERb5x5lj7POpgmNefGhsMGOtZU66uyLgVOApjj4cAFhe0CnktifgjD0cjjXgVKsPZ/F/sckq68W7d3ltkifJt6761Si/B2fZE8DbH70nfvrHc5OsxcTevvjcgUeOb9It4Iy7JgIOAJQQdLwuusQ8lkgfzuL/opFl8ZWD3ht9Pb3JnSBPLZgTn7/oB2OfBC7FJ879diwY7E/yorHnptvGgVvuNvqAE5FmH06E10WPIMB39hoOAG0MOl4XXXLASWyZ2qKO2PHlsd16WyR5gpxw8Wnx+LxZow84yzk8D8x6NL79h98ke+H4zAHvjGkTJ3foswSvi+54vUsJlADQgaCjD6fTAafay9QWte701eMDL35zkifHA7MejZN+/8vCJtyfu/DUeHL+7CRrs8a0leMDex3WZQHHMrUkAyUAgs7o70UCztjDYcIBJ0Y3AfziAUfFlAmTkjw5Pnbut2L+UpeXjX8C+OT82fG1y3+W7MXj8BcdEtus++ySTrPuDDj6ngCg4KCjD6fEPFb1gDOKT11ft/U+scezXpjkiXHzg39bygsD2ruM58TLfxYPz348zYtH1ojPHXDkM18Xnurri/XhRG36ngBgeUFHH07JASfhPpzFrTJlehy3zxHJnhgfOesb0fq3L/Ys5lPueQML4n8v/H6yddp6nc3irdsfVMBcVR9OcdfDGtcbAEYSdPThdDrgpNOHsySf2+9dsfLkFZM8Kc6//eq44K/XlDYB/P41p8ffHrsv2YvIh/d5W6w5bZWaTLj14VimBkBtg44+nPHt7vj+Qpp9OIvbZ7Md4oAtdk3yhGjleXz83G8t+QAVdGgGh4fiU+edkuxFZFrflPjkfv/d3kGnD6eEy5qAA0CXBJ1KLlNLKOCM7ylOun04z5z0To7P7//uZE+In/zxnLjh/r+UPgn8vxsviBvuvz3Zuh2y1Ytjn813bM+gK/X1xd3ah1ODvicAWF7QWXLASfUpTmoBpwKBss3h6+Mv+a9Ya4VVkzwZFgwNxKfO/06pAeef/5i34uNnn5T0xeSzB747JvVOHN+Eu+ZPcfThAECJQaceAcfroqswAdxpg+fFG1+wb7Inwzeu+Hnc++TDHZtwn3/71XHJHdclW7/1Vlojjtrj9QLOMkJOdwYcIQeAjgUdAafQn5pMH06Ma78m9vbFlw56T2RZluSJ8OT82fHlS3/c8WU8x519UuR5uhPDd+322thstfVHPuj04RR8eRBwAOjqoFOliXbhf7HcgJNUH8749u39e7wpNpqxdrInwv9e8P14Yt7sEuu9ZNfde2v87pZLk63jhGZvnHDwkgJvyU8Virpe6MMZU4AHgO4JOl35uuh6BpyIiOeu8az4rx1fnuxJcNcTD8R3/vDrytT7Y2efHEOt4WTr+aINnxev3vo/OhNw9OFEbb5/CACSCjr6cGoVcCIierJmfPmg90ZvsyfZk+BjZ58c/UODlan3Xx+9J0679qykLyyf2u8dsfKUFboq4Dwdcroz4HSm3gBQjaCjD6dzIWf8B2Kp237nLq+O5621SbInwHX33hq/vOmiguo99nHw6fNPifmDC5Kt64zJK8RH9jm87UOuqHqP95rV+WVqAg4AlB90vC66cwGn4EnJxqusE0fv/sakT4C2Nf+3eRnPg7MejZN//6uka3votvvFDus/t8TxXf6FoHLL1EoJlAXUGwCSCjpd2YdT72Vqi26qkWXx5YPeG309E5Id/GfdekVc8rfrK1vvL1zwg3hi3qxk65tlWXzxkDYva7RMLSxTA4BOBR19OJ0NOUXt12Kbesu2B8SORX1aX4LhViuOO/vkSk8An1owJ75y6U+SvsBsvvqG8fadX1W7gNOZ10ULOADQuaCjD6dzAafEZTxrTFs5PrT3YUkP/FOvPSNuffjvbRrnxQXKr1/+87j/qUeSrvX79n5zrD9jzSQCfNsCTkRxfTht33Y16w0A1Qg6+nAqFHCK/9T1c/u/K1acODXZQb9gsD8+e+H3k6j3gsH++NyFpyZ9kZnUOzE+d9CRlQ/wbQ04Xhc9rnoDQOeDjj6crgo4ERGv2GrP2PfZOyU96L986U9G95Skw8t4vn/17+IvD9+VdM333myH2G/LXZOo95gn3ZaplVtvACgk6NS5DydCH85SzJi8Qnxy37cnPeAfnftkfPWyn3S+3qPY1HCrFZ8+/5TkLzbH7//OmNo3OZkJd2f6cKJrA46QA0Dng07d+3Dyzu/3yPet3EJ9et93xKpTpic94D99/ndjdv+8ztd7lBPAX/3porjmnluSrv3a01eL9+/9llF8uNC5ehd7PRzhoPP9QwBQUtDRh1OhgFP+p657bbJdvPJ5eyY92P/66L1x6jWnJ1HvpyeB//zveR4zz/pm8hec/9rplbHVol8wW5F668OpeL0BoJCg43XRXR1wIiImTeiLz+7/zuQH+3FnnxSDw0NJBJwlTQIv+9sf46K/Xpv0MWg2GvHFlx8dzayhD0cfDgB0KOgkGHBq9brosce3tiXBpyfcx/3H4bH+SmsmPdCvueeWOP3Pl42gJtVexnPc2d+MPE97oviCdTaPN29/QGUDZTmXNX04ANCZoDPme5E+nDpMShadkLxw3efEYdsdmPxA/9CZX39mQEhwGc/1994Wv77p4uSPx8yXHhFrrLByZQNlcZc1fTgVvI0A0BVBpytfFy3gLD4peVpfT2989aCjo5FlSQ/y39x8SVx1102Vr/dIt/3xs09e+hK8REybOCU+/rK3l1pvfTjRRfUGgKeDjj4cAWcJk5Kjd39jbLba+kkP8MHhofjY2ScnUe+RbvuOR++NH1xzRvIXn1duvXfsvskLKxso6xFwuq3vCQAWDTr6cDoXcsYe39qWBJc24X7O6hvFO3d+TfID/LtX/zbueOze2i3jOf6878b8wQXJH58vHPKemNgzofL1bsvA0Icj4ABQctApclbXyYBjmdqYJyTNRiO+cvDR0dvsSXpwzx2YH5+74NRaLuN5cPZj8Y3Lf5H8BWijldeJd+/xhsrXe1wDo+inOFHg+E4iUALAuINOyn04lqktPilZlre/6BXxgrU3S35wn3DxafHwnCcqX++xbvuLF58Wj8+blfxxOurFb4hNl7VE0jK1yl5P9OEAkHjQ0YfT3l+m2sum1pu+RrxvjzcnP7AfnPVYfP3yn0edl/E8NX9OfOni05I/VhOavXHCIe+NbPGXXiSzbEofjoADQGJBRx9OMZOS8gs10glglmXxxYPeE5MnTEx+YH/qvO/EvIH5lQ2U0aZh8c3LfxH3PfVw8sdrp42eH6/aeu/K13u5G/O66ILrDQDjDjr6cNofcKr/qesbX7Bv7LHxNskP6r88fFf86LqzKhso2zksFgwNxPHnfa8WF6OP7/ffMX3iNH04I7qeRFeMbwBoY9DRh1OngDOaZTyrTZkRx+1zeC0G9YfP/HoMtYYrGyjbPeH+4bWnx60P/z3547ba1Bnx0X2PqHy9LVMTcABIKugk0IcToQ+n3QFnkW1/7oB3xfRJ05If0JffeUOcc9vvq1nvtg/XhRsbbrXiU+d8uxYXpDdtv39sv8GWla53twWczvU9AcC4g06Ky9T04bQl4Pzjjx+wxa6x/3N2SX4w53keHz7jxOrWu6iBkUf85k8Xxx/uujn9C1LWiBMOeearzatW70KvJ0Vd51LtewKAsQedlAJOhW6CNVlWssLEKfGZl72jFoP5FzeeH9ffd1ul6932Cfci/zjzzG/U4jg+Z82N4oidXzHuAF90vYu/npR/4a1UvQEglaCjD6eYCfd4l5V8at//jjVXWCX5gTwwPBifOvc7la93kRPuK+68Ic7/yx9qcWH64D5vjXVXWqNLA0639eGUWG8ABJ1C7+OjTkRV7cOJSH1ZyS4bPT9et/U+tRjIJ1/5y7jz8fsrXe+2DIzlbPsjZ3w9Wnkr+eM5qXdifPqAd5Y84Y7Qh1PTegMg6HQ84CTVh5P2t5BP6u2LLx20hC9pTNBTC+bEFy76QaXrPe6BMcJt3/zAHfHLGy+sxcVpvy13iZdtsUuJgbITfTht/mFJBfiS6g2AoFOdgFOhu16Nl5V8aO+3xoYz1qrFIP7ChT+Ix+fNqnS9iw44i/rYWSfFwPBgLY7tZw86Mqb0Tap0vVO7nnRN3xMAgk677+PjDzj6cMY8KRnhtl+w9mZxxA6H1GIA3//UI3HS739Z6XqP6Qwax7bvevyB+P4ffleL47v29NXi2L3eIuAI8ADQmaCjD6f9SbCoZSU9jWaccNBR0Ww0ajGAP3bOybFgsL+y9R7zJHCcjj/vuzGnf14tjvF/7/rqeO6amxR3kuvDSSLAA0CpQccytfYXquhlJUft9vrYqq2Txs656YE74md/PK/S9R51wGnTth+Z80R84/Kf1+I49zSa8aVXHB2NrFHZei8/COvDEXAASCLotC/gWKa2+KSkyAn3JqusG0fu9rraDN6PnLnYG8Ys4/k3X7zotHhkzhO1ONbbrPecOHT7/dIIOPpwwlMcAJIMOrUJOBFd9S3kjSyLLx/83pjYM6EWA/f8v/whLvzrNWMOOLVfxpNHzFkwL7500Wm1uVgd97L/F6tOXUnA6fIADwBtDzq168Ppsm8hf9v2B8UO6z+3FoO2lbfiY+ecXMlAOapJYAkB/ltX/F/c++RDtTju0ydNi0/s/46xHbzSXhdd7w9MOh7gAaCdQUcfTjEhpMxPXdeZvlp8eO+31mbQ/vj6c+LG+263jGcE43vB0EB8+pzv1ObYv2abfWK3TbapbL2L23ZC4xsAqh509OEUF3DKXjb12f3eFVP7JtdiwC4YGohPn3tKJQNltSbc//oXP77urLj1oTtrc9E64eVHL2EJpmVqtR3fANDOoDPq+5U+nPYGnGjfbr76+XvHSzbfsTYD9uuX/WxES7G6pQ9nJON7uNWKj591cm3GwMarrBPv2uP1la13WQGnM+NbwAEg0aAz/qc4+nDaEnDatKsrT14hPvHS/1ebwfrk/Nnx5Ut+XMlAudRJYCkBfvk/7PSbL42r7rqpNmPhPXseGpusum6H6q0Pp/zxDQBjDDr6cIoJIZ1eVvK/+78rVpkyvTaD9fjzvxdPzp9d2XqXkvfHMb5nnvGN2oyFvp7e+OzBR3Wo3lH69aR7+8wAYBxBRx9OMQGn08um9t50+zjkuXvUZqDe9cQDccpVv65YvdPqC7nyzhvinFuvrM2Y2GPTbeMVz9+7K64n3RngAWCcQWeU8+fqBZyl7ltR225TwGn7vfxfx2Na3+Q44cCjajVQjzvrpOgfGqxYvUual7Vxwj3zjG/8+5esJu7TB74zpk+aVtuAo88MAIoMOpapFRNwCvzU9bh9joi1V1ytNoP02nv+HL/600WVrXdKn3Lf8uDf4ud/PK82Y2O1aTPiwy89vKAPNbr7A5OUAjwAjC7oWKY24klJlSbcL9pgq3jztvvXapB+7OyTI8/zStY7xfH9iTNPfsbTsZQd9qKDYrsNtkz+eiLAA0DRQafKASfCspLFi7DItvt6euOEg46KLMtqM0DP/PPlcckd11nG08Zt3/3Eg/Hdq35Tn4tY1ogvvuLo6G32+MCkWwM8ACw36FQ94BT59qMiAk5EqctK3vfiN8emq65fm8E53GrFcWefbBlPAeP7s+d+N+b0z6vNWNlizWfF4Tu9PMmAI8ADQJFBRx/OiCclRW171BPuxba95Zobx3/v/KpaDc7vX/27uPWhOytZ72QC/FI29+jcJ+Nrl/y0VuPlAy95W6y1vN40fTihDweA7gk6+nDaOynpwIS7p9GMrxx8zOiX7lTYvIEFcfz53+2ygFPu+P7yxafFw7Mfr82Ymdo3OY4/+N2Vvp7owwGAMoNO1QJOhG8hX9LGlrHtd+z8qnj+2pvWamB++dIfx4OzHytpAhhdFXCeNqd/XnzhwlNrNW4OeO5u8dItdqpkvfXhAEDpQaeL+nBq+KnrxiuvE8e++E21GpSPzHkivnbpT0sMlPXswxnJ+P72Fb+Kvz92f63Gz+cOfk9MnjDRByZ1CfAAMPagU9WA41PX5W07y7L4/IFHxsTevloNyk+fd0rM7p9buXrXMcAPDA/GZ879Tq3GzzorrR7H7v2WSta7o9eTUgJ80T8MAFIJOvpwxjXhfvO2+8VuG7+gVgPy9kfujlOvOb3GAad6Af4n150Tf7r/9lqNo3fs/trYcq2Nwwcm4SkOAIJOR0JOUTfIGvbhLG71aSvHR/c5vHYDcuZZJ8Xg8FBB86buDDjLG9+tvBWfOOvkWo2jnkYzPvfy94z/O6W64AOTlMc3AFQr6OjDacuk5PMHvDtWnDi1VoPx6rtviTP+fFlBgbIGy3gKDPBn3XJFXHbH9bUaTztu+Lx443b7VbLeVfnAZHw/qnMfUAFAtYKOPpxo16euhzx3j3jZc3au3WD88BknRt7KfcrdoQD/0dO/Hnler9nmx/b/71h16kqVrHf64ztKH98AMBrFf/FKRT7hHlPAKaoQ49x2//BgHPmrz5c/Wgqs95PzZsfv//6nYnY0N75Hsu1r7r4lDvvhzFhh4pRS97voH7batBnxyJwnanQ96c7xDQDVCjoVWsbTuRtw+yclp99y2Qh+VF7wseyeeo/sR9UjwP/fH8/vWIDvlkDZtp0VcACgA0FHwIlu/NRVvdVbvQV4IQeAegYdn7qGZVPqrd4CjnqPv95ZAEBVgk6Ky6YsK0l4wq3eJtzq3dX1BoDCg45PXcOn3N1Sb31PydZbgBdwABB0an+TFHBMuNVbvdU7zXoDQKFBR8AJy0rUW73VW70FHADqFHQs4wnLeMqs9WIbNOFWbwGnu+oNAIUHHctKwqeuAqV6q3dy9RYoARB03CQFHPUWKNVbvetWbwAEHRNuExL1Vm/1Vm8BB4BaBx3LSsIynprW24T7mRsUcASc2o1vAFg86PgUMHzqqt7qLcCrd6r1BoDFg45PAcOnruptwq3e6i3gAFC3oNPVE+7FNijgmACqt3qrd0LXbwBYbtDxqatlJepd23qbcJcw4VZvAQeACgadNt2BTLgrOylRb/VWbwG+HvUGgFEFnfJukKO+SZoAqrd6q7eAo94AUHrQKeomaVlJwhNu9TbhVm/1BoBUg45PXSs7KbGMR72TqrcAL+AAQCWCjk9dBRz1Vm/1Vu/C6y01AVBW0BFwKjshUW/1Vm/1rmWgBIDCg45PXZfzoyzjMeFWbwFHvZOoNwCCjoBT7UmJQKne6p14vQWccgM8AIJOWjdJn7qqtwm3equ3egPA8oKOTwEFHBNA9VbvLgg4Y/oLAg4AiQYdnwIu50dZxlNovU24BXj1FigBoO1BZ4Q3HMtKBBz1FuDVW72FHADSCTrtvkmacI+7JuptAqje6q3eAFBg0LGsRMBRb/VWb/UWcACoTdCxrKTcSYl6d2m9TbgLrrV6CzgACDpdPeHu3KREvdVbvQV49QaAgoOOZSXlTUjUW70FHPVWbwAoOOhYVtItE271NuFWb/UWcADooqBjUlLOpMQyHvVWbwE+/YBTYr0BoPCgI+CYcKu3equ3ene03gDQzqBjQjLumljGo97qrd4CjoADQJWCjmU8iU4AF9ugCbd6CzjqLeAAIOiYlIz3BmwZj3onFeDVu9x6C/DlXksAEHRMuFOflAg46q3e6i1QAsAzg45vfRdw1Fu91bsCAWdMf0G9AWCpQSfpm6RlPIXW24RbgFdvgVLAAaA7g45lJSYl6i3Aq7d6CzgA1CboWMYj4JgAqrd6q7eQA0Ctgo5lJSYk6q3e6q3eAg4AtQk6lpV0x6REvU24i661egs4AFCJoGNZiUmJequ3AK/eHaw3ALQ36FhWYsKt3gKOeqt3B+sNAO0POpaVlDchUW8TQPVWb/WWlQAoOOj41LU7JiWW8ah3yfUWcEqYzHdfvQFgBEFHwOmOCbd6q7d6q3f6AR4ARhh0fOpqAqje6q3eAk4a4xsARhF0yr5JJrKMx7KShCfc6m3Crd4CDgCCjk9dTUrUu3sCvHoL8AIOAF0TdGp+k/Spqwm3equ3egs5AAg6Ao4JiXqrt3qrd0cDZSYRAVCpoGMZT1jGU2atF9ugCbd6CzjdVW8AKDzoWFYSlvGot3pXPMCrt4ADgKBT+5ukCbd6Czjqrd5p1hsACg06JtwCjnqrt3qrt4ADQK2CjmUlYRlPTettwv3MDQo4Ak6n6w0A4ww6g6ncJC0rUW/1FuDVu/71znNhCIC2BJ18dkS2UpUngKOelJhwq7eAo97qnWy9syFBB4C2BJ2YY8I9gg0KOCaA6q3e6l1KvfNhQQeA9gSdJ6t4k7SsRL3Vu4R6m3AXXGv1Hsu2M0EHgDZoRJ7d+c+bzTMmgW262YxiU/k//q+IbY96Y23d9vL2Oy9w2+qt3kupd80n3WOqd6Re7zz9evcPuTsDMG49kee3RWQdn5A8fZPs3ISkqG1XcwKo3upd94BT5LFU72Lrnc8fjn+/LwHAGIJO3mjcluUFfJRe1E3SspKEJ9zqbcKt3uq9HMN5ZAPDEb09AQDjCjrRyK6N4Vb1A45JiXqP6Ufpw0m23gJ8dwbKuUPhq3YAaIfGU5+44I6IuKstN8kin+LUpi9E35M+HPVud6Dsvj6cGtf7yX53ZgDaE3QW/r/sojIDTj7yGaOAI1Cqt3qrdzd9YPLUgDszAO0LOlneOnfMN8kiAs4otz3qjaX49qNkAmV07YRbvbuh3gJlofUeziNmCzoAtDHoTBia+KtY0heHtuFGZhlP+3NatQOlZTz1r3fexfWOtOtd9UD56IKFYQcA2hV0HvrcOXMj4pdF3CS7M+BYxmMZjwCv3hWsd9UD5cPz3JUBaG/QiYjIs8b32jnhtoyn3IBjGY9Aqd7qnXS9B4Yjnhp0Vwag/UHnqU9deH5EXLus3NDWCfcotz2mSUlRLOOJ0pbxCJQCvIDTHfW+d25EbtkaAAUEnYW3m+wzY7mRWVZS7qSkq+odBdZbgFfvTgV4H5j8+8YGWxEPWrYGQFvvMM1/++rpp/ou+r/pC3a7JSKeM5qbZHdNSDo3AVTv8ieARR5L9VZv9f6H++Z6CUGFNOcMR3OO4Akkb+jfnujEzGjlrXj3SG+SlvG0c9tVrbc+BfVWb/UusN4LhiPuM6kGoP0ai/+Lp/734nOzLH7algl3hD6ccdbEMp4urbcA7wOTbvnA5I5ZES1PcwAoIehERDQazaMi4qlxTwD14Yy5Jurd5fUuJVAWUO9kAqUPTCrxgclj/RGP97sTA1Be0Hnskxfcl2fZ2xa9SXbnhNuyEvVWbwFegC+k3gOtiL8+tcS/mUXWvnplWQDQnZpL+x/6L/v7LX07r79aRGw74nta22cKRW17WfvdjS8aUO9y6+1FGurd5fXO84hbnoyYP7TkbNLTiKzZaMveNHoa0Zza177c1Ns0cwBIw8Ay7yRPTWy8JyKuLP8maRlP/ettGY96L384tj3A68OpRr3/Pidi1sAy0kQbd8kTHYCuteyPzGZetKCRT3hpRNxY/E3SMp5yJyWW8ah3BevtA5P6f2By79yFr5MuK5w0BB0AQWcpnjj+vKeazdgvIu4RcNo3KdYXot7qrd5dF+Afnh/x99nL3WrWxnCSCToAgs6yPP7JS+7Jmj27RGS3Wcaz/F+jbZMSy3jaMuFW726ot0BZ+Xo/PD/i9lkjSCbhiQ4A5QWdiIgnP3nBXXn/wIsiH0HPTuUnJUVtu00TwLaHPst4uqPe+p6SrXfdA/y9cyP+8tTClxAsL+e0uacmazQCAEFnuWadcOXjEyY3/iPL4odpBhyfulrGU+d6h3qnWu+6BvhWvjDgjGC52j812xdMsmajvS82ACApY74FTD9210PziBMjYsqo77he71rChCTUW73VW707V+/5QxG3Phkxd2hUP60xsad9r5bu64nG5AnRM21i26rRmDTBzAEgDXPG/IUACy6/64beXdf7VSOyLSNig+pNSvICt93GCUltJoG+f8iEW70FnFi4PO2+eQuf5PS3Rvcjs4XhpG2hpK8nsp5GW7fpe3QAkjHQjof62QrH7vL6LLLPRsQanZ9wd25S0p0BR73VW4BX7394aiDir7OW+kWgy72ZtDGUZFm28ItCexqe6AB0pzlt+Wiq//K7b5y+42bfGG4MPRyRbxkRK3TTBHDUkxITbhNu9VbvOtV71mDEHbMi7poTMdQa809vTGi27XXQjQkLn+ZEI/NEB6A7DbS/TfN/Xtq34uQ5h0Yeb4mIHQUcE0D1Vm/1rmG9W3nEY/0RD8yLmDXQhgQR0ZzcvqclzSl9C0OTJzoA3WpOoe+jWeHoXTdpNPI35Hm2b0S+dUSM/6Mwy0rCMp6a1tuE+5kbFHCqNbaHWhGzByIe6Y94bEHEcPt2pjGh2banJVlPI5pPBxJBB0DQKdqK79t5payV7ZZHtkNEvlnk+eaRZRtFxMjuGpaVhGU86q3eAnxp9R7OI+YNLfzP/KGIpwYj5gyO6LtwRp9MYmEwadMdqTl5wr/e3CboAAg6nbLi+3ZeqTnQmDrQE1ObjdbkZ/yBQUepswYrual2aV3z8EV5qzW1249yXvhfKG1jjKf8Q3nEcGthyGmVd1wavc3IJrTpaU6z8e9L4AQdAEEHutHULdd+Mm+1VlQJ6JAin+YIOgBdHXQaagBApzQm9LQt5DR62/dlowDU4B6jBAB0QtbMFr4Cuh3bytr7GmkABB0AGEMyibYGk8bE3rY9GVrmTgMg6ADAUm8+fT0RWZu/HFTOAUDQAaBTst5m23ppsmbDkjUABB0AOhxyehrRaNerpBuLfDFoKTvvkQ6AoAMAi+eEZvteGJA1smhO7i11OVnWEHQAUuJ5PwAlhJxGNCa2MeRMmlD+ExZPdAAEHQD4Zz7oaV8fTdZsRHNSb2dCh5wDIOgAQEREY0Izst729OQ0epolvUZ6ySnHl5ECCDoAdLt/fE9Ou8JBo6+3bS8xGNsOeJwDIOgA0N0Z5+k3q7VheVnWWNjb0+mnKV5EACDoANCtAaeRRTahPd+Rk2VZZBN6OvsUZ7HwBoCgA0C3BZyeRlt6cbIsi6y32bYnQu35BTNvXAMQdADoqoDT22zL046FT3Ca0ejtqdzbzbKepoMNIOgAUPdwE81GNHoa427Qz7J/PQmq7hvNvG0NQNABoGapZmEYicbCyX7WHN8SrqyRRdZoRDSf3l71A0TW0/D9OQCCDqSnOW3iUJa3FAIi/tGL8q9QMu6+lKe3l2WJvrUss2wNQNCBRIPO5N7hyHOFAJ4ZczzNAUiahccA8IyUk7XlLXIACDoAUJ2cI+QACDoAUNnAMpa1Z82mN60BCDoAUOmkM8o/ny38slIABB0AqG7QGU3SyaLR5x09AIIOANTmLpdFNqE5/ldqAyDoAEDRssbIbnNZr74cAEEHAFIJOiMIL1lvz8LvzAGgVixGBqC+QaexrKVoC5ereZIDIOgAQDqajYilBp0ssr6e5QQhAAQdAKiYpS5HazQWvkLaiwcABB0ASE2jZ/Hvw8ki62lE1ut7cgAEHQBIUZZF1rvIEx1PcQAEHQBIPuf0NhaGmizz6mgAQQcA6qExcUJkE3oEHABBBwASl2URzUY0ehrRnNqnHgCCDgAkmWwimv9YntbI/vkq6cbkCUoDgKBDl2s0ckWA6ueZfz9vs8iy7Jn/PiKyLItGX6+aASDo0OXzp95GSxWgPhqTepcYgADownuCEgBQB1mzEY2JnuYAIOgAUCPNKV5AAICgA0CdbmYTeyPrcUsDQNABoCaynkY0vWkNAEEHgPqknMySNQAEHQDqpWdqX2RNtzIABB0AaqI5tS+y3qZCACDoAFCTkDOlLxoTfBUcAEvnLgFAWiFnqpADgKADQF1k2cKeHMvVABB0AKhFxmk2FvbkePEAAIIOAHXQmNjre3IAEHQAqIes2YjmlL7IejzFAUDQASD1gJNl0ZjUG42JvYoBgKADQOIBp5FFY2JvNPp6IzL1AEDQASBhjd5mZH09XhkNgKADQLqyRiOy3mZkvY1o9DYjMo9vABB0oL0Trp5mHnmuEND2kytbmF+yLKKRRdbIIms2Fr5YQLABQNCBgk+AFSYNRQg6AAB1452dAACAoAMAACDoAAAACDoAAACCDgAAgKADAAAIOgAAAIIOAACAoAMAACDoAAAACDoAAICgAwAAIOgAAAAIOgAAAIIOAACAoAMAAAg6AAAAgg4AAICgAwAAIOgAAAAIOgAAAIIOAAAg6AAAAAg6AAAAgg4AAICgAwAAIOgAAACCDgAAgKADAAAg6AAAAAg6AAAAgg4AACDoAAAACDoAAACCDgAAgKADAAAg6AAAAIIOAACAoAMAACDoAAAACDoAAACCDgAAgKADAAAIOgAAAIIOAACAoAMAACDoAAAACDoAAICgAwAAIOgAAAAIOgAAAIIOAACAoAMAAAg6AAAAgg4AAICgAwAAIOgAAAAIOgAAgKADAAAg6AAAAAg6AAAAgg4AAICgAwAAIOgAAACCDgAAgKADAAAg6AAAAAg6AAAAgg4AACDoAAAACDoAAACCDgAAgKADAAAg6AAAAIIOAACAoAMAACDoAAAACDoAAACCDgAAIOgoAd0tX6AGAAC1m+PNF3TodnOUAACgbrLZgg7dnvZnqwEAQM1iToSgQ5fHnGg8rgoAADWb42XxuKBDl6f9/K+qAABQs6CTx+2CDl2e9vPbVAEAoF4akd0m6NDVmq3GraoAAFAvebQEHbrclMHrI/J+hQAAqE/OaQ1n1wg6dLX7T7p2XkT2B5UAAKiHLOLGh3901UOCDmRxoSIAANRDK7ILIiIEHbpe3oozVQEAoB6aeX6WoAMR8dAPr/p9RHj7GgBA+h64f2C98wUd+JcfKgEAQA3mdD/72bCgA/+QtZrfj4ghlQAASFaeZ8Pfe/ofBB2IiAdOu+KuPPKfqAQAQLI553cPnXrNTYIOLKaRNT4ZES2VAABITyuan/m3uZ2SwEIPnPr7P0dkv1AJAIC05BHnPPyDK68QdGApGkPD74mIOSoBAJCMgUaWvXvxf9lUF/iX2TfdP2vKc9fJsyz2Ug0AgOrLsvjsA6de9ePF/70nOrCYVQbmfCEiblQJAICqy+9oxfxPLOl/EXRgMTf/7OaB4Va8IiJmqwYAQGVDTn/Wyl790Kk3zhV0YIQeOe2q2/MsDlcJAICKyrL3PHDaVdcu7X/WowNLMffG+26a8rx1pmcRO6gGAECVQk5858FTr/rQsv6IoAPLDjvnTN1q3Q0i4vmqAQBQhZCT/e7Beya9If7+92V+/6Gla7Bs+cr9sw+PiDOVAgCg4y5rTBp8dVx00dDy/qAnOrAcj9zyyPD6m03/2fyeCZtExJYqAgBQvizi3OH+SQc8dOqVc0fy5wUdGGHYmXPIfb+c+sTaMyKy7VUEAKBUpzx476TXzDvjogWjCEbAaKzxhu0OjchOjIgpqgEAUKihiOxDD/7g9/8bEflo/qKgA2Ow5ht3eHaex08jckvZAAAKkd2d5/mrH/rhVb8fy9+2dA3GYM6N9z46fbN1v9vqiaFY+PrpHlUBAGiLoSyPrw5EvPLRH151x5hjkjrC+Kx96HabDreyL0bES1UDAGAcsrgwj+F3PnTqNTeNf1NAewLP67Z9/nCj+YGI/BXOLQCAkcsjLo+89dGHfnj1+e3LTEBbrf7GF24Zec9hWeSvjYg1VAQAYIkejch+3Ig45f4f/P66dm9c0IGivPKVzTX77t07z1v7RRZ7RMRzFAUA6HJ/iTy7IG/EGQ9NGjwrTrp2sKgfJOhASVZ5wzZr9ma9O7Yi3yzLs82yaG2SR6wekU2NiKnhddUAQPrmRcScf/zn4TzyOxp54895o/WXZiu78r4fXnVvWTvy/wGk+R6+KgNZxAAAACV0RVh0ZGF0ZTpjcmVhdGUAMjAyMS0wMy0yOVQwMjozNjozMyswMDowMPpipPEAAAAldEVYdGRhdGU6bW9kaWZ5ADIwMjEtMDMtMjlUMDI6MzY6MzMrMDA6MDCLPxxNAAAAAElFTkSuQmCC;fontSize=19;fontStyle=1" parent="1" vertex="1">
          <mxGeometry x="-389" y="594.4999999999999" width="90" height="83.67" as="geometry" />
        </mxCell>
        <mxCell id="ruudqL98C5SeJLmAqFBZ-6" value="gpw.pl" style="sketch=0;pointerEvents=1;shadow=0;dashed=0;html=1;strokeColor=none;fillColor=#505050;labelPosition=center;verticalLabelPosition=bottom;verticalAlign=top;outlineConnect=0;align=center;shape=mxgraph.office.concepts.website;rounded=1;glass=0;labelBackgroundColor=none;labelBorderColor=none;fontFamily=Helvetica;fontSize=19;fontColor=none;opacity=40;aspect=fixed;fontStyle=1" parent="1" vertex="1">
          <mxGeometry x="-379" y="480.5" width="90" height="74.75" as="geometry" />
        </mxCell>
        <mxCell id="ruudqL98C5SeJLmAqFBZ-7" value="&lt;div&gt;data source&lt;br&gt;&lt;/div&gt;" style="text;html=1;strokeColor=none;fillColor=none;align=center;verticalAlign=middle;whiteSpace=wrap;rounded=0;shadow=0;glass=0;dashed=1;labelBackgroundColor=none;labelBorderColor=none;sketch=0;fontFamily=Helvetica;fontSize=20;fontColor=none;opacity=40;fontStyle=1" parent="1" vertex="1">
          <mxGeometry x="-379" y="422.5" width="60" height="30" as="geometry" />
        </mxCell>
        <mxCell id="ruudqL98C5SeJLmAqFBZ-8" value="" style="rounded=1;whiteSpace=wrap;html=1;shadow=0;glass=0;dashed=1;labelBackgroundColor=default;labelBorderColor=none;sketch=0;fontFamily=Helvetica;fontSize=20;fontColor=none;strokeColor=#6B6B6B;strokeWidth=3;fillColor=#67AB9F;opacity=40;" parent="1" vertex="1">
          <mxGeometry x="1274" y="535.5" width="197" height="183" as="geometry" />
        </mxCell>
        <mxCell id="ruudqL98C5SeJLmAqFBZ-9" value="Data Studio" style="editableCssRules=.*;shape=image;verticalLabelPosition=bottom;labelBackgroundColor=none;verticalAlign=top;aspect=fixed;imageAspect=0;image=data:image/svg+xml,PHN2ZyB4bWxucz0iaHR0cDovL3d3dy53My5vcmcvMjAwMC9zdmciIHhtbG5zOnY9Imh0dHBzOi8vdmVjdGEuaW8vbmFubyIgd2lkdGg9IjIwLjAwMDAyNjcwMjg4MDg2IiBoZWlnaHQ9IjE4LjM1OTQ1MTI5Mzk0NTMxMiIgdmlld0JveD0iLTAuMDAwMDI2Njc4MTQ5ODc5NDQ0MzkgMC4wMDAwOTc3MzIxMjUxNDExOTIyMyAyMC4wMDAwMjY3MDI4ODA4NiAxOC4zNTk0NTEyOTM5NDUzMTIiPiYjeGE7CTxzdHlsZSB0eXBlPSJ0ZXh0L2NzcyI+JiN4YTsJLnN0MHtmaWxsOiM2NjlkZjY7fSYjeGE7CS5zdDF7ZmlsbDojNDI4NWY0O30mI3hhOwk8L3N0eWxlPiYjeGE7CTxwYXRoIGNsYXNzPSJzdDAiIGQ9Ik0xNy41IDEzLjM0OGgtNy4yNmEyLjUzIDIuNTMgMCAwIDAtMi43NCAyLjUgMi41IDIuNSAwIDAgMCAyLjc0IDIuNWg3LjI2eiIgZmlsbD0iIzY2OWRmNiIvPiYjeGE7CTxjaXJjbGUgY2xhc3M9InN0MSIgY3g9IjE3LjUiIGN5PSIxNS44NDgiIHI9IjIuNSIgZmlsbD0iIzQyODVmNCIvPiYjeGE7CTxwYXRoIGNsYXNzPSJzdDAiIGQ9Ik0xMCA2LjY3OEgyLjc0QTIuNTMgMi41MyAwIDAgMCAwIDkuMTc4YTIuNSAyLjUgMCAwIDAgMi43NCAyLjVIMTB6IiBmaWxsPSIjNjY5ZGY2Ii8+JiN4YTsJPGNpcmNsZSBjbGFzcz0ic3QxIiBjeD0iMTAiIGN5PSI5LjE3OCIgcj0iMi41IiBmaWxsPSIjNDI4NWY0Ii8+JiN4YTsJPHBhdGggY2xhc3M9InN0MCIgZD0iTTE3LjUuMDA4aC03LjI2YTIuNTQgMi41NCAwIDAgMC0yLjc0IDIuNSAyLjUgMi41IDAgMCAwIDIuNzQgMi41aDcuMjZ6IiBmaWxsPSIjNjY5ZGY2Ii8+JiN4YTsJPGNpcmNsZSBjbGFzcz0ic3QxIiBjeD0iMTcuNSIgY3k9IjIuNTA4IiByPSIyLjUiIGZpbGw9IiM0Mjg1ZjQiLz4mI3hhOzwvc3ZnPg==;fontFamily=Helvetica;fontSize=19;fontStyle=1" parent="1" vertex="1">
          <mxGeometry x="1328.74" y="587.6199999999999" width="87.51" height="78.76" as="geometry" />
        </mxCell>
        <mxCell id="ruudqL98C5SeJLmAqFBZ-10" value="visualization" style="text;html=1;strokeColor=none;fillColor=none;align=center;verticalAlign=middle;whiteSpace=wrap;rounded=0;shadow=0;glass=0;dashed=1;labelBackgroundColor=none;labelBorderColor=none;sketch=0;fontFamily=Helvetica;fontSize=20;fontColor=none;opacity=40;fontStyle=1" parent="1" vertex="1">
          <mxGeometry x="1332" y="511.5" width="60" height="30" as="geometry" />
        </mxCell>
        <mxCell id="ruudqL98C5SeJLmAqFBZ-44" style="edgeStyle=none;rounded=0;orthogonalLoop=1;jettySize=auto;html=1;fontSize=19;fontColor=#000000;strokeWidth=3;" parent="1" source="ruudqL98C5SeJLmAqFBZ-12" target="ruudqL98C5SeJLmAqFBZ-9" edge="1">
          <mxGeometry relative="1" as="geometry" />
        </mxCell>
        <mxCell id="ruudqL98C5SeJLmAqFBZ-12" value="BigQuery" style="sketch=0;html=1;fillColor=#5184F3;strokeColor=none;verticalAlign=top;labelPosition=center;verticalLabelPosition=bottom;align=center;spacingTop=-6;fontSize=19;fontStyle=1;fontColor=#000000;shape=mxgraph.gcp2.hexIcon;prIcon=bigquery;aspect=fixed;" parent="1" vertex="1">
          <mxGeometry x="810" y="555.4999999999998" width="171.4" height="140.68" as="geometry" />
        </mxCell>
        <mxCell id="ruudqL98C5SeJLmAqFBZ-45" style="edgeStyle=orthogonalEdgeStyle;rounded=0;orthogonalLoop=1;jettySize=auto;html=1;entryX=0;entryY=0.5;entryDx=0;entryDy=0;fontSize=19;fontColor=#000000;strokeWidth=3;" parent="1" source="ruudqL98C5SeJLmAqFBZ-13" target="D0ZbUYIt1elGonWLRSw8-1" edge="1">
          <mxGeometry relative="1" as="geometry">
            <mxPoint x="561.5" y="375.82249999999976" as="targetPoint" />
          </mxGeometry>
        </mxCell>
        <mxCell id="ruudqL98C5SeJLmAqFBZ-13" value="&lt;b style=&quot;font-size: 19px;&quot;&gt;Cloud&lt;br style=&quot;font-size: 19px;&quot;&gt;Storage&lt;/b&gt;" style="sketch=0;html=1;fillColor=#5184F3;strokeColor=none;verticalAlign=top;labelPosition=center;verticalLabelPosition=bottom;align=center;spacingTop=-6;fontSize=19;fontStyle=1;fontColor=#000000;shape=mxgraph.gcp2.hexIcon;prIcon=cloud_storage;aspect=fixed;" parent="1" vertex="1">
          <mxGeometry x="268" y="550.6599999999999" width="158.72" height="140.68" as="geometry" />
        </mxCell>
        <mxCell id="ruudqL98C5SeJLmAqFBZ-32" value="Airflow" style="shape=image;verticalLabelPosition=bottom;labelBackgroundColor=none;verticalAlign=top;aspect=fixed;imageAspect=0;image=data:image/png,iVBORw0KGgoAAAANSUhEUgAAArwAAAK8CAYAAAANumxDAAAACXBIWXMAACxLAAAsSwGlPZapAAAAAXNSR0IArs4c6QAAAARnQU1BAACxjwv8YQUAAGDvSURBVHgB7d17fF1neej5591bN1u+SLETQxLibUMbAnZsBUhsKIltwClMB+wEQg/9TGJn5vQz53Noc5lpy61jOZTQnk7BaZmh7R9Yzuk0DE1i0zkktDSxwpmh5nJipSeHO3g71+Yq+SJZ0t57vbPeJW1HliXt27q8612/LwjL9s6FxLZ+evys9xUBAAAAAAAAAAAAAAAAAAAAAAAAACAkqpEXP/OOwkbJy0bzvhYpLvTatgW+//VHikUBAAAAYlBX8D63ee1tnuh+/90eidBcEa2UjPjfMXLOt4n/daXO+TbP847P/HpeybCn5cR8f25VkZF8furPO94lI2sGiyMCAAAAe2i/4Iae6JGx9h1+7RWCb1PqmKjSY7K5r1jvn6Zm8D77zrV7tA5iNzNmxrE69/2zoR3EtPZGZr7G8+NcTcf5zKBmog0AANCgIz/z/2f8NvGk3++v2UNXP9fUXtn81r31/KkWDN4sxm7ERrTIOZFcjejZAT0znqvrIYQzAADIhB/8REmp/BW/a3fVeOVR2bzuqhqvmT94j20p9LRNqKP+CwoCq+jXYnnqS6WK1WCurnKcfY0/aS51S5GVDQAAkAr1x+4UT++Vd63vX+gl8wbvU5sLO3KiDgpcEkyY5wrlmVNlM1FmrxkAAMTu6DGRybF+P2L3NPBHDUtXaa309c3bLW3zfYcfPhsbO8MBKdCjph48LJivaK2n/hWrqX/RueB9kYr/RfuEyDOb1wTT5HMC2fOOz5wiM0EGAAChaC52jR4Zze/wvxyY7wVtAixgeqXFvE0Fsh/H3vR3BJnctnAcm68TxgAAYEHNx66h/PAoLPSChSa8I0x40Yi54nj62+cMY/PAnifqeF68Y2WR49V1Ch7OAwAgQ1qL3brMG7ylRTLgB8oXBQhZNYx18L72J8bqnHWK86JY6yfMGkVFyxNmUnzp94tDAgAA0i+G2DUWnOE+vbmwz58R3yaAfcxqxBBBDABASoUZuzVOalhwh7fcKf3tk3Kd6KnrhAGLmIfvtgRTYqV2eDL97F3b1ITY/1RuyNzQp0U9UV2ZyJWlSAwDAGCBmCa7VTW3dM15vO2T6jDRC1dU1yWqMcxkGACAGIUfu1oq3q3ya1cOzPeCuh5LI3qRGf5kWGkpmofptHiD5kG6cpcMcboEAAAhiGayG07wGkQvMi7YGZ45FSaEAQBoQHRrDOEFb9VTmwoDOaVuEQDG2RCuToTfcKQ4KAAA4DVPPikyKrvEk/0SvvCD1yB6gRqqqxFaP+F/bZBpMAAgs6KNXSOa4DWIXqBh50yDOTUCAOC86GPXiC54DaIXaBkRDABwUzyxa0QbvAbRC4RuKoK1fkwrGap0yiDrEACAVIkvdg1/bqR2yqa3fn2+F7QcvMbTmwr9SqlYDg4GssicHZwLbpbTg+aECB6MAwBYy8TuiVKf5Nofl3hoKett8u71g/O9IJTgNYheIHaD1VUIpsAAACtUY1e1PepPXXskHvEFr0H0AgkyJ0OIGsopb1Aq8tjrjxSLAgBAXJKJXSPe4DWIXsAO1TWIXE4fqkzKEzwMBwCITHKxa8QfvAbRC9gnCGClBpkAAwBClWzsGskEr0H0AnarBnBFe19nBxgA0BTtfzQ5MrRGdNvjCcVu8HeRWPAaRC+QIsochaYeE+0d4hQIAEBN1diV9kf9rxUkOVrycpVcvW7e1b1Ig9cgeoFUGvF/cRg0+7+sPwAAzmNP7AZ/NyKltbK5rzjfCyIPXoPoBVKO6S8AoMqu2DXsCF6D6AWcMeL/XD5kHn4bb5evs/sLABliX+wa9gSv8czmwu3+X/KLAsAlg/mcHmD1AQAcZ2fsGnYFr/HUpsKunFJx3KsMIG5KhnJaDygtXyd+AcAh9sauYV/wGkQvkAHELwC4we7YNbRsXpdb6AWJBK9B9AIZQvwCQDrZH7uGvcFrEL1ABvnxm1d6Hzu/AGC5dMSuYXfwGs+8o7BR2tRh/92kbucAkJzggTdOewAAy5jYHXqiV8bbHhe7Y9ewP3gNoheAUmrA87wDnPMLAAkLYnfIj91gsrtR7JeO4DWIXgCG/8tsMafUYM7z9rLyAAAxS1/sGsN+8F6w0AusCV6D6AUwS7Dy8Pr/r3hAAADRSmfs+vQx2bx+7UKvsCp4DaIXwGxMfQEgYqmNXSOFwWs8v6lQKCt1WNm/JA0gfkx9ASBsj/9YyUTZPKCWstg1Uhq8BtELYCFMfQEgJD/4iZJS+Sv+r6y7JJVqB++CT7QlyXwAa9N6q/mgJgAwi/lkWGu9q6LUsWffuXb/05sKWwQA0JjUx66hirVeYW3wGkQvgHqY8FX+7wg9vXnNseffVbhFAAC1ORG79bF2pWEm1hsANMJ8ktyW0/3c5gYA83Ardg/L5nXbFnqB1RPeKia9ABphPjmueGrAfKJs1h3MJ80CAJjynSeVlEtfyMJktyoVwWsQvQAaNXvPl/AFkHlHj4nk1R7/t8JulwxJTfAaRC+AZhG+ADLPxO7kWL94eo+4pVjrBakKXoPoBdAKwhdAJrkbu3VJXfAaRC+AVhG+ADIj47FrpDJ4jWr0ipIhAYAmEb4AnJaF2NVyotZLUhu8honeUgfRC6B1hC8A52Rlsqu128FrrBksjhC9AMIyI3z3EL4AUos1hnOkPngNohdA2Pzw7Tfn+HJzG4DUyVbs6um3BTkRvAbRCyBs1QssuLIYQGpkcbKr1EitlzgTvIaJ3ku/c6zP0/qAAEBIquHLfi8Aq2V1jcHz3N/hnctlR4q7iF4AYZu533tsS6FHAMAWTz7px+7oLnZ25+Zk8BpEL4ComP3etgl1lDUHAFYwsTsqfuzKfsmm7OzwzoXoBRAV1hwAWIHY9XNXHa/1EqeD1yB6AURpes3hqFlzEACIE7FbN+eD1zDR639Q2isAEI0es+YQnObAtBdAHIjdhmQieI03HCn2E70AohSsOUw/1CYAEBUTuydKfcRu/ZRkzNObCv1KKT4YAYiUFim2ab3VXIEuABCWauyqtkdFKU6LCX65La2VzX3FhV6UmQlvFZNeAHFg2gsgdMRu0zI34a1i0gsgLkx7AbSM2J0PE96FMOkFEJfpaS/n9gJoDrG7sBqxa2Q2eA2iF0CMeqrn9nJLG4C6aX+Aeaq0RnLtDxK7zct08BpEL4A4mXN7g1vaOL4MQC0mdo8MrRFpf9T/WkHQtMwHr0H0AohT9YG2ZzYXbhcAmAuxW6+Rel5E8E4jegHET33xmc1rvygAMBOx2wBdV/Bm9pSG+Ty1qbArpxQHOQOIDac4ADiL2G2QPiab16+t9SomvLNcdqQ44Gm9WwAgJmbFoazU4WfeUdgoALKL2G2CKtbzKoJ3DkQvgLiZ6JU2dZSLKoCMInYjRfDOg+gFkAStdT/RC2QMsRs5gncBRC+AJATRu3nNQc7rBTKA2G2N1ifqeRnBW4OJXinrPqnz2AsACIP/IXAH5/UCjiN2W6fUcD0vI3jrcOn3i0N+9G4VohdAjKoPsxG9gINM7A490UvsxoPgrRPRCyAJnOAAOCiI3aFeGW8jdlvl6afqeRnB2wCiF0ASpk9wIHoBF5yN3WCyy8/pmBC8DSJ6ASSkxxxb9vy73niLAEgnYjdsevqtJoK3CSZ681r3mduRBABiVPG8AaIXSCFiNxpaH6/nZQRvk8wVoOYqUKIXQNyIXiCFjv5EEbuRYMIbNaIXQFKIXiBFfuDH7kTlK0Lshk8rJrxxIHoBJMVE7ysfuJJb2QCbmdgtlf3Y1bsEiSF4Q0D0AkjKxKmx/tFd24hewEbErjUI3pAQvQCS4JUrcuIXT/VP/PYHiF7AJsRuPNrKxXpeRvCGiOgFkAQTva/+9JdEL2CL7zyppFz6ArFrD4I3ZEQvgCRUJiaC6C397g6iF0jS0WMiebVHtNwuiF5XffciELwRIHoBJMFE78lfPtWvf/8mohdIgondybF+8TQ/B+PS10fwJonoBZCEM68My6njzxG9QNyIXasRvBEy0Vvu1H2iZEgAICYnn3pWxl54megF4kLsJkQX630lwRuxNYPFkVKH3kr0AojTiV8+JZUzk0QvEDViNxUI3hgQvQDiZk5ueOm//lh0qUL0AlEhdhOmivW+kuCNCdELIG7BQ2xPPWeu3vSj96NfFADhIXZTheCNEdELIG6nn/tXGXvxJTFHJOnf++h+AdA6YtcOWp+o96UEb8xM9F76nWN9ntYHBABiEOzzjk+Yd3cRvUCLiF17KDVc70sJ3oRcdqS4i+gFEAezzzv8s2PVrxK9QLOIXbtoYcKbBkQvgLhMnDgpo8/9a/WrRC/QqCef9GN3dBexaw0tWtd16YRB8CaM6AUQF3M+7/Rqg+FH701H9e07egTAwkzsjoofu8InijZRiuBNExO9/qcp9wgARGjWaoNPbZT2jkeJXmABxK69tMdKQ9q84Z+Lt2ut9woARMisNkycODXjW1Qf0QvMg9i1Wz7PQ2tp9IYjxX6iF0DUhn/6S9Hl8oxvIXqB8xC79isx4U0tohdA1MyFFKeee2HWtxK9wFkmdk+U+qSiubDFEQSvhYheAFEzJzbMeIBtmonezsf1J36zIEBWVWNXtT0qSvEJoM3aysV6X0rwWoroBRAl8wDbyaefneu71vhTrUeJXmQSsZsuXcIpDS4gegFEaeyFl2c9wHYW0YvsIXbTp6+P4HUF0QsgSqeeena+7yJ6kR3EbhrVHbsGwZsCRC+AqJx/TNk5iF64T2v/M7/SGsm1P0jspgrB6yKiF0BUFpjyGkQv3GVi98jQGpH2R/2vFQTpoQleZxG9AKJQY8prEL1wD7GbborgdZqJXk/r3QIAIaox5TWIXriD2E0/reu+dMIgeFPosiPFAaIXQJjqmPIaRC/Sj9h1g1J1XytsELwpRfQCCNvYiy/V8zKiF+lF7LrD00818nKCN8WIXgBhMufy6nK5npea6H1c/95HNgqQFsSuS/T0W90I3pQjegGE6dRzL9T70l7/Q8ijRC9Sgdh1kD7eyKsJXgeY6JWy7pMGz6QDgNlGn/vXRl5O9MJ+xK6b8nl2eLPo0u8Xh/zo3SpEL4AWeOVKPQ+vzUT0wl7ErrtKHqc0ZBXRCyAMdRxRNhvRC/uY2B16opfYdVRnjnN4s4zoBdAqc0RZnQ+vzWSi93H9+zfdIkDSgtgd6pXxNmLXVZVJgjfrqtHr/3QvCgA0oYGH12ZSotV+oheJOhu7wWSX33Vw1ea+YiMvJ3gdZaK3TRO9AJpjjihrEtGL5BC7mAfB67DXHykWiV4AzahMTDT68NpMRC/iR+xmiC5KgwhexxG9AJpldnlbQPQiXt//b8qP3QeF2M0AVZQGEbwZQPQCaEYLaw1V1ejdI0CUfvATJRX1Ff+9LQLMgeDNCKIXQKNaXGuoMtG7h+hFZEzslsp+7OpdgqwoSoMI3gwhegE0qsW1hiqiF9EgdrNJS0OXThgEb8YQvQAaMdn6hLeK6EW4iN2s0qJ1w3cNELwZRPQCqFeTl1DMh+hFOL7zpJJy6QvEblbp49IggjejiF4A9Rp9seWH12YietGao8dE8mqPP+e7XZBN+fywNIjgzTCiF0A9SqNjEjKiF80xsTs51i+e5sdOlpU8dnjRGBO95U7d53/4GRIAmMP4Kw0PU+pB9KIxxC6q2spFaRDBC1kzWBwpdeitRC+AuXjlij/lHZUIEL2oD7GLmbqEh9bQHKIXwEImwjutYTaiFwsjdjFbXx/Bi+YRvQDmMxld8Bomevv17330KwLMROziPLooTSB4cQ6iF8BcQrqAopbdRC/OInYxJ1WUJhC8OI+J3ku/c6zP0/qAAIBM7fGWxyckBkQviF2EjuDFvC47UtxF9AKomoh2rWEmojfLiF0srChNIHixIKIXQFU5mpMa5kP0ZhGxi4Vp/8dGw7esGQQvaiJ6ARil0TMSMz96b3pc376jR+C+J5/0Y3d0F7GLBSnV8AkNBsGLupjo1aLvEQCZVYp3wjtN9Ul7x6NEr+NM7I6KH7uyX4CF5HhoDRF7wz8Xb9da7xUAmRTjg2uzEL1OI3bRiCauFTYIXjTkDUeK/UQvkF3l0TFJBtHrJGIXjerMsdKAeBC9QHZNJha8xnT0fuI3C4L0+8GzIie9ncQuGtI+WZQmELxoCtELZFNlIomVhpn86K1oojftzGR34sU+/98nJ3GgMU1cK2wQvGga0QtkT+l07Cc1zGUN0ZtiJnZPlPpEtT0qSrGiggY0d62wQfCiJUQvkC2ViXGxBNGbRsQuWtLcCQ0GwYuWEb1AdiR3UsOciN40IXbRKi1NndBgELwIBdELZIeulMUiRG8aELsIR1GaRPAiNEQvkA2TduzxzkT02kxrkVOlNZJrf5DYRQu0/2OpqQfWDIIXoSJ6Afclf1LDnIheG5nYPTK0RqT9Uf9rBQFaoXloDRYx0etpvVsAOMnS4DWIXpsQuwibVselSQQvInHZkeIA0Qu4SZcrYjGi1wbELqLQ5C1rBsGLyBC9gJvK45NiOaI3ScQuotLkLWsGwYtIEb2Ae7yyVac0zMdE7+P69z6yURAfYhfRGWn2ljWD4EXkZkRv0z9QAdjD4h3e2Xr9D3OPEr0xIXYRJd38kWQGwYtYmOiVst4qRC/gBJ2OKa9B9MaB2EXUVGv9QPAiNpd+vzhE9AJuqNj94NpsRG+UiF3EoygtIHgRK6IXcENlwvoH12YjeqNA7CIunn5KWkDwInZEL4CEmOh9XP/+TbcIWmdid+iJXmIXMdCtXDphELxIRDV6dYu/RQEgGeXx1Dy4NpsSrfYTvS0KYneoV8bbiF3EQ6uitIDgRWJM9LZpohdA7IjeVpyN3WCyy4oI4tGpeGgN6fX6I8Ui0Qukj66k5pSG+RC9zSB2kZT2UlFaQPAicUQvkD5euk5pmM909H70dkFtxC6S09KlEwbBCysQvQAS4kevfMGf9O4RLOw7v1Bypu0rQuwibrr1NiB4YQ2iF0BCzKR3D9G7gB/8RElu4iui1A4B4ndcWkTwwipEL5AOKbpeuF5E73xM7JbK/mRX7xIgGUVpEcEL6xC9ABJC9M5G7CJ5fg4w4YWjiF4ACSF6q4hd2CKnjkmLCF5Yi+gFkBCi9ztPKimXvkDswgol74S0iOCF1YheAAnJbvQe9YdpebXH/41kjmuDHZaUh6RFBC+sZ6K33Kn7/A8/Lf+AB4AGZC96TexOjvWLp1npgC1aPoPXIHiRCmsGiyOlDr2V6AUQs+xEL7ELG+lwfoeX4EVqEL0AEuJ+9BK7sJWSlqe7BsGLVCF6ASTERG+//r2PfkVcQ+zCZlqekBAQvEidavQqkUMCIBH5zk7JqN1ORS+xC7uFcgavQfAilUz0XvLPx3Z6Wh8QAIiXG9FL7CINKjqU39EleJFqlx0p7iJ6ASQg/dFL7CINOlUoO7xKAAc8takwkFPqFgEQi6WXXSLL/DfIfilN3Kn2HQrlg3Ispia7e/zY7RfAblo2rwtlOMuEF05g0gvEK8M7vLPtlvaOR/XtO3okDY78TGTi9O3ELlIitE8kCV44w0SvFn2PAECsVF8qovfJJ/2/1YldotUXBUiH0E5kInjhlDf8c/F2rfVeARCpti4mvOeyPHpN7I7KLvFkvwDpUZSQELxwzhuOFPuJXgDxszR6iV2klaefkpAQvHAS0QtEK9fGh4+5TUfvJ36zIDYgdpFeWvK5oxISfsWCs4heIDoq3yaYjx+9FZ189P7gWZGT3k5iF6lV8k5ISAheOI3oBaKRb8sLFrQm0eg1k92JF/v8+HbvKmRkx5IyD60B9SJ6gfCpNia8dUgmek3snij1+f+SHhWl0nFcGnC+Eenr41gyoBFELxAezuBtSLzRS+zCHaFNdw2CF5lB9ALhyDHdbVQ80Uvswi1FCRHBi0wheoHWKfZ3mxFt9BK7cE2IR5IZBC8yh+gFWtPW1SFoSjTRq7XIqdIaybU/SOzCEaEeSWYQvMgkE72e1rsFQMPY4W1JuNFrYvfI0BqR9kf9rxUEcEVOH5cQEbzIrMuOFAeIXqBxOVYaWhVO9BK7cNnV63hoDQgL0Qs0ro0Jbxhai15iFy7T4Z7QYBC8yDyiF2gMZ/CGxkTv4/r3PrKxoT+K2IXrlIR2/m4VwQvIdPSK3ikS/k8ywDX5Th5aC1Gv/6H40bqjl9hFFmh5QkJG8ALTLvvn4iEp661C9AILautipSFk9UUvsYts8H+gS6gPrBkELzDDpd8vDhG9wPw4oSEyC0cvsYssqWh2eIGoEb3A/PJMd6M0Fb3/629uOedbiV1kzZJy6MGrBMCcnnlHYaO0qcP+u00d5P5sz6Xy7PJL/LdLz/n2S048I0vHT8olI8/KsomTAqTJ4lUrpfdX1goipUXp3eo/fO0AsYsMGpbN6y6QkPGoLTAPM+n1o3erblMHVR0faE52LpNDG2+Uf7r8ffKjVW+RU13Lav0hQfhe8cIP5erid+Xq40fkzf/6IyIYVmOlIRZKtNqvf/8mUUNDf+/H7oNC7CI7Qp/uGkx4gRqe31QolJU6PF/0fm/1NfKl627zv9wkYTDhu/OJB/wIPuJPg58VwCYrrvgV6VrRK4ieeXLndzdcX/zSG68uCJAVWvbJO9fdISEjeIE6zBW9ZqL7pS23yb1XR3eEbzV+3/PjbzH5hRVWrr9COpcvFcTDRO8Nm26SQxdfLkAGaP8/d/rBu09CRvACdZoZvWY39+ab7wv2dOOy84n75eOP3cPUF4m6eNNVXDwRs+H2LrnqPf9WioubepwASBMtZb1N3r1+UEJG8AINMNF79JKNh//H3zpQqGdHNwpm6mvC9+rj3xUgTrm2vLx+09sE8Tu8crVsu/ZmARynpat0gfT1hX5KEsELNKD7G3qjUtL0yQ1humTkGfn4t+8JVh6AOHQsXyYXrn+zIH5mtWH32z4oB1ZvEMBhkZzQYHAOL1Cnrod1wf8U8aBYELuGWaf45Af/VN7zO9+WRy5/nwBR6+heJEiGmU7t+dG3BXBcJCc0GAQvUAcTu3kth5WFRwOZ8P33N/2V//aXwbm/QFS4dCJZhbER2fJSUQBnaXlCIkLwAjXYHLszPXL5dnnP7/5nf+r7HwhfRKK9u1uQHDPlvfl4ZD0AJE1LTg1KRAheYAFpid2ZDm74cHCCxMENNwoQplwbHzKStuP5nwrgrJw+LhHhoTVgHmmM3dnMg2333vtvOMoMLeOEBjuYh9fW/vrvcEQZXKRl87rIPqvm03VgDi7ErmH2e82ag7kJDmhFG+sM1tgw8oIAztHRPbBmELzALK7E7kxfuva24DQHdnvRLE5osMeasdCPKAVsENk6g0HwAjO4GLtVTHvRCk5osIPZQ+wpjQvgGLOt85hEiOAFprkcuzOZae/NN/8t0140hBMaAESqollpAKKWldit+t7qTcFJDv/EhRWoEysNACK1pEzwAlHqOah78pM6M7FbZVYcPn7TX7HigJrMdFe1tQkAREMXpa8v0uV0gheZZmK33OFPdttVQTLKrDjs+Lf/iRUHzKutq0NgB7PoONLeJYBbVFEiRvAis6qxK0o2Ssb9+HVvCVYcfrTqCgFm61i+VGCPY5zBC9d4+tsSMYIXmUTsns+sOOz87W+w4oDz8MCaXU60c2IGnKIlnzsqESN4kTnE7sLMisPd2z8jQBUPrNllqOd1AjhFTz4hESN4kTnlTtlP7C7s3mtuZa8XAR5Ys0tx8XJ2eOGaEdncV5SIEbzIlO6H9X7/ix2Cmqp7vURvtvHAml2eYLoL90R6HFkVwYvMMLGrtOwS1M3s9fIwW7bxwJo9gquoVq4WwCkxPLBmELzIBGK3edWH2Q5uuFGQPTywZpfBCwleOCWWB9YMghfOI3bD8ckP/iknOGRQJxNea5j93aHlrDTAMTE8sGbwJAKctuQh/UUhdkNjTnAwPv7YPQL3dSxfJrDH4MqCAG7RxTgeWDOY8MJZSx7We/wvbheEykQvk95s4Dgye5j93XtXXymAU7SKZbprELxwUhC7WvoFkTDR+8kP/geB2zqZ8FrDrDMMXlgQwCHBc5gSE4IXziF243Fww4fl39/0l3KykyhyFfu79mCdAU6q6FiOJDMIXjiF2I3XI5dvl5tv/lui10FcOGEPMwa76y3XCuCcJWWCF2gUsZuMqQsqiF7XtC9hf9cWgytXS3FxjwBO0TIkfX0jEhOCF04gdpNF9LqHdQY7mOnugdUbBHCOktimuwbBi9Qjdu1A9Lqlcxn/Hm1gHlYjeOEg7RdobA+sGQQvUo3YtQvR64Z8Z6fkuzoFyTLT3b1XXCeAk5TEdiSZQfAitYhdOxG96dfZwzqDDcx09+sXXy6Ag0bk6nWsNAC1LP56hdi1mInej3/0LwXpxP6uHe5dvUFG2rsEcFCssWsQvEid7of0Lbn2XL/Aat9bvYnLKVKK/d3kHfOnuwPs7sJN2v/P30vMCF6kioldJTIgSAVzOQXRmy7m/F32d5NV3d3lKDI4K8YLJ6ryAqQEsZtOZr1B/H9xVx//rsB+XRcsl0UregXJMbu7t779QwI4613rd0vMmPAiFYjddPvStbfJl667TWC/RRcQu0niZAZkwKAkgOCF9ZY+pHcQu+lnovfANbF/Uo8G8cBasoaWv45zd+E2He9xZFUEL6zW/Q290Z947Bc44fPb/1AObrhRYKeO5ctEtbUJkmGmuzds/ogADtOSU4OSAIIX1jKxq5Qc9t/lyQ2H3O1H749WXSGwT0f3IkFy7nnTNTyoBvd1TsZ6w1oVwQsrEbvuOtW1TD5+01/Js8svEdila8UFgmSYY8j2XnGtAE7TMiR9fSOSAIIX1iF23fdsz6Vy8833Eb0WybXl2d9NSPVBNS6ZQAYkMt01CF5YhdjNDhO9/96f9HIFsR06l/PvISkDl23gQTVkQWL7uwbBC2t0PawLouSgELuZYc7o/fz1nxEkr2sFP+2SYFYZ7noLqwzIiIT2dw0unoAVTOzmtRxWIgVBpnAxhR161qyWHCc0xMqsMtxx5fXy2IUFAZxn9nev3nCPJIQJLxJH7MKc0ctxZcnhOuFksMqAjElsumsQvEgUsYsqjitLTufyJYJ4mVWGOzdsFyAjtFT01yVBBC8SQ+xiJo4rSw7HkcXLrDJsu/ZmTmVAtiwpD0mCCF4kgtjFXDi5IX75zk6OI4vZXVdcywUTyJrBpM7frSJ4ETtiFwsxD7F96brfFcSjs4fYjdPB118u/VdcJ0CmePrbkjCCF7EidlGPe6+5VQ5cs1sQvUUX9Ariwd4uMkqL5094E0bwIjbELhrx+e1/KN9bfY0gWqwzxKO6t8sqAzJoRN69flASRvAiFsQumvHJD/4pD7FFqGP5MlGcvRs5E7t3Xnk9sYts0skeR1ZF8CJyPQd1T5snB4ldNKr6EBui0b1qhSB65iG1fW+6WoAM0pKXQ2IBgheRMrFb7pDDomSjAE0wD7HdvZ3rh6PQuYzTMKJ2dPkqHlJDtnklJrxwG7GLsJiH2LiJLVxmnYHb1aJlHlK7YfNNAmSXLsrmvqJYgOBFJIhdhM3cxMY+b3gWrWCfNErD7Z08pAaIGhRLELwIHbGLKJib2G6++T4upQgJx5FFxzykdsOmjxK7yDotZX2vWILgRejKnbKf2EUUzENsXErRuvbubtYZIlI9kWHwwtUCZJ4Fx5FVEbwIVffDer//xQ4BIsI+b+sWczpDZDiRAThrUCxC8CI0JnaVll0CRIx93tZw2UQ09vqxy4kMQED7hXlALELwIhTELuJk9nk5n7c5+c7OYKUB4RpYvYHYBWay5DiyqrwALSJ2kYSXl1woJ7uWyrt/8W1B/bpXrZSuXh6mCpM5a/cD7/qYAJimZUjeueFPxCJMeNGS7kOVLxK7SIrZ5/3e6msE9VvsBy/CY2LXHD8G4BxWTXcNghdNW/Kw3qM6crcLkKBPfvBPOaqsTqwzhKt6scRIe5cAOEtLRX9dLEPwoikmdv0f0v0CJMwcVfbxj/6loDamu+ExscvFEsBcdNGm48iqCF40jNiFbb63epMcuGa3YGHdFxG8YSB2gYXYc7vaTAQvGkLswlZfuvY2jipbAJdNhIPYBRZk1e1qMxG8qBuxC5uZo8o++aE/FcyNyyZaR+wCNY3YuM5gELyoC7GLNDCrDV+67jbB+RZd0CtoHrEL1OWQWIrgRU3ELtLErDb8aNUVgtd0LF/GOkMLiF2gLlqUsu50hiqCFwsidpFGH7/prziqbIZu1hmaRuwCdRuRTW8leJE+xC7SyhxV9qXrflcwpXMZ8d+M6qUSxC5QF2vXGQyCF3Pq/qa+jdhFmnEL25RFK3pZZ2gCsQs0xOp1BoPgxXm6H9K3KE/2CZBy3MIm0rWCYGvUwOoNQexygxpQN6vXGQyCF+cIYtf/9V4AB2R9tSHXlpfFF10oqJ+J3d1v+yCxCzTG6nUGg+DFWcQuXJTl1YauFRxF1oi9V1wbxC6Ahli/zmAQvAgQu3DZ3dv/ULKI6W79TOz2X3GdAGiY9esMBsELWfx/l3cQu3DZj1/3lsxdSJHv7JTO5UsFC9P+m5nqErtA06xfZzAI3ozr/obemFua3y+A4w5cvVueXX6JZMUiHlarabi9U67a9m+DvV0ATdFS1vdKChC8GWZiVyk57L/LR0Y471TXMvnkh/5UsmLJxa8TzM9cKHHVe35bhnr45wQ0Txfl3esHJQUI3owidpFF31u9SQ5cs1tcx1XCC+OMXSAsalBSguDNIGIXWfala29zfrWBq4TnVz1jl9gFWqYlL38uKUHwZkz7/kliF5lmVhvuvt7tUxsWXcBxZHOpHjvGGbtACLQMydXrhiQlCN4M6XpYFzpWtR8UYhcZ98jl2509m3fxqpWi2toErzEPp3ESAxAqM929R1KE4M0IE7t5LYeVSEEAOHvtMGfvnss8nLbt3TdzEgMQNq/0mKRIXuA8Yhc4n1lt6KxMyNXHvyuuMGfv9qy9TDDl8MrVcsPmm+THS1cKgBBp+bq8c8NfSYow4XUcsQvMz7UH2JZcskowZd+bruHhNCAaWnJqQFKG4HUYsQvU5tLZvDysNrWve8eV1/tv2wVAFHQxDVcJz0bwOorYBepjzub9p8vfJ2m3aEVv5s/ere7r7nvT1QIgKuk5e3cmHuV1UBpjV5d18Ba8P+FNf5v/ZUWf91pv+vuNXOccn7Pllai2qW9X5kd4fur9XBef32Fun9/+h3J18buybOKkpNXii7K9p3rw9ZfLrW/nyDEgYv4H5dJdkkIEr2Nsi90gZCcq4o17oie94EsJvs07G656RsDGQfmRrIIoVsH70jb1voln1ZkPInnqSyXIhmd7LpV7N+2Wjz+WqlN2zjIPq3WtyOY6g/mU+M4rr2eqC8RjUDb3FSWFCF6HJBm7JmS9kyXR/kTWO+0H7mglCNzq1NYmJrDr+bsKgrgjN/Vldz6YEJuvB18SxM4xD7DtHLpfLjnxrKRNZ89SySKzwnDr2z4kgxeuFgCR05KTA5JSfMR2RJyx642Wg6Ct+G/eibK1YRu1YCq8OH82hnOL24LpcK6bzyPT6urjR+Teez8mafO6t2/I3P6uOXLMrDBwCgMQF31MNq9fKynFR2YH9BzUPWVPDvqfvhQkZCZkTeCWX/WntyZwxyqZjNu5mH8OlZNlEfM2w1whnOtmIpwG5gE2cwNbms7m7Vi+LFOxywoDkJR0PqxWxUfglAtit0MO+/8mN0pIKidK4vkRV/Gnt5VZMYfmmX3hfPdUCOeXtRPBlrpk5Bk5+Ne/kZoH2Hp/dU1mbldjhQFIjHlYbW1a93cNblpLsbBiN5hUvjwppecmZPIXY1J+YTII3bgfJnOe2W8+4wWfTJRf8v95Pzsu5Rcng6/rkv/P2pveG84RwUlK0w1s5mG13l9N7e8wNsScwvCBX/sYt6YBSUjhzWqz8ZE1pVqN3SByX52cCi7WFKxi1iHM9De/fGoVgp3g+C0dPymP/Pm11k95l1z8Olnu+FXC5iKJu67YwgoDkBwtZb1N3r1+UFKMCW8KtRK7Zl1h8udjUnrqjJRfLk1NcRnkWkWXdPBJSOXVUjBtnzkFVjkJTopAtCbbOmWirUPe/Ytvi80uuPyNkmtz9xOio8tXBdcDf3PVGwVAUnRR3rX+Dkk5RkcpNKn0/pxSdcducKKCP80tPT/BJDeFzCclZfOJiR/Ahll7yC/zp7/+BDj4kglwJO695lZ570++Ze1qg+s3q+170zVcDwwkT0tO7RUHsNKQMt0P6/1Ky656XmumuaWnx3nwzHHVAM5f0M4KRMhsPqZs5forpHO5e+fv8mAaYJN0H0U2Ex8ZU6Se2DUT3PLz40xzMyT4d27WH6oTYHMaxNkAbuNK5RbYekyZeVjNxdg1U929V1zL9cCANdJ9FNlMTHhTolbsErqYz2vrD+3Bg3BojDmm7JG/uFZs4tpRZEx1ASul/iiymXhoLQUWit0gdJ8dl4mfjUplpMwDaDiP2QGuHoUWPAA3WgmOSJN8jnOA62COKVs6cVI2PjsktuhZs9qZh9U4bgyw1oBs3pDaq4Rn46Od5ZY8rPf4n2P1z/52JroIQ7D6sKKdh99qsOmYssWrVkrvr6R/pc4cN2amuocuvlwAWMep6a7BhNdic8UuE12EyUx/zY+js8efTXjBxRfs/Z7LHFNmy2UUK674ldRPd81U1xw3NtTzOgFgpUF/unuPOIQJr6Xmit3yK5MyWTzDDWiI3MwH39pWdAjsmPJ2LF8mF65/s6QVu7pAKjhx0cRsTHgtNDt2zc7lxE9Hg6t/g91LIGqV6csvXilJ+fmJ4H3DXHqR1auPbbiMYtnqi6W9u1vSyJzA8LGrb2BXF7CdliH5tfWfFMcw4bXMzNit7ulOPj0ugC3a/KlvPnjryORDb4/8+bvlkhPPStzMUWSve8cGSRumukCqaMnJbrlmnTMPq1URvBaZGbvm0oiJn4+xvgCrBfF7YUem1h6SuoyiZ+1l0n1xunZe915xnT/ZvZpzdYHUcOeiidl4LNsS1dg1U93S02eC0xcA21UvvJhsG5N8b3smdn6Tuoyi64JeSYvDK1fLnVdu56E0IF2cuUZ4Lkx4LVCNXbOrO/7j00x1kWrVB97aLup09qKLuKe8aTmKzBw1dtcVW4KpLoC0cXe6azDhTVg1ds2DQRPHxgRIO/MJW3DJhf9Wjd/2izudOuc37invsjdcIrbbf9kGuXPDdtYXgHRyerprMOFNkIldXdL9E/5Ut3KyLIDLcovzU+G7rN2Jc37jmvLafhTZ0eWr5M4rr+ehNCDV3J7uGkx4E9L9TX2bd6rSzwoDssIcbWYexDSmVh46grWHtIprytu9aoXYiPUFwBnOT3cNJrwJ6H5I31J5fmJg8ukzXAuMTDPHmpmH3dK67xv1lNfWo8hYXwBc4v5012DCGzMTu+Wnx4PYBbIuOGt6xr5vxxu6UrXyEPWU11w0YZPBlauDo8ZYXwCckYnprsFNazHqflDfMvnz0wOlFzhyDDhPRUvl1amb3fRoRcTTqXjQ7dmeS2XnEw9I2Mx0d9lll0iuLfl/BmZ94VPr3iv/ru8DUuzuEQDOGJRN6+6UDGDCG5OuvynfMv7jkwPVK1oBzO/s+b5Pj0+d8vCGRdZOfaOa8nb2LJV8V/I7zuZK4L1XXMv6AuAe7Y89MxG7Bju8McjffXKHrngHeTgNaJ7ND7pdMvKMPPIX10qYXvf2DYkGr7k84ta3f1CKi5noAo7aL5vX3SoZkf6zgSzX/sXTG/VEZT+xC7TGHN1nTnkY+y8nZOJno+KN2/Nzyqw1HNxwo4TFXDSRVOyaY8a2vvtm2XbtzcQu4C4tUrpLMoQJb5Q+NbxR5fRh/z0+agARsGnqG+aU96K+t0p7d7fEaaS9U/ZyzBiQFZma7hrs8EaF2AUiZ6a+5s2GXV8z5Q1jl9dcNBFn7JrQvedNm4LQZU8XyIRjWZvuGpzSEAViF4hXRQcXW1RPeFDtuUTCN4wTG8xRZHEF7z1vukZ2br5JvrnqjTKeZ/4BZID2/3OXvHPDNyVjWGkIW/9wQZX1USF2gUQlda7vvff+m6anvHFdNGHO093NA2lABmXjkom58NBamEzslpjsAjYwD4qah9zOPB7vQ25fuu42aVbUF02Y0DUPpG3lgTQgizJzycRc+D2ssFRjV0lBAFileptbHA+5zT6X9yf5RfJMvktezrXJmHpti2ylV5JfLY/J5ZWpWxfNdHfxRRdKFLghDYBvQK5Zd0AyiuANA7ELpMLMh9yiXHf4y03/k7zwrz+XRzov8CO39p9/8+QJ+a1V4T8wVly8XO648no5dPHlAiDTMncM2Wzs8Laqf7hnOnY3CoDUabuwI7TTHdomRuWSoUP+28Hg/Ua9t7dDPuZPn1d1tPb3YkK335/oHlgd/T4wgBTw9F551/p+yTCCt0XqM68c9P93hwBIteqxZvnlzf3GV9fJF+TKB/5Auk69IK0wsfvbr++STf70uVGcpQvgfNl9UG0mgrcFuc8M79Gi+wWAM6qnOzSy5xtW7M70sYu65LdW1ff3wFm6AOah/f9u84N3UDKO4G0SsQu4zYRv+0Udkr+wc8F1hyhit+qOSxfLe3vnn/QSugBqyNyNavMheJvxyZd3qHzuoADIhIX2fK/evyuS2DW680r+4k1LztvpJXQB1MHcqOZPd/uKAoK3YVwsAWSWCV+z6lDd81393f/Lf/sbidL67jb547VTN6+Zh9H2vema4GE0QhfAArTkZHeWjyGbjWPJGvHa8WPELpBBM8/zXbr0RHAaQ9T+62hZ/h+9RB54+zZOXQBQr0yfuTsXgrcBqux9UZQqCIBMM2f59vzsPzd19FgzPne6S75L7AKoz7Gsn7k7F64WrpN5SI3jxwBUFV54WOKyovgLaRs/IwBQg1ll2Mve7vkI3np88uUdnMgAoGrRxEuyaPIlidOlQz8QAKiBVYZ5ELy1mL3dXO6LAgDTlp05LnFb9q/PCQAsgFWGBRC8NaiSPihKCgIA05aOxR+8i068KgAwD3PBxK2sMsyP4F1AsLerZKMAwAztlTGJ2+IRghfAPDx9F7epLYzgnc+nh7ewtwvAFpNdiwQAzqePybvW9wsWRPDOxeztit4vADCHUn6xxK1M8AKYTeth/1eHbYKaCN455EqVfvZ2AcznTOeFErdSJ8EL4Bxa8uoO9nbrQ/DO9qmXd2mVu0UAYB6vLr1C4vZq4Y0CAGeZvV2OIKsbwTuTWWVQuT0CAAs403GhlGNea3jhzW8VAJh2lL3dxhC8M6iy3s8qA4B6HFv1fonLidddLGd6LhAAkKnzdm8QNITgnZb7zPBt/hdbBABq6X5Fnnr/qJQXKYnD81uvl1w+LwAyT4vnxy57uw1rEwSrDLrMEWQAavBDN7f+IVFrj0jF/+rxa7vkjf9wRqI0sWKlDG95nyz3358cG5Px06elUi4LgMzR/n/ulHf1DQkaRvDK1KkMWuV6BADmctFPp0J31c/O+ebj13bKxd+bkEXDnkTlv/0vf3j2/Y7Fi4O38sSETJw5EwQwgIwwD6m9a/0+QVPi+f04m33q5V0ql+PMXQDnmyd0Z1r0qieb/+yktJ3RErbiTf+DPP+e+XeFvUpFzpw6RfgC7jssm9dx3m4Lsh285lSGkj7Mg2oAzlFH6M609NmKvOP/PBVq9D79398oz/zGjXW91oRvyZ/4jo+OBu8DcIk+Jl3lq6Svb0TQtEwHb+7TLw9w5i6As8yO7qb/WHfozmQmvW//P061vN5QXrw4CN2FJrsLMdNeM/UlfAEnmBMZtvGQWuuyG7xmulv2P2sCgBkPo7XCRK95iO3i709KM0786hXyi13/s0ysaP0mN/Z8gZQz1wYrf7JL7IYis8GrPv3qMVYZgIxrH5Pc2x5oOXRn63puUtb+/WlZVfT/EpO1f5l95fVant1xs4xuDP9s3+qerwlgpr5Aamj/v/5kd/2gIBSZPKXBnLmrRRcEQDb5oavefFhybx4M3g/bqEzKv1znf7y6TuSC57WseE7Jslf8X3CnB7/lDpGxpSInV2h5YbX/9U7/+xZ9X5ZK+MFrzu/t7ukR7XlSGh9n3QGwn/+Lh3erbL5yUBCa7E14eVANyK6IQ9fQpYpUft7csyVLLv/fpH3pWyRqZtprHnAzAQzAMp7ey7XB4cvchHf6zN2CAMgUdbkfulc+FFnoVnkvNX8Rxfhz90u7H71Ra+vslCX+G+sOgGWI3chka8LLg2pA5qhLnwj2dM2DaVFrZbpbFdeUdzZucQMSRuxGKlMTXj92uWACyIoGz9INg3619RWBuKa8s3GLG5AgYjdy2QneT728y//fLQLAbS2cpdsq71Rzx5HNVD71Qyn5b0lMeQ2z7mDeFi1dGsQvD7kBESN2Y5GZlQaOIQMcZx5Iu/IhyV1+WJLgjUyI9/xpCUObH7tLE5jyzoepLxARYjc22ZjwmukusQs4S63/RqQnL9TDezm8v3bSU97ZmPoC4cu15fd677iiXxCLvLjOPKjmqf1+8PYIALdc9FPJv/ceUZf+i/+rWUmSYqa7+sSEhMmbfEk6V14nNlG5nOTb26VryRJp7+jwv0FJpZTcP3cgjVROSceiRXvLV/1qvyA2zk94c2W5RTPdBdyS4J7uXMKOXcO2Ke9ss6e+nPAA1GYuglm0fOnA6OWX9gti5faE15/uSkXvY7oLOMLs6b71HyV/7V+LWvKq2MAcRea9EM0qhY1T3tmqU9/O7m7p6OoyV0QFt7pprQXAa6ZvPRw4ffkluwWxc3rCyyUTgDvU2iNT5+m22/XgVCsXTdRi+5R3NhO+5hpjwzzgNuG/lSdbP7kCSDtz5F/X0iUDJ9deROwmxN1TGrhkAnBDAufp1iuMiyZqse3EhkaZh9t40A1Z1rV0qSzuXjLw6poVxG6CnJ3wTk93BUBKJXzMWD3CuGiilrRNeWczv41bvdTCPOA2PjrKVcbIhOkVBmlv7yB2LeDmhJfpLpBqtq4vzFb++bBIyZOopX3KO5eSOdfXD1/O9oWL2jo6pLu310Tv0eHVF1wlSJyTE16mu0BKWXb6wkLMUWRxxK5hprwTLz9m/QNsjWhftCh4W7xsmZTGx9n3hTMWL18ePMTpO6o9tU1gBfcmvEx3gfQx6wtvPpz45RGNiGu6W5XruFCWX/kX4rLqvi/xizQyKwxLLrggeHhTpmN3ZE1vtEv+qJtzE16mu0DKmMsjNv9NMN1NCz1WijV2DXNE2fgLD0vXqveLq2bu+xK/SBMz0TVnUptj+oTYtZJbE16mu0B6pOChtPlUnjsdyWUTtah8tz/l/fPgyywx8Wt2fk38crkFbGJ2dc0Kw/RU1yB2LeXUhJfpLpAO6tInph5KS9FUt8ocRZZE7AZ/7cpoMOVddPGHJUvM5LdzyZLgjckvbGCuB160dFl1V7fqmB+7NxC7dnJnwmumuyV9WLhGGLCXP9XNbf6bIHjTKqnpblVWp7xzIX6RhFnrC1XHpie7RYGV3JnwlrwdolRBAFhJXX5Yclc+lJqH0uYT7O8m+dfP6JR3LnPt/E6Oj/vxOyHa42pjhMusL5jQbevsnP1dxG4KOBO8StRtAsA+KTpqrJY4jyJbyIQfvJ0rrpNc54WCKTPj1wgmv2fOcMkFWrZA6BrEbkrkxQWfenmXyqldAsAqZqqb/7X9opa9IC7wnjstUrFgcqhLwakNHRe8UzC3XFubdHR1SdeSJcGXef/rWmviF3ULLo/o6ZFFy5YFP57mQOymiBMTXqVyewSAPRzY1Z3NrDLoCXtiqTTyg1RfORwn8wS9eZv50FtpcpLpL+ZUY6JbReymTPofWvvMyzuU5A4KACsEJzCYc3VTvqs7W9IPq83FxSuH41YplWbs/vLgW5bVGboGsZtCqZ/w+rHL7i5ggxSfq1tLkkeRLcRcOcyUtzUzp7/a84IADuLXj2DO/HWfOV6sY9Fi6Vy8eOZZugshdlMq3RNeLpoA7JDC29IaYR5W854/LTYyVw4ve+sfc0xZBMy6Q8Wf+k6a+PW/JIDdYaa5ZrfbPOQ463ixhRC7KZbqCS8XTQDJU2+738mp7kzey/auZ1SvHOaYsvCZkx9yixZJu/9mVAO4uv9LAKdLdZprQreOtYXZiN2US++El+kukCx/mpu/9q9Fep8Rl5mH1SrHT4rNuIwiGdUViNcCuMT5v5ZpMXKrhv3YvYrYTbf0TngnK1skx3QXSIIrl0jUIzh713LmMoozz94viy+7RRAf81vhJqKCkFq6NPg2E8DVCGYNIhlmMt9u1hVai9yqYSa7bkht8HIUGZAA82Da2x+Q3JojkgW2Pqw2l4kXH5b23nfwAFvCqg/BVS/AqE6BqxHs+QFMBIfLTHHzbe1B4JrQnefM3GZUY3dIkHrpXGngKDIgfr3PTK0wOPpg2lzM7q730hlJC44pS49gBcKEsNkLNl+yDlG3auC2m+l6R0fwCYYK/3d8iV3HpHLCq0Tx+3ZAjIIVhrfdL1mThnWGmcwxZZMj35eOnncI7HZ2FWKGmdNgQvg15pY8E7Vt5s3/Z1bn8WGtIHYdlL4JLw+rAfFx8Ma0eulTk1J55pSkDceUuceEsDkhwqxDlP0386X5ehDIDq1HmN1bE7PVL9um10NipqcfUCN2HZO6CS9HkQExyeAKw0zeqXTeusUxZe4xv12fN29+/M2VfzMDOAhjrc/5Nm2+nvAVymYNQamp/w9KqWDPNjj2zX8/iNw2K3LEj13v1pE1K4ldB6UueLXkrhMAkcrSKQxzSdPDanOZ8IO3c8V1kuu8UOC+IB7rDEYTwiaATQgblekQnh3EXh2TYxPiM3dnTcAGX/oRa7797NftiNlaqrE7IHBSulYaeFgNiJbD1wM3wuab1erFA2xA3YjdDEjVhJeH1YAIZeQiiXrYfLNavcwDbCX/jWPKgAURuxmRnmXY/uGCn7w7BED4Lvqp5D/wx8SuTN2sJiVPXDB27MvBpRQA5uTHrr6T2M2G9ASvuVkNQOjMvm7+vfdkdl93trQdRbaQ6gNsAM6nPH3XyJoV+wSZkJrg5WY1IGRmX3fzf8zk+brzSfvDanMZf+5+8SZeEgCv8WN376trVvQLMiMdwfvp4S2ipCAAwmH2df2pblauCK6XHnXzytfR4pcFwBRiN5tSEbw5qewSAOEw5+uaFQb2dc/j2nS3yjzAxmoDQOxmWSqCl7N3gXAof6IbxG5GL5NYSLDOYB5Yc5RZbeABNmQZsZtt9gfvp17exToD0Dq1/iHJbf6PPJw2D++lM+IyE7tjT90rQBYRu7A+eFVOfUgAtCR4OG39NwTzc3m6WzX5ymPB2bxAlhC7MOwOXs7eBVrjT3Nz79nHw2k1uHT2bi2czYssIXZRZXfwcvYu0DxzEsMH/ljUqp8JFubS2bu1mLN5zzzLUXRwH7GLmawOXpXLcZUw0IzpY8d4OK02F8/erWXixYdZbYDTiF3MZm/wBusMskUANMYcO2auCSZ26+Lq2bu1mNUGwEV+7A4Qu5jN3uBlnQFoWHDs2Ps/z0kMDcjadLcqWG14jtUGuGU6dncLMIu1wcs6A9AYdfnhqWPHUDfXz96txZzNWxkrCuACYhcLsTN4WWcAGhKcsfs2pnWN0qeyG7tVXDsMFxC7qMXO4GWdAahbELucsdsU71W3L5uoR2XsOKsNSDViF/WwMnhZZwDqQ+w2T0+UM3P2bi2sNiDFjr468tQdAtRgX/CyzgDUhdhtjffKuOA1p3/+Z1xIgbQ5qj21Tfr6RgSowb7gZZ0BqImrgluX5YfV5sKFFEiZIHZH1vQSu6iLdcHLOgOwsCB2uSq4JVm6SrgRXEiBlCB20TC7gpd1BmBBxG44snSVcKPGjv0lqw2wGbGLptgVvKwzAPMidsPDOsP8vMkXWW2ArY75sXsDsYtmWBW8Kqc+JADOEzygRuyGgnWG2sxqw+TI9wWwyLHpyW5RgCZYtsOrdgiAc3AaQ7hYZ6iPWW3wJl4SwALELlpmT/B+5mViF5iF2A0f6wz1MXu83MIGCxC7CIU1wZvTQvACMxC74WOdoTHlUz+U8RceFiAhxC5CY03wasldJwAC6vLDxG4EWGdo3JmnD3BUGZJA7CJUdgRv//BGUVIQAKIufUJyb+Mp+SiwztAcjipDzIhdhM6O4C15rDMARu8zktv8N4Lwsc7QPHNU2egx9nkRC2IXkbAieJVSrDMA3a9I/tq/FmkfE4SPdYbWlEZ+wD4vokbsIjLJBy+3qwFTsfvee4IvEQ3WGVo3/tz9UhkrChABYheRSj54uV0NmJrsEruRYZ0hHGaP9/TPv8A+L8I2TOwiaokHb04x3UW2KfOAWu8zguiwzhAe9nkRMmIXsUg8eDmODFkWnLV7+WFBtFhnCBf7vAhJNXaHBIhYssH76eEtHEeGrAqOH+Os3cjpiTLrDBHgfF60iNhFrBKe8HobBcii7lck97YHBNHTJycF0Rg79mXxJl4SoEHELmKXaPAqpT4kQNa0j3EiQ4z0KYI3Kt7kS3L6F38mQAO09io3ELuIW3LB2z/cIxxHhgxSVz5E7MZElyqiJyqC6JhjysaeOiBAHfzY9W4dWXPhoAAxSy54yxxHhuxRlx/mIbUY6dGyIHoTLz7MQ2yoZTp2Vw4IkIAEVxrUFgGyJNjbvV8QH32C48jiYh5i41IKzIPYReISC14lXCeMDKnu7SI+Fc1xZDE7/fM/4yE2zEbswgrJBO/UdcKc0IDMYG83fsRu/KYeYvvfuYkNVX7s6juJXdggmeAtV4hdZIZae4S93QR4nM6QiMrYcRl76l4BlKfvGlmzYp8AFkgkeHNadgiQBWZvd/1Dgvgx4U3O5CuPyZnn2FfPMj929766ZkW/AJZIJHi1ym0QIAOC2GWVIXbcrpa8cT94J19+TJA9xC5sFH/wsr+LjDCrDOYN8eM4MjuMFr/MyQ0ZQ+zCVvEHL/u7yAJWGRLF7Wr2OPWTz3JyQ0YQu7BZ7MHL/i6ygFWGBHEcmVXMiQ2nfnIX0es4Yhe2iz142d+F61hlSBaxax+OK3MbsYs0iDd42d9FBrDKkCyOI7MTx5W5idhFWsQbvOzvwnGKVYbkjfPAmq3McWVjTx0QuIHYRZrEvNKgtgjgquBBtW8IkqNLFdETFYG9Jl58mDN6HUDsIm1iDV4l6joBHMUqQ/I4jiwdzBm9RG96+bE7QOwibeIL3v7hHmF/F67yp7s8qJY8HlhLDy6mSKfp2N0tQMrEF7wlYhfuYrprB4I3XczFFERvehC7SLMYVxq8LQK4aNXPmO5agOuE08lEb+nUDwV2I3aRdrEFr1Ls78JNuXU8qGYDfYaH1dJq9Od/xhXEFtNKHSR2kXZxPrTGSgPcY3Z3/QkvkqdPc/5uWk3dxvZZotdOR6UitwqQcvEEb/+wid0eARzD7q49NOfvphrRa6Wj2lPbRtb0jgiQcvEE7yQXTsBBnMxgDfZ33UD0WoXYhVNiCd6cki0COIbprj3Y33UH0WsFYhfOiSV4tcptEMAx7O7ag+PI3EL0JorYhZOiD14unICDglWG7lcEdiB43VON3smR7wtic8yP3RuIXbgo+uDlwgk4SF3yhMAOulRhf9dRJnrNkWVcThGLY9OT3aIADophpYELJ+AY87DaG/5FYIlx9nddZy6nGH/hYUFkiF04L/LgVUrY34VT2N21C+sM2XDm6QNy5rn7BaEjdpEJMUx41RYBHMI6g100E97MGPeDl+gNFbGLzIg2ePuHC8KFE3AME167MOHNFhO9Y08dELSsSOwiS6IN3jIXTsAxJnY7zgjsQOxm08SLD8vJH/5B8FAbmmImu1uJXWRJtMGrFcELp6ieZwT2YJ0huypjx+Xkf/uEeBMvCRrCGgMyKdLgVUpdJ4BD1EU/FdiDCW+2eZMvyamf3MUFFfUjdpFZUT+0xoQXTlFLXhVYZJIJb9aZ6D35w09wbFltxC4yLbrg5YE1uKiXlQZrVLToCYIXUzi2bEHDxC6yLrrg5YE1uIb9XavoibIAM5kTHMyKA3u95yB2AYkyeHlgDa7p5HQGm/DAGuZSPvVDovc11dgdEiDjIgtebliDa1T3KwJ78MAa5mP2ek/819/J+l4vsQvMwIQXQDrxwBpqMHu9o8e+nMXzeoldYJZogrd/uEeUFAQAosADa6jT5CuPZe28Xq0971ZiFzhXNMFb4jgyANHhgTU0orrikIFTHKZjd+UhAXCOiFYaPIIX7plcLLADD6yhGeYUhxP/8juuTnursTsgAM4TSfAqJdywBufo4UsEligRvGiOo9NeYheoIaIJryoI4JrRFf6Ud5EgeUx40SqHpr3ELlCHqE5pYKUBTtLDlwqSp8fZ4UXrHJj2+rGr7yR2gdrCD97+YWIXztIv/qogYRXtl4oWICzVae/Ey49JmihP3zWyZsU+AVBT+MFbrhQEcNWLvyJIFic0IApm2jtW/HJqbmnzY3fvq2tW9AuAuoQfvFw4AYfpF34leENy2N9FlMzVxGbNwVxYYWv4ErtA40IPXqUUJzTAafrJ/06QIE5oQAzMhRU2hi+xCzQniofWegRwGFPeZDHhRZxsCt+J5/9++NWh3xoQAA1TEqb+4R5V1sMCuK77Fcm///MiHWcE8ar8coRrhZGY9p63S+eqD0j70rdInMaevlcmXnjIvHtMcrltsvObRQFQt3CD99PDW5TShwXIALXqZ5J7Dw9Ix638o1cESFqu40I/fN8vHT3vkFznhRIVM1UeLX452C2egegFGhRu8H7m5R1KcgcFyAj1pv93JHf1fazxxMSc0FD55QkBbNLmT3s7VlwXTH3Dil9dHpXxFx/2p7oPi66MzvUSohdoQMjB+8o+Jeo2AbJhRHtqa/5j/26jyqn9gsjpsZJUjp8UwFb5xaslv6gg7b1vD6bAbYsLdf+xJnJLp38oky9/O5jozhO6MxG9QJ1CDV71mVfNOsMWAdwXxK7c3TtkvpJ/8jd3Eb3R814dF++FmhEAWEPlu4MIVvnFQQCrtu5zvt9Erq6MSdkP3SYfihuWit4mN31rSADMK+zgPSpcK4wM8GO3rxq7VUH0qtwXRWlWHCJiYtdEL4BzEL1ADeEdS9Y/bD7IE7twnlbe7tmxa1TWfXVAadnqv2BEEAld8gTAeXolrx6Vr72Pj8HAPMIL3hKxC/cFsfvZlQPzfX9p3d8OEb0RmuQ4MmAeRC+wgPCCV1X4bVw4rVbsVhG90WHCCyxoKnr/7r1bBMA5wgterfisEs6qN3ariN6IeFoALKhXcrlH5cHttwiAs0ILXqVkgwAO0lrf0UjsVlWj10+0oqBl5gxeAHVRomU/0Qu8JrwJr6iCAI7xY3evfG5F09epmeitKE30hqHCdBdoANELzBBi8PLQGtwyHbv90qorvlokekNA8AKNInqBaeEEb/8wsQunhBa7VURvy3hgDWjKVPQ+cP3tAmRYOMFbEk5ogDNCj90qorc1JY4kA5qk/F/ZviAHt+8RIKNCWmnwmPDCCZHFbhXR2zTNSgPQCiWe7CF6kVXhBK+SggApF3nsVhG9zWGlAWgV0YvMCiV4lSiOJEOqxRa7VUQvgGQQvciksE5pYIcXqRV77FYRvY1hhxcIi4nefqIXWRJW8LLDi1RKLHariN66scMLhIxJLzKk9eDlSDKkVOKxW0X01odrhYGwsd6AzGg9eDmSDCnkx+4BK2K3ykTvRGefaBkSnI/pLhAVoheZEMJKA0eSIV2mY3eX2KZvYKQ82bmV6D2fZroLRInohfNaD16OJEOKWBu7VUTv3DyOJAMiRvTCaS0HL0eSIS2sj90qovd8rDQAcZg6veGB931FAMeEcUoDO7ywXmpit6oavaIHBQBipXYTvXBNGMHLDi/sZialo7nbJW1M9L7lq1u1Jwck65jwAjEjeuGW1oL3D4YLAtjMj109qrbKvt4RSanKuvt2ZT56K+zwAvEjeuGO1oK3jQfWYDEHYreK6AWQDBO92x+U/VtYX0SqtRa8ulIQwEYOxW4V0QsgITtlacejRC/SrLXgVaoggG0cjN0qE73iyT0CAHFS0kf0Is1aCl6lhCPJYBctRV1WO12M3aryuvtuF3MtMgDEiehFirV4SoPiBz3sMRW7W+VPeoviuPJbv9qfpejVJR5aA6xA9CKlWtzh5aE1WCJDsVuVtegFYIlq9B789YIAKdHiDi/BCwtkMHariF4AiTDR63lEL1Kj+eDtH+bCCSQvw7FblYnozYdxRw6AkK0hepEWzX8UKXGlMBJG7J7levQqehewFdGLVGj+wwhn8CJJxO55WG8AkBCiF9ZrPng5gxdJIXbnRfQCSAjRC6u18huFBQHiRuzWRPQCSAjRC2s1HbxKqdUCxInYrRvRCyAhRC+s1MqEl4fWEKcRYrcxJnq1p3eLCzryAiA1iF5Yp5Xg5VgyxGVEe8RuMyrrvjrgTPQCSBOiF1ZpLnj7h5nuIi5TsXt375CgKU5Eb14JgNQhemGN5oK3xHQXsSB2Q5L66M1xEC+QUiZ6H5evvY9uQKKa+yiiKkx4ETViN2RB9JZlp2g1Iimjckx4gRTr9X+X5lGiF0lqLni1KggQIV3xdhO74atced8hpWVr6qKXlQYg7YheJKrZ3ydkwovIaOXH7udXHhJEorTub4fSGL2qnbUGIOWIXiSmqY8gSskGASIQxO5nVw4IIpXW6AWQelPRe//2HQLEqMmRiWLCi9ARu/FKXfS2cxYv4IheUfKgPLj9FgFi0uQOL9cKI1zEbjKq0atFimI7VhoAlyi/JfYTvYhLk6c0ELwIj9b6DmI3OSZ6K0pbH72KB9cA1xC9iE3jwculEwiRH7t75XMr9gmSdcVXi9ZHLysNgIuIXsSimQlvQYAQTMduv8AOlkevYqMBcNVU9D5w/e0CRKTxDyEljiRD64hdS9kcvYvaBICzlP+R4QtycPseASLQePDqSkGAFhC7lrM1erleGHCdEk/2EL2IQuMfQZQqCNAkYjclLIze4OIJrhgGXEf0IhJNBC8rDWgOsZsytkYvANcRvQhdwx89/PnKagEaROymlG3R28UeL5ARRC9C1cS4hFvW0BhiN+Usil7O4gUyhehFaJp4aI1jyVA/YtcR09Hr//wfkgSpTs7iBTKG6EUomtnhLQhQB2LXMX70lic7k41ejiYDsojoRcsaC15uWUOd/Ng9QOw6qG9gJMnoVW1MeIGMInrRkkYnvAUBapiO3V0CNyUZvXnFSQ1Adpno7ZcHtn9BgAY19pGDW9ZQA7GbEUlG7+J2AZBpd8gD7/uKAA1oLHhVheDFvIjdjKlGr8ghiZHiaDIAonYTvWhEY8GrVUGAOWhRh4jdDDLR+5b7dmpPDkhMVBd7vAAMohf1a3QZjgkvzmd+W/u07BZkVmXdfbviil7VyYQXQBXRi/rw0Bpa48euHlVbZV/viCDTYote8+Aa5/ECOMtE7/YHZf8WhnKYV0PBq5TiWmG8htjFLHFFr+rmwTUA59gpSzseJXoxH873QXOIXczDRK94co9ESHFSA4DZlPQRvZhPgw+tsdIAIXZRU3ndfbeLuWkvIgQvgDkRvZhHg8eSEbyZp6Woy2onsYtaym/9an9k0cseL4D5EL2YQ/3By7XCmIrdrfInvUUB6hBl9LLHC2Be1eg9+OsFAaSR4D3DkWSZRuyiSVFFr1raIQAwLxO9nkf0IlB/8LaxzpBZxC5aFEX0Bufx5pQAwALWEL0wOKUBCyN2EZLQo9fs8XLNMIDaiF40ELy6UhBkC7GLkIUdvaw1AKgT0Ztx9QevUgVBdhC7iEiY0Ztb3ikAUCeiN8NYacD5iF1ELLToNWsNnMkLoH5Eb0Y1ErwFgfuIXcTERK/nVe6QFrHWAKBBRG8G1R28SqnVArcRu4iZt+5r+7Snd0sLWGsA0ASiN2NYaUDViNZqJ7GLuFXWfXWgpehlrQFAc4jeDGnglAZWGhw2oj1/snt375AACWg1ellrANCkqej92vs2CpzWwCkN3LTmKGIXVmgleoO1Bi6hANCcNf7vFBG9jmtkpYHgdQ+xC6sE0VuWnaLVSEN/YF5JroddXgBN6yV63VZf8PYPE7vuIXZhpcqV9x1SWrY2Gr2sNQBoEdHrsPqC9wzTXdfoireb2IWtSuv+dqjR6DUPrvHwGoAWEb2Oqi9423hgzSVa+bH7+ZWHBLBYU9HLlBdA66ai9/7tOwTO4FiyjAli97MrBwRIgUajl4fXAISkV5Q8KA9uv0XghPqCV1cKgtQjdpFG1ejVIsWaLzYPr63oEgAIgRIt+4leN9QXvEqxw5tyxC7SzERvRem6ojfXu0gAICREryPqXWkgeFNMa30HsYvUu+Krxbqi19y8xnXDAMJD9DqgzgkvwZtWfuzulc+t2CeAC+qM3twKprwAQjUVvQ9cf7sglerc4SV402g6dvsFcEkd0as68xxRBiBsyv/I+gU5uH2PIHXqCl6l1GpBqhC7cFod0Zu7kCkvgNAp8WQP0Zs+HEvmIGIXmVAjeoOLKNjlBRA+ojeFeGjNMcQuMqVG9OYuXCwAEAGiN2XY4XUIsYtMWiB6VXtOchdwLi+ASBC9KVLvKQ0FgdWIXWTaAtGbW7mY29cARIXoTQl2eB1A7AJyNnr935EaOufbuX0NQLSI3hSoHbx/MFwQWIvYBWbwo7c82Xle9AZT3nY+vwcQGaLXcnwESDHt6XuIXWCWvoGRuaI3f/ESAYAIEb0Wqx28bezv2sif7B6Qu1dw4wswlzmil2PKAMTARG+/PLD9CwKrMOFNoSB2P7dilwCY3xzRm1/VzQNsAOJwhzzwvq8IrFE7eFWFI8ksQuwCDahGr8ih4OvmAbaLOJsXQBzUbqLXHrWD1+MMXlsQu0ATTPS+5b6d2pMD5qu53q5gvQEAokf02qKOCa8ieC2gRR0idoHmVdbdt6savflLl7LaACAmRK8N6tnhJXiTZnYQT8tuAdCSs9GbV5zaACBGJnq3Pyj7t9BUCaljwkvwJsqPXT2qtsq+3hEB0LJq9KqlHVw7DCBOO2Vpx6NEbzJqB68meBND7AKRMNErWu81F1KozjYBgFgo6SN6k1EzeJWS5YL4EbtApMpv/Wq//yvg3twb2OcFECOiNxF17PDy0FrsiF0gFiZ6VZvayz4vgFgRvbHj4gnbaCnqstpJ7ALxCKJ3Sfve3IWLBABiY6J3WcfjcvDXC4LIcUqDTaZid6v8SW9RAMTGRG9uxaK9Oa4eBhCvNeJ5jxK90eOhNVsQu0CiqtHLQ2wAYkb0xoBjyWxA7AJWKPd9rV+tWrxX2tn2AhArojdirDQkjdgFrOK94/7+3OuX7OXkBgAxI3ojxBgjScQuYKUgei9aRPQCiFs1etfI4S2C8CwcvH8wXBBEg9gFrOa961B/riu/V8zPVgCIj4neR2Ski+gNERPeJBC7QCp473+oX9rVnUL0AogX0RuyhYN3Efu7oSN2gXT54D/s83/i3ipEL4B4Eb0hWjh4SwRvqIhdIJ1u/NYA0QsgAa9F79c+ImjewsHL8xphGtZa7SR2gZQiegEkYyp6ZaSP6G1ejR3eChPecAxrT22Tu3uHBEB6mejN6av85h0WAIjPGskrorcFCwevx0pDCIhdwCU7vzXk/8q5zX/vmABAfHqJ3uZxSkO0iF3ARUH05oheAHEjeptUY4dXFQTNInYBl+38ZpHoBZCA16L3739DUB8mvNHQuuLdSuwCjguid/Iq/2f8YQGA+ExF7+TkDia99eGUhvBprfzY/fzKQwLAfTsHR+TD39rm/8zfJwAQn16/0x6UthO3EL21LRy8WgqCRkzF7mdXDgiAbPnwt+4QT7iKGECclP8rzn6itzZWGsJD7AJZ95F/7BdduUHY6wUQH6K3DgsGr1KyXFAXYhdA4MOPHOJhNgAxey16D+4QnK/GhFdxDm8dtOi9xC6As84+zCYDAgDxmIpeGdtD9J6PlYYWBbH7Ryv6BQBmCh5m+8fd7PUCiJHyf83ZQ/Sej+BtAbELoCaz1xtcR8yKA4BYEL1z4JSGJhG7AOpWvZltasWBaS+AqBG9szDhbQKxC6BhZq/XrDiId6cQvQCiR/TOQPA2iNgF0JIb/2mfP+1dK6w4AIge0Tut1k1rBcFZxC6AUJhp743/uJYH2gDEgOgVJrx1I3YBhI4H2gDEI/PRO3/w9jN0qCJ2AUQmeKDNnNmr9wnTXgDRyXT0qnm/p3+4R5X1sGQcsQsgNgfft1E89aD/3hoBgGhof9y5V0rqLrnpHzLzSfb8E94zkvlb1rTnT1yIXQBxMdNednsBRMtMevsl731B/v43lGTE/MGbmX8Ec9NaD8jdK+4QAIjbysl+yeXeKFO7vYQvgAio26U08ZWsRO/8wduV3QlvELufW7FbACAJWwfNSQ7HpLJ8rf8r0q3CQ20AIqF2ZSV65w/eUjaDl9gFYI2b/k7kgtLA9C1tB4RpL4DQZSN6OZZsBmIXgHWmpr1FWTG5izUHANGYjt5vfECJ7hcXEbzTtKiDxC4Aa7HmACBSfvSOlx6VA4O9LkYvD60ZWo7KablVAMB2Zs3hxm8NSG7x9GkOHB8JICxqiyzpeMTF6J0/eL1KQbLAj109qrbJvt4RAYC02Hlo+jSH/FXs9wIIjZI+F6M32ysNxC6ANDt3v3ct4QsgFA5Gb3aDl9gF4Irzwlf730D4AmjBzOg9vEXSboEdXuXusWRajhG7AJxzNnxLW8XzthG+AFpiondpx3+Rka41aY/ehSa8bgavid0KsQvAYSZ8P/JPg4QvgBCs8X8deSTt0ZutlYZq7P5xb1EAwHWEL4BwpD56sxO8xC6ArDovfHm4DUDDUh292TiHl9gFgBnhy6kOAJqS2uidP3i1FMQFxC4AnGvO48yCCyyIXwC1pDJ63V5pIHYBYH7nhG/+qhlXFhO+ABaSuuh1N3iJXQCoTzV8zZXFleVrg/DV+rAQvgDml6rodTN4iV0AaM5NfydB+Ho92ySnZ15bTPwCmC010Ttv8ColyyWNiF0AaJ0J353fGjq758u6A4C5vRa9X/uI2GresxjUZ141v521RdKE2AWA6JgJzsttW0TldvkfPW6e/laXzvQB0LxjUtE3ivQcDT5htoxLKw3DWqsbiF0AiMjsY82Y+gJ4zRrJq0dERvpsnPS6MuEd1p4/2b27d0gAAPFh6gvgXMP+pPc9tk16XZjwErsAkJTq1PfGd/pT38kLZp3wwOQXyJ5eGye9C014j/pfbBS7EbsAYBsz9R3pKohUPiSeus3/Fv99pr5Axlg16Z0/eD/96jH/ewtiL2IXAGx37srDtUL8Alky7P9sv0PKyw8kHb1pDV6tK94N8vmVhwQAkA7EL5BF2v9Zvjvp6E1j8GqtvFvlsysHBACQTsQvkCWJR2/agpfYBQDXEL9AFiQavWkKXmIXAFx3Nn7VDv/tgyJnPw4RwED6TUWvWnxAdsa7lbrQKQ1WHSfjx+5uYhcAMsQcadQ+Yk4Luk4q8iE/gLdMfw/xC6SXlpzsFVm8N87oTUXwatF75Y9W9AsAIJuqR515Ff8dM/nV5sseIX6BNIo9eq0PXmIXAHCemasPItf6X1bPjSeAgXSINXqtDl5iFwBQ03nT3+DSpML09xLAgL1ii15rg5fYBQA0hd1fIE1iid65f/L3a1Hl4cSCl9gFAITm3PWHKwlgwDqRR+/cP9n/YLig2vUxSQCxCwCIjO4XOTTYI+W2jQQwYJVIo9eq4CV2AQCxmhnAkvOnwPpa/yPjxukTIAwiGIhPZNFrTfASuwAAK1RXINrUBvHUdcJDcECcIoleK4KX2AUAWKt6CkSlNDUFPncNwiCCgXBNRW9J3SU3/UMoz5QlHrzELgAgdWZPgbUucBYwEDa9T9o775QP/qeWo3fun5Sf8IO3Lfrg1Z7/f+TuFXcIAABpNnsXOOdPgVmFAEKgB/zovbXV6J3nWLLhjaqsj0qEtPb/D3xuxW4BAMBFc0XwuZNggxAGamo9euf+ifbp4S1K6cMSEWIXAJBJMyPYrENUTPzq1ewEA7W0Fr2xBy+xCwDALNXb4SpeQXR+I9NgYC5+Q+blVvnQu7So/kb+wHiDl9gFAKBO51ySoXvOnhAh0kMII7O0HJXTk++RW7YMNxK9sQWvP38+LH90wTYBAADNmx3C80+EDWIY7mkieuMJXv9vTI+qbbKvd0QAAEA0qqsRZT+E8+bINFkjwbnB59weZxDCSLcGozf64CV2AQBIlpkKf92fCuv2wtk94WBNIrhEoyCvHZ9WRRDDflPRu012DdZszGiDl9gFAMB+c02Glbpsak3CxPA502GDIIYl9IBcUNotWwcXfNXcP2A/4wevtBi8xC4AAOk3ezqcy62eEcQ9c6xLGAQx4qLF87bJR/5pcKEXtc35rV7F/ICWFv7Sx4hdAAAcMLUfaT6eD02/nW/mhFirQrAmUV2ZCE6VmHNKHPzZBWiN8n+87fC/HFzoRW0SNhO7FWIXAIDMuOnvzP8OLfiaw1tMNhek3DYVw7MnxYQxmqZW13rF3MHbnh+SShMXWVRj9497iwIAAFA1tWNZnH6bW/XINRO/M8O4onolp/0wnn64bu4H7aqI46xRennNl8z7HZ95dVjMD7h6EbsAACAus+M4+DZVXadY7hfO8nMD2UyR1XxdQySnmdb75MPfumOhl8y70qBF36NE7ZG6/kLELgAAiNFru8XmrVjXH1Ndq5D2nmDf2EyQvVzP9MRYgimyieKpFYt6Qvns340gKX6y6kO1XrTgvyB/yvu4/0WfLPyXIXYBAIC75pomV2O5zZ8km5WL6lT5vGAOFOr7CxHODdNyUD78jzfUetmCD63pNj9ky94ef9J7m5z/L0Fr80RcRd1K7AIAAGc1M02ebWY0G9VwDr5PTb3/WiBPT5uDb3wtoM95TV2T5/m4Eta/lHzuznpeWN//4U8MF6TN2+W//Fr/H/CIeHJcct7X5Y8uHBQAAAAk5+yqxrSZMW1Ug9qoTqSrzk6mq6+dYxo9M8SnXtRKbDfivGHrjPcPSX7yVtlR+5a1uf5EAAAAQGNmR/dZ0/vSc6muhcznvNAO9nWL0lH6er2hCwAAAAAAAAAAAAAAAAAAAAAAAAAAAAAAAAAAAADT/n9aOnKUXMilYwAAAABJRU5ErkJggg==;fontSize=19;fontStyle=1" parent="1" vertex="1">
          <mxGeometry x="451" y="784" width="92" height="92" as="geometry" />
        </mxCell>
        <mxCell id="GCuUB6PzgqnTOFlLj93c-4" style="edgeStyle=orthogonalEdgeStyle;rounded=0;orthogonalLoop=1;jettySize=auto;html=1;entryX=0.362;entryY=0.528;entryDx=0;entryDy=0;entryPerimeter=0;" edge="1" parent="1" source="ruudqL98C5SeJLmAqFBZ-34" target="ruudqL98C5SeJLmAqFBZ-13">
          <mxGeometry relative="1" as="geometry" />
        </mxCell>
        <mxCell id="ruudqL98C5SeJLmAqFBZ-34" value="" style="shape=image;verticalLabelPosition=bottom;labelBackgroundColor=default;verticalAlign=top;aspect=fixed;imageAspect=0;image=data:image/webp,UklGRvYrAABXRUJQVlA4TOorAAAv/8F/EGpR3LaNY+0/dqqv/CNiAvRRah8+lr4KAlNqyMElcJBehKKBcsJij9Wen82BnbQFg1fioH1HbUFIQk/FNP+/sr1t/M7yKjSNn3NuyWJZZpSDzyso1/e5bkOZmZn5XXF9/65znet6zlXyCTNzNCfMvGJmWGUGFebEVsbxLpwVgyd4zVMMMz8ph3lV7oo5aBiaeBVO7NUTThR6AWXmViXHr6DckFImq9xwNJ4Jk0PbzDCTw5wVuh7vPCpzK5e59TLahcEqhmccxvKKmVtnyszMzMzMzC5zw2goBDyaymWu5ylDSCnXZSbtytwGykxSGeyO0pmUVWbuCgOnpF251a7MzMzMYJUZlCmvmCm0oiUAbhpLykFmOa6yHTtJJ/0/R+v79Ofybj9XpYdhmZmZmYGSAEiOGql+IENFVINYv6f5ZK+hI6rxIIeT94CkkfkfEmjbNu2mX7Ft27Zt265t2wxq27Zt20bwa4drAuxI265scrNblZYgmZmZm5mhppnpn3ZzDzMzM6NY//+cU+d89TkXhl6DI5eX8judHRjfNXSo0NSqLzKF3oCWMHI4jjlSZiaxNLwAM4QcOnLMkLuUTmRegCKznfUyBDtQeQvC1Ni5Q96DahYg6OolmO24q0NvYeIupxOb3aEZMi2gU0cOFZvtyCEz2x39m1A2KzAzRl4BQ+byFjpU5KpTNZA5+sqhF6LMNZljb4G9gEldA6FsSbJN2/qh83aubdu2bdu2bdu+27YPt217l2RJtk3b+ou1pta9z7aNlm3btm3b6l7btm3bttX/CVDV+r9a/x8u+hT3lWox1erF9uih/41jgi1GQvrKISbas9nSQ/YJBUcVL07pzBCdTaJiihcPIQc12yyJHY+RjGQk9MGeTrFibbpcin2pZbeZtQENdiV0GEWVRukyAg2g0HhKzyfQakLvptBpQt0i9CsKf6U0NhPoN4U+EuoRhS4T6AilthJ4KaFnEnoUhXuHoGJKJ4diFRoK2T4Va2VfJ1keaIzmdmlUn8cm9DoKH6XQPQo3UapLO/nHCfyUUmcptJFQ8wg0iFKF31o6KrtkuVTyUZLlUiYUZRODHE/ovgSuJfRBSj/8cS3aH18JhffPgiL3pDFHp6DNknVrka8xvhBrLxJV+tjTpfRLSnVosRPqP6UfU3gvpeeGqB7FOxfblULf4dgen9JjXoJArxO0ixL6H6GvEKqh1uQpO/bXJzi2UFACgcYSag+l32l3JtBPAp+pr9nSup1A8n1qcULPoPCNBO3ulJISehuNrkmRu3qyrgsxcCqFFhD6boL2hBRun+72U9xXysm3UJQmDS6ZLoVbtZek1PfRFy8m00I5m1x4Tfm191xNTKiqhyLJkl0ayN/ndyZoj7rw+jYuwXpxau+uveyPE7g+eegYyq1lx0C57UvQXpfAfyg8JRVrZXn1wp9Uo/bEBP5M4eHl9BNZOTUwSpXfofbMNVIoTkaFmGMJfF97agqvialWl03nPHrttRdOWGVJpdK6nYBAvX5ce/Cll46+ljw657vW3pxAb1uTRQRVJKGatXBDzCRnlyIpYp8y0oASKfOIVGnMQ6bOY9IMxzzXc6UbzsiXJh/zXM+VOk95yId8yBIlSnxDkVCsEYlefw/lEI0amV+LMHnskTKPSTOckL6ckaHMyVhXlD1eUe50S/nTAxXOT1S8W1PJ8kqm9Z227D9p6/4beyvbf1Dp8kYluw0V7l4of36kvOmecqYbyh4vKbOuyFDn5EuTp6RMQ5LHLs7SmlLr6dhTlD/p1rmEwKu0k0OsOc5C6cs5ucoZbyh/fqCi3Zpsbdl/ETi3QCXLGxXtXmh32eM1Y87798c5HGdoQt8lfTaSPenWUqEl7UzKTMo0Il+u8uY7Ws20fhCIdXUV7TZsoazxkrzrSBG78KYp/ObV5U6yXCo9sOa+mQGV/MHTOeG2rt8EAl9dq1vIk344J1Uek5MfTSkpgbxlzlgJdV5zXUbqk3Y4pax6SQXzI5nWn7R1/41bFq14t6Hm9GVGitSHE03hXxcvb5ZNoH2a2/jUeUKu06ls/UngvqXKnq55LhoND5rCrYRKkTYEXqz5jC+Up8LdMwUC117w16dOEzjQ639lSbNtzWORj253ZesHgdv3J2Ndkts2vUMSqmApQ2L2W799RcqsC7IUDTxhW9ZPvr6MOMAuTaEvry5hxkfpl9ruAZU339OjwDs2Wd50R4o0wCZN6FdtLpWufPk0be8ml7ihoTGLTvkb7NEUPjUw2ULhiARbHvmrBxoatEf15LRFE2iyZNk4gR5oGzf51SpdXA2N2vdUeYIthO5ci1y5cG3jH29t2HryqcH1jqflvC5uLavtam3qZmvubGpsKaq2PC4I3pt0/BF+sguCwjlt0IRuSR46hjJlfLPEvbnGsPGnyTdz+vs6VmfI2i6mpnrHUo/ex0tywc5TpgE26EUm69YiiUKQR2j4HW9tWH/sQT5Zz4vGlgdMW4fFe6LPZBylu4fcgh7ltUETur88GSulpLCVmn6u2ux2pC7u1vtuiR8a7zaRPVpaTjk9RG5BkMcGSv84Z2lCmLtr9MpNvwzrj9zNw/KoYLXGkIkdU+wP3J0oueAhmoDppcuSYqeAKmlYf5RuHg2/lZvwMx8uuaDp3DC9FklCmQM0OF05I7D+yF3d89+XmiwjT6VLLmg1N4zAz4ciR+YLqiUpitgLmSbT8fVB1xVRkgtazY3Sq5MiG/8bTHzFy4agmp92bti4ygAbc3Ck6zhDfCUXNB2P6t2TyZCeamzzQTX/RldLk8l6U9kF5U93oPQLyhAKTcWkiD0KRBGyL8lkvlp98NSzQmUX5EJ99QtLkKfB1BxU8417d7axM5v+rpRekDafAtKErpAfx5YD8g1Fo3BZHmVyeJbjD/eT3oKbAdVYTHoQuEhD8wRRbsqDGX02Q3rBq4L0h0mP+WIqXd+IZmCwk4s2slr5BXlBhNosPQh8CZImHxNEeZLxgSaXowv9K+SXlBuz/i5IjtiuFK4NUjgan01xfJgnmRAov6AwRlO6THIQ1rYa2lQ0MeczOfFYG6MBxvSyGEIflhxvC3nEINrU27mcBOxM1ADBlWIo3DpWuXG1kF1EVf9xASehB5K1QFv3XzQD0a8sNwi8AZIrqvtz4r8jQQsEZdULMH8pN2qCvHRUMecyOHFbGa0JFhwPofQ1uUGoF5CmovLeGMfJicYEaIJgopD8MdXqMqO0bidYPyQpqhOPDeBjZKb3G9rgOCA6Bk6VGb+nkfFB9AMCnVw0/19laMMFYyg9SWbQWDlBSgCyXxVzEX4kRSME64DMQ2Y8PiRVngA4/YJwHsaWB4410Ecr7BRC6FcyIwY5HpJ2OAFgdDY2cpD7tsTQiqcDyb9xifG2kHkjvDbEsvvT9zRDNogeicSYMyR9mYMwWolrmKXdyzO0Y27I8CQGhQdCyqwLICcaGzAi3cuod0fr0ft4aYhCEBKVLzEoqmGQXBDDZ3PctkxG5ftOMS3E0JB5Id2VGPcMaRljRJxIYzGuOuixNsbQkhnKHMiLSwwCj4OUNV4AMjbcFnatKxqaMheEUtMlBqUmQnaKMvy3J4zK9YEGBjpPNy/c0JZlj1dAZiExrhaSB2acdGJQe3U9YrXGUOHnsp8YGrPc8QYIpRdKjAnxZWwcsCOhV1urTe1UdU6LIwzNWe50C4RQi6SRYWzsujLqtme3or+vI/Np4d8MDSq7DMPY+PmHJ13PtjwquE3Gg/z4S1kfurChTSWY5q02aI9YQvBlpCGF8l5ppvUDf8MVQzGTK8nn03pQpfw+3Uym5Q2/T59+Ub9Pf73v9w2+n27a9ytnvML3+0k/gEBj3S2vH0DgKt9v875fbFcKKfzJ71M/7vuNr3d+nwpF+a/f71O3S+Fffp/aNIEv+X2q2O3u4N39vcOairXySERPqSG+h/hrrdZ/h98W6UuVTZOQE1+QwNP+r88tEerk03Sd0i+94iyl2cZjQseNoqp8BUJf+RDtkeVTI4//h1+7fu2lJdNItt3nxrTXlkkkdvR3R+mH2otLoye73T4TqE17c0lUP4Fn/4327FIoJv1v+oeU+qs9vARK3nctP60B7emlz3T+ML/2+JJn2V15d+35S0qdtyf0XR0HbF7i/GddOk74qvKmtevXccImCsiaZN1a9LcN6LhhmWVJIGlS0GYEuqjjiEVuRtLEBIcQqlnHEVs4ncDNYg9BaBlxTFjMhGuW+cESv3LLxPfMfGqZNyzhtGUeZMYWy1hgmQOshowqWnKMPBMkXoDQ/RvWccSOlDc9ELgZ2xhtGXctE4cysY0J95i4KmJWsYvCwd1iu1K4Qh1XXElTgYsd2v9BYJljmNhlHM3Mj5a5khlZkYebCq41FALt0HHD5LFH3grmJwKB82CJ443zmfHbEjZFFBP3/RhErvTb/6D5Hc7ppx1OyFAXdHgLWbI0Vcmy5YS9Z7bMgdg5iGwxPlEAxhhmvGXi6PBTScd9UrFWpvQ5zedwUucJZdYFWygVxOHZ1W4ZD40oLeO/Ja7bK8PKZX57cprHbyhZfYEgjs+ObUw3AmVG65tH3NRykxduSdv/WhnLko8KJCA7y1wrEmOY+T0iDo51ELtGfym8XdueZjihgvmBzIEUZMfEx2IxxjLvhE0/t/hLbXe+UoEsZGeZP0RjLLGTmbX7fvwh4wqzSrApX6lAHrJLFI4xzLxZxSnauECot/sOta2FPiqQiTIyTPwZFjKFtzJKvdd2PmLNgVyUkkl8ohmI7ckIfEnbmX6YMffABzDmApYrtMfWNnak3PGWQDrKyljmkT2+0ZYX2E3ltyFlGvJRgW9gLPFcVdcaysJKt5YKFHqm8fnGFPgIhplnuyqqFWp8mWVBICUlZphwfM8f/1tWTB+WgMsT+A2GGRtnIKJGCPRaw6808B9MxBwrIgKN1fAfDGRSdsVkV4XtGctSvyAZWUlNcXyII5wUbEcfrXYSaA4KhhtTxPN724LlCaRSHobTnJpJSUqki7w1wMqsp/KtsBcOoVdodD2BjFu7Jc8RTvSQazbm5vb88UMVwYwmP+q52rp+I+2IchsmMUKeKs3EWOJqwRD6uAbXkmn9IJB4RFvGh9lNqlmYTxRKiDlWgzvS90DuETnC2ugMAsWACdK9MvRE8g+ocqc7AulHVO4m0zjDhH0CuUUNTjucEPgBlFUxfgbAmRMTx9JBuStd3vEHaMuwFsQ11FVRUPxv3jCo5sAnIApvR5hhwmRRUKhOY9MMUwL/gPaAXQfborUYukCg36Cd+wk0AWUsY48YnlJjPzrwFbYMNAPKRJR8hUDpC5icJ+wv0Me91BrFxMMiWHIC5icDn4GqXcQaZCINAQIg9AQNzZnNd6D4IKEs4ZgAasSkLzMC/4GCrAgyESPIcTGoAjV2536E4x8gS9jlOAotwAwo8CNoOqhg+EQLp1H6MaZ6f4J89YAxzJjrsH5r6GsV9SkycuIkUJj1VOesbWMWEkjRH4T8oeAoxAEYYwm9nUXgnZgHlCMtQ9YuusyiOAkVxhLuO2rZHwKpJZCjNwu5WtFRaAtiTFjR00kh5CANbVmSZChzIPcsvMyicRYqDBPrnETgcZiKljWSJB9kzsKjUsyQF+kgAh2DFGlSkqRKIyAkOF18lpxg1Cc6J1m3Fm0Lki+QpB2BPIv4yFevMctyTqi3u4bWLEna0NDkoWPoAolRxmTfG++pOWZImGySJAtk/bFdKXSBvIZxl2uIYWa+Yyi8CfINgSTNWC+A1KhcgPbAMHGbY+4QMm9Zcp+QO3eFp2Is8VedDum2hv6gJCmQE9JrVyBfHUCMtaVkh8wK06okyaKhPXaHGD9hFugQCs2CxGeWJOnLHEzj7uCogjChJfYQhM5oH+Q+Aznao9wQQr9S7kD+JoSYyEX0cER/twWpR5KUPz+gof/qFnEBxljCcEecu4Y+hCSZKIZElVazyDNBYpAfL4isshwAYcYJR1C6DJNpeUeOnHALkIT6q1kpSJVXiCBoT8h17P1TSdEJhGqAvGwgR0tqKKVvq2p+W5CqrhFRRHsIYu7DCd8JySdHbi8eQ6CxUUTcsINUfSMhCkteMLkc0F8C/YaUM14jRxaisaWjsovCajEEsn1RkLtcQZ7TAdeooa1KkUqWV+IxhLqjomQt5kD89FoYoQ6EMLNjzx8/VOFvVpD4zFJkQBp74dEwcRwk0ILCOBRiwkIsf1cLqS+QoW+ssRRuTdlX2tFYwiZIWCsKY6nTfwU5I/5eF5KhzJAhC/4G0COqaJl4GxLlIWHQhyDMPMPfV0O+XoakHU7Q4FeKJjsz/kASIiyO8DaEWMLfRfKW7MGsmgCpcH5BghTWYEodUNE+nIGmZ1gciRGGmGPhrTUNrWz9QH40HY/qRFSsoQTjEEdWWTBMGMYbDS6BlAikZ6kUsYsGt09FfYWQJ5BAPZUaYhl7ebtayESlR7ZaNHot0f0MpEIkpRBLbOTt5SAZ6wrZkVSfRlPqrIq6ipYcDTTCiSKZDjGRU9OEs61AtiA5sqVMIzQ6xy1Gd6KYpBiLpBrDjCy+BvZdkAeUG5Uur9Si4VesomfCKYg9uyoioX9AmDiLr/ZoaJLUWNJraTilpKWjrxXdXrXCtCCkloQaYAbIKPiKYRUOSZH6tHX/jcyccrzG16qiH4yBhreiWKLcCDmr2rm6T8iAJMbq+qFtnHBp3U4Q3QyY+QJzU7GkJgViIhudueo1JEOZIy8e4rW0jQtfmYo+vMVgA3USqo+L5eN2iGWUc0Wg1ZDCsqKNAWk7cwxPAS1jA8bPCCTY+RBm1nLVPkj50wNyoo2FDEfb2msFZFu0Xjkmxkei+QHkI7lqHFLRskZG9Oe94rW9BD4zMMQCDfSAK4gm1k8QS/zKUzEKt0IWLB16dBaFtN3LrF8BN1UDxt8AJNr0jEBMSxxNRyObCOTiCdecrpzRhLadUtIbUEhmLDXY/YWTUzdfhEyao15ABiUNivan+sLpy4wSmscdbl4hw61hWwPmUQ7h0HzIEXP09pBC3uP2mn7pcsZrWs5Q5uTLN6DnctFCp1+iSLzmteGYqCQF7ZfBlpJ4g20AscTtHBHkHEg+L3Ez/1143seZU3vcHN+moGGnPANOS4uAFkMs4RFHXYHMxCtku9LbP07thRuIYS5Q0OqY+An0IRJwSoIhNcQ6iPm5WkjznmDnGeuKlHmM9sg7jEGOV9g3N+BDRbQUYo6fH0I1QGp2v4/KVUJ75nenzAEKG9lS+MpBT9hSROQqVZBwYwo/o4d8lssVuNKVaA89xU0r7ByY0WTAMV4kIU+EMGEYP4TaA6lwfsbVbi9Xbu2lh3hsCpv9SAz4Hw8R094Qy1jBzwIgO3exUnnjtZfOQaHx/VXgJzLoMhJztJcglnmBn6eB9Me1Mi1vlGxBe2pKSUPMsQrNWkxYOeric+tGUClxhljGZ35qhNyMSy04Q52TU3vrjZ6zQke2wtsSfxn0VknQmSWBmOq46R1kTK5UtHBu7a2nGIpVhoKzLVozocWgfXVAwnYRKcjWuZklJHDjKzpO7a0bnsWnKnjVVwptS3xm0Pb0jIirFhJ2SuLm3RHxLpRUUnvsfxiNwue8KgPfm8QdaAYIM/pwszZER9wny8tqb03ho8+ibNzLpxsGt2rg/8iuisA2g9wxN+tH5Habonla0J6a0Mc3r+z8v4YMPjHKJPAfQabETX73W0192kuvjdLLQr3dla1hRc95GHyQFUjku0NehJdiGvla7pIlt/bOORawvU9V9lpKuWdl8O4y5RDaNSHnxYtKcLsOt6C98vQJfXhI9SubI88ECTNrjY32lKSQ0B0QS2zPzksDiCIukvmZtTf+rt1fLYXiGlG2V+FDIyZcMnbW60QSvLNIIczP8TJ9RHLWuEfSgLTXzUGgRkJf2cGEaMh5pK8clq14/MR5GDtfuqXoPBQa0gwv20LEu8bNpMxjNL85KP1yo7Mg0NgNby9EZ79ycfccfEy0Z7M3EIrSVPxGzlF/SsZWd7lamocRvY8OIOGWIngZMYJG4xbZUuYRmlNKP94xicqfSCPK22bv0HqMrY9KzzIJP9ACEGbm87JwhG7r+o07ZKtF8/g3FN407W4r72uJkZZx1dh7wE1J/LeDnCgvXw1JcoUF16Ltz0+pQwQ558mUB44ohn6hsTvGRyTBXSDMmMrLViDZ3OBm/kfb3vg9Jw8dQ+WFV9IvY3slybAMYon1vEwO8lEukJQyj9F2X/+0061zifLA4at76pZY89rG/tvlYaSYEGIIM9fwcteQpsXX5Pq0zT+57WUr79vVcGOKJexiYpvhMNiOW8ohOUYQJuzmpc+Q6sWXoczR9r77Uw5Med6Hm4Yl7GfCP8Nl6ZYkx3JIv3gh9ApIu4X3g9peSq3/PeVpq7rWUGYXyWewd2yZBy2x0fB6O5JlRk4gL8LLLCDlTNeILkuIGVtqpHCE4nXouzlpS+htieOZOaM2N72MKTFz50feapOG60qS5lyIZT7h5a4gGesKwS3qtbSdox+r4rA3uznRy7iqfzDe10mg9id5OiBMfM/LX0MylBliK5oqT9A2ro1Shcr2GVhueD3RF/6D8cYuYp0cZ5JoTs1AroSX24XsQmxljRdoGwn1aNPK5thDEFothjBhcZPGM3sqwZJnkumWEGZ84aU1SKo0Rmit5rSBUrsaUfZWfj4wPiNLeGc8dIUjDyNXO2IRvPQb8loiK1BC4893YMrWYstaufHQJVFeItlWIRrlZSgQnVlgGcsSjSf0jNK6nUDZOAMmplrCZeOp7zGTpDsZUS8vitDfIJUsb4hr5y3AcnRX2bmEzzee2n677Joh+bpIFMLMgBdC34VkEVZb12/q0/CuKBurOCdzJh4y3vrS5STjq0Cy83L0kHLHW4RVs4b3WuGX2+KojKeevMsckvJkxMoVrzuG5BJVZesHrwUbv8IfCxPuGW8dZMG5JOk6RKPcxNCDIeMR1c1q9A76C+vNugsaTz24cpK2Ql4XN7OCpEpjBJWtI6hPHatCt8bE68ZT7/0ziZFmlXduQyBMkHJzi5AQawRVUoMJ9PMGFHrSlvjVeGk/A6xHMv845Ly4mQ5EZxNSpesbOUEJv6jAsQ7it0w03nly6UyS+4YQS3jNjaKUFJJFSBnqAg3+dAXu6hCNd/5QjI8cJPv6eYE8Oz+EOg/ZiYhW1wRoKy8MWu+pGq/sodQRTjyMNGB6RiDMvMgPoVdAyqwLRJRHY3N0QmHn8NrGE5f8K9pD/yNtuB6kVn4IPRSSZpgioMzfAKLQEoV9uHc13vcq/4pw0pcfQprx2RBL2MQPoVIguQX0WRpLoMaYanXMpn7GeNkDdp5YGunGm84lbRkbIAgTF/FzAxCdaXlDPLsAFVbQvTy1NC/Y8Fk3/2kTKi9eJtG4ECVG6Nnrlb9pKWnSXSCWOI2fZa8f8t/CaUNjCXWntG4ngHT1+Q2H7jIVYsf4EL+piHTE20GYMIwftS5IHuGUPV4B6plCPhUzDxjb5y9+E+mNFZCIUMoRgVZDJiqc/8Fspb8Qy1xpbHYRqVAHzCYd8jEQtjGaow1DSoimkuUVje2ZQk7D2PuoCRuSLukm05DNcPRhEL1gwRTGbKUYYuuN2nITlVkVQ/pkXsPUQXrFUShKE1O9YFLnCRhK9VPAvX8qKe7M2Dm4eyO9slohR6V47h0kY10hlrnnhFC4tXT0tRBnaGz8l8fMKi9T4gyxxOdcTRgyILGUPz2goUtXQCYWGhv38bmCQ/qjTVaJWQP5Mq56DWmiqFB+EvPKgPU+nMHeRaRnhrchhBlLuSIhJ0J0xbsNQvkfCKE/9BdgGUsU3EmoEiJE+maACSDPytVQMTWLJKkFCIVWquiXWBA2eT3SOT0VGvKJXCkKv4GkH2aIZMUaSkPOiy775xu0i1jPJp0zuyoKGnZy4uscIWWkISIpDMkx1OgiRk+DvspfSO8shyR2la/dQfTqBLJoyNOoqOu0xEZUSWqSSfesgTDxveI7hlU4psL5CYH8D4TQM6LrkAHbH0H6ZymkVs5+u2FIywJJzhrI20YVeSZIGkItJh30Q5DP4UxR+CbkucSxYA2NYXaOiilVGrC/EUgHfUgJZNa87RiSWxwVLWsg+YcSzb4fg+jmQC9eqoeUK+jx8/a2EN2UMNoN+VUVbWRDtsHaF5EeGuUmyFKy89Y4prAwvh7yElFZxknQW0gXrYB8kOL+qyFphxOE0TJkx9EMOxGzZKk+sgRiifX8PSKkhcyimAnkaqNhxlSDjQ0w6aKHKSgz8/nrIURnEUX6MgOyu2jeFeOl1lvqIzWYTfF3A5iMdYko0g/nQEJUjygiW+FtsAlhJn20AvIzyoFfDSkjDRBF2uEMyHdG8TmYdjUmR+quDWKZW53wjRBdyW6LIPoBIVRKFJZ5B3Mgn7fIKkfXaaARxX5O2CRmp4JYH2QP1WzoiZB/uT5Jsn/vN8FYbng54cNyQFKmIW5xbgZ6Wlkl6XlDplK7E9SNQnTfXcISlmFWL0lGbqBTUo58bMyYXWJnkHZllaRrxzCz2hmbxySPPTK7QnWJkP15t4UseV8MczJzRrFLgejy5wdcIbzFYAM9yO+OkCTPOn/IzSmHUmgO5rlcoUOQ+R/qP78gSeowUGY2OIUG+WL0uNzgYiGDyypJ9+2VAszFOKXYMjEZyhw3sMwjkNYlybPeBGQRvXGKOjtMfDYXuDlIDyXJNA2UGVuUY28Ro3O5wD9AVi9JtoWJNBY4R60LkztJeNUZ6DHIkf//eAgT23rloHvH6FzCaw1SW1Y5unYDtYRjysHjo/QPzHCyiS6s6Am5eEkyOIxl9nCSmi9G71p0u4F4qbQ+klkUOyT7zzlqGCDdlODCLUVAfHSgj0Q4SUH/XTmbQpdBqdKYomK7D8hL9ZF7YH7YYb8I0oXFdjGQABPoIosUdFR7ZSg5rFjXQR1pw5f4AYYZG5XTach5IF0osw/x8cmYSTsuWbcWUegJSOfyIcoUdCr7fvwh4zhFokpRuvzpEf+hFsOExcr5bbpcineJKtKG35CaYoW1WgwRgPpFlC5xMz5DkA0wW4s9BKEIVEsonSqNSPIVrlCFscyZSoibbhiln6tHfkKlwo5QDGqFMJ06TUjyDz6+BPOFSpAx1eqUksL0cWZa3vEN/qywllkkCkXpMpwuMRGfYL97YJj4ravCUOeI0x2Zsj8QH2KFbUKJ88MI1IjTOl+SD1D3lWASX1sgilApdugSw5B/azfYI1FC3a4dWg+okt0WyXd9TwQ6cbGMbyu2aBrNe1W8bJF6NRmsJT7LLhbVuVnaorV+yC0UlXbHUxvIMvoq0b49gdps0jpF6pOhzPnvAnJu319vYrBM/FbVtYaycNS926a17sguClcwP3HC0m2dBsyMCUrAhGrg4LANsaa+iebNUBfkKlyzjRuTSw1uH7SeKp9sa4iotG4noPQyThwqcfbnnSYGfIFKyAP7Px9inZcJWkrVVwptMamBvZPvcAxPZMB3rES9bALt8BmGuU8vFBiwJX5dqbDUwAg9w1/YzzebGDQT+yuRz7kBH6Emg77bRQpN0ZijCf3NNzigT1oY+CcqwZO+cqD0Q59g1Ab+hUr4Q/nLHD7AnAMV/DpGKD6lCKpISr8TTgxyvHS539UU3hJHKVfsAoXXJAimWdny3tcq/FVFngkSd1Dqu3cvlIShypWMrOypGNYbuYgeyj1v9/oFcl5KppQHmsGuWJ6RctMXfsEahbE7efLU871Asf2yfT8GkasoVSwUHDXdBCH0jo49RSmypSXP771drWK9iTko9930+AnV7LwcXVbudnC/tDnQL46oadTedpef/WHvYBvs6S7XJYrDeiOKocqVB/atOyb0B2cl/JJyswZrungTh2TCMOXaxTZ/z0dPKaljdhjDXKDcrK4zN3HJx1Uuf421rnDChHr0Xdzt8HwbV27W3qmauOSkane7w77+Tsyq1m1TePiL/+V8P43HT9/wHhpR0UvlEH5tU5uJS265NyqOKJV/M3HJF1mtki9vauKSna1OSZikuIRl7tgb/yanZExV1xNxCGbMnYGSMQ2aOCMT2yKK/VSc0kUO4fc2cYatHYuSNHcaV7CEzfepfL0mw0KminPKlXqZWRs5HagqP6+gJWw6fhUXlSc1MGH91lXcVJZsjQmThq7iqlJkHgtcQuwhCFXcVXpchyWeOyMmBNau4rQyg5kfmXieGUsjRs+jqVPFeV1uIm/pRT+nxRaZ2D/cYkUfdhNxw647Ko7scpbxUvmA1frv8PuwhNfrFX3tvof4C57X3Gcc6yD29Q7rBUcaYvw+U/BZ/T5jLKG378fEtnX4fWYUvp/Zuu93xL7fDfh+TLjkByyVm2Xc9QOoyvfz1YHvdz7fL6dm7tHvowP6tIXvl3Wzvl9jrft9WbMu/8z9vqzXt/jzO++qbySqvJoQvb/hil9arf/8pwJGNWNFK3a342RbjrdiZ2MW5zP8THTNWduTX8NJX50Bcx3H0z2YiK68aMQ8XSpiRkH8jKAZ8rBsx5nhZJjWHzIQ/+as5+JgfzoCYpk3JEbY9IPsqRWas3oYKSawH04Nmc7B/0IeR2KEnZwg3mrQBnlYdObBavSZ0LE0tGYvu5lDtiwxWoO4SbUmyGd4X+xM9Gr0d+IWsy5D/l1i5ITYizTArP64mQw784jVYiCXITF6UxChLDnRAL34b7JcncF2nGWUBPkciaEagiRGSH5tOWGyHU9HU5azOW9Ih2RGZyFnlV5Dpo2lmZE5jNR8hrForDZIWMiUGcxYCnmM9PpgZTLvxG0W9RhoFYabzLCMoRAngcquGMk1ZsEkdmOovTeDmULq7Y7M6ANETZfcC00OO3KNwftCdqZk5m0lQt4ht28fwcMQYnD///GQuUsNdcGQL95Paq3YZfI4ryEzYF9ioC3KDUtYBlERTpRaD75yYbbjLKwVzBLlhmUWYVzEOrsqMhtMGB+9+INavYFeV+1yo/LzgTETuyCqUmajqeRjEIGo98WMUUlOZlzBTF4qry0m8fF+0OoNdniy40Qx6nbyKmCsyecoikH/hik4dNkxh5VjVEqcpVXAGE5GUoDpocH2S0nPfoGe8HFZbXE3Pq4D+f9/Af2W/GBGGUjtLSsaTTkfA/CC7OsrTQz2OtYrP3rDzI8gVSarQYTw0YPviOs14AUqCRoxRqDq/i+p7rznow2HAbMjZ4JiDa4ypFfrAaklloLIqSVbuJhUyATbnvoPA7bMI0qKWuJslLrHXCnNGk0FDwPxI5uL76HQETNKjsx+EShz8ZfiRtSdDzy05ahNS+cr9PMrScqEYTCz1zfJEt2oAVPG085uBHmzbCmuVejEdcuSRTLzKczsevUuROdg14ZDZON5dlZwZmxU0vRicGb+XXahAkaPpJDVQHzJxtQkX0XBR1X5+cBYnqgx4oxpvTHXoU+sRg+bMdS90obz1Sm8JY5XEvW2LLHRBnPeh/BbG9ehDlyax+Jmm5PV2VUJsqBi+JyLlCnqxBNtMLXV4Tr02Xm48XS1Zh9ZvchdrhXDRkeo5Coza+0wZt9fLTjkP9u4DXXg6mr0osbSeCmy1hHWgopph5Rk3Rv/JmeZd2wxta29bpehzUdRhhlK/PPI2t1frJiex6H9HwSyRU1mHrYYc94H+1Mbl6H3TRtPt21HvHUWWZmRFX8DKLaW+HylSr5+wKjsMeb079RdiBoysyc/Hm/dJbvwtIBxZGVxaAueQaAU26mctpKxj1bQJvPx+/VWk5G7C9G3W7GzB9/OO4Ya0zQPGUXpIAK68qo5a8ja+202WTGugTmFldaFbnI2Ig62y5j578drTf7WXda5kAm/IxufOqFEMbfEGiVrmTHVNmO220Y97mProp2+qNgzY4iSty3aZ4xpZZrDdK+Pl9UqDhMtc4CSuUwYxoMxu279JV1py5SklF5F8ZjIhF5K7jKxfyIPxph9eK6g7Aqyqa71czd8FmRmtZK9kcaCRvkw6oCJ0T4qlsfMyvmG11HNWsnfDzgvTpRSdl8d/KhaAnPWO9BdphS/DYW36K5k8NA/n5u132PvxAhlV0Vk1WU7TVY8n+oclByu0zI28KSUKpn497QUF4moevpH/qE4Z8bSRSppfG7r4Wrtk/fphYL9e7/FQX3fpkGB1P2lD3HrFyvurysilCqZPOLH4W3t8z/vy5rmS9btvFs+8K+O2N93W4y3yqsJ48TORk5NEyWX9/0YRJ3Kzt9hW9u/dX+a9TTokOura6tduIUXNg5tdHiH9n8QKOkc3qL7zzrjsL3Mvb2V2NdXCirPtqh4S27qvuWD+r7NAX/W4io2drrbNQ7+2dNWMjr2EIR/YRmfHXM4Vt3993+trHl2aoqrlxZBGjyelyy+1TdqPWm8Zz5/43TLaGZi99qVpF4pE5YXdJbVVS/crlZa+cu//MsrO/1t/eVfTqKVVs78X+ZvhFnDNWxBSewvsMRzohD5u01GSe73eRFv8/nhliKUBO+EJd7yLqc6aSXHs8/4OT1J4hjXrST6bqa0cq9R8N/Dip5KskcaLJlZuxQv8TPMnDFiJeHvc3hX5RFqsMTt75NdyfoqWnJ8y3m4nyU+a7HKC+oqqd8bZmT9+3W42f3c8bpnoOR/V60tJVviukW40/2sejczUH5hnREz7Qot8avbdP2IR6h8xtpLtrhlJra5xTyYuG0aLSl/8j4jG7J73pDwGt0yE4bNbgbK1xx69cxY+uyJorLEX1t+lU50R/miQ58xMxtuPbtomPliWH/2cLGHIFS+aqyDuJlzW/Wxr1wMm/j3V5l01VcKbeXTrpZdJJ/fsoR5lnBsEw6ayngH/16RLYX/nPJ/7zO8xWBmlN3UVTPhEjOauBry55/a5/zFEmavfOa9fyopNrOEsFH8vY8wsFHcakMTAU3EMt4w4d4oBsaE+ZYx9BnYxuiwk1Mp5X/3qqXXLllyCZ3oRLgxpfqwU1InOnFtJUs2U/n5wHgLqlr/V+v/w3UP;" parent="1" vertex="1">
          <mxGeometry x="8" y="589.5000000000002" width="70" height="70" as="geometry" />
        </mxCell>
        <mxCell id="ruudqL98C5SeJLmAqFBZ-35" value="orchestration" style="text;html=1;strokeColor=none;fillColor=none;align=center;verticalAlign=middle;whiteSpace=wrap;rounded=0;shadow=0;glass=0;dashed=1;labelBackgroundColor=none;labelBorderColor=none;sketch=0;fontFamily=Helvetica;fontSize=19;fontColor=none;opacity=40;fontStyle=1" parent="1" vertex="1">
          <mxGeometry x="462" y="755" width="60" height="30" as="geometry" />
        </mxCell>
        <mxCell id="ruudqL98C5SeJLmAqFBZ-36" value="transformation" style="text;html=1;strokeColor=none;fillColor=none;align=center;verticalAlign=middle;whiteSpace=wrap;rounded=0;shadow=0;glass=0;dashed=1;labelBackgroundColor=none;labelBorderColor=none;sketch=0;fontFamily=Helvetica;fontSize=19;fontColor=none;opacity=40;fontStyle=1" parent="1" vertex="1">
          <mxGeometry x="577" y="306" width="60" height="30" as="geometry" />
        </mxCell>
        <mxCell id="ruudqL98C5SeJLmAqFBZ-37" value="data ingestion" style="text;html=1;strokeColor=none;fillColor=none;align=center;verticalAlign=middle;whiteSpace=wrap;rounded=0;shadow=0;glass=0;dashed=1;labelBackgroundColor=none;labelBorderColor=none;sketch=0;fontFamily=Helvetica;fontSize=19;fontColor=none;opacity=40;fontStyle=1" parent="1" vertex="1">
          <mxGeometry x="4" y="679.5" width="60" height="30" as="geometry" />
        </mxCell>
        <mxCell id="ruudqL98C5SeJLmAqFBZ-38" style="edgeStyle=elbowEdgeStyle;rounded=0;sketch=0;orthogonalLoop=1;jettySize=auto;html=1;exitX=0.5;exitY=0;exitDx=0;exitDy=0;entryX=0.25;entryY=0;entryDx=0;entryDy=0;shadow=0;fontFamily=Helvetica;fontSize=20;fontColor=none;strokeColor=#666666;strokeWidth=1;" parent="1" source="ruudqL98C5SeJLmAqFBZ-37" target="ruudqL98C5SeJLmAqFBZ-37" edge="1">
          <mxGeometry relative="1" as="geometry" />
        </mxCell>
        <mxCell id="D0ZbUYIt1elGonWLRSw8-2" style="edgeStyle=orthogonalEdgeStyle;rounded=0;orthogonalLoop=1;jettySize=auto;html=1;entryX=0.175;entryY=0.5;entryDx=0;entryDy=0;entryPerimeter=0;strokeWidth=3;" parent="1" source="D0ZbUYIt1elGonWLRSw8-1" target="ruudqL98C5SeJLmAqFBZ-12" edge="1">
          <mxGeometry relative="1" as="geometry">
            <Array as="points">
              <mxPoint x="745" y="378" />
              <mxPoint x="745" y="626" />
            </Array>
          </mxGeometry>
        </mxCell>
        <mxCell id="D0ZbUYIt1elGonWLRSw8-1" value="dbt" style="shape=image;verticalLabelPosition=bottom;labelBackgroundColor=none;verticalAlign=top;aspect=fixed;imageAspect=0;image=data:image/png,iVBORw0KGgoAAAANSUhEUgAAASwAAAEsCAYAAAB5fY51AAAAAXNSR0IArs4c6QAAAARnQU1BAACxjwv8YQUAAAAJcEhZcwAADsMAAA7DAcdvqGQAAC4ASURBVHhe7Z0JmF1Vle8DiiCDCkTAxhFtEbRFVASEgJqk7jl7nyLE5CGTwQxV9wy3MjA8tI2JgmA3ioiIqNhqy6A8fCA06qMjgwZtRwTTIAgEWkAmQwhgyLjOW2uffSsBTlL3Vp17z3D//+/7fUEsKvfuYe211l5773F5KxZCd08K1QSqq0GK9LnkqyXku7cwP6DIPYN8PYMi70BqOLsk/xUEQVmIoim7UaP//TzXZseh/hz/eTUFaimzhEJ9DtXdOdRw3x8Pervb/6T3REO18TTkedwYX+JG+TUF7uq44cXx/CkJQ/0Jc4+K4wVHx/E8/neRjtmQPcY/fyXj06xJr7G/DoKgNhQP9u3LDsKp1PCuZ8P05PDcW8DMtXNPaM5H/v95jq6iSP2c//xXNmAfpJn9O9tfV02xkXoZBTXFDfVvzIPDDSJGiY0RW/c4DtSWkf+/2bBswNhoifG6OA70u+1fAUHQVsTG6QM893jBV88m80jmHs+pVuae/Jz8vBg1MWCRvsNEQ1HtEPvrqyHyJ7+aLXODv9yt8ZA1OGJ4wpSGaQf5Hex9sdF6jsPF79CAd6D9KyEI2kzkO++i0Luc5+BGM//E+KTNqVYRAyYOBxsvNn4bKXRv4FDyOJp/8A72ryyf6MSJu/GX+SQ30gPDntRIlnw0iHcmDRd5q6mhv8GGbF/7ESCop0WB8088H74tcyMxVB2YfzKnxfPi+U2BvlXyzfG4cdvYj1B8SRKdXc9Z7PncY9xHscRpXzRrpDO4U7hznmJD+UWaM/mNySeCoN4SDTj78OJ9ATsLz5g52AlD9UIkYhKnRAxX5InH9UH7cYorsejU8H6SWNwuGaoXMhwqqkcpcD8eD0x8hf14EFRp0WxvDx7zZ/DYX2E2q8Ya+o0GMVzGcdAb+bNcRAO1vezHK5a4kebzh3zKuJ5jzU9lgc2XUaSW8Wc70X5MCKqc4unTt2Ovps7ca+afLNppc6KbDKdq9J95/tXsR81fNLM2nsO/75mGEiOR9uHzRDw92VWM9A3sAU62HxuCKiEK1FQO/35tSn+6lX5pB1MFIHZBL7YfOT/F4eQD2FjdbtzPTiTUs0I+mxhUtvrcwZfSgPsO+xUgqJSiAXUoj+XrjJGSFEzauC8K4vGZaEdflluKhi3mRP4AjxhDkPYhi4hNzPOfKyn0zurp6l2olIrrtTewR/VVnntrzVgusqOwOfI5Jbcc6VvYdrzJfp3uSEIr/oufNu5e2ocrOiYxLxbfu5dCx5ccgP1qEFRIiWfC4/Z0aniPdm3nrxMYo+X9sWtGi8Mph8PAZ3LbBcwSW23P3+cXVHdc+xUhqDCSmiYK3I9x+HeXMVSNCsy7JDxc1nGjRYOqxn9RNYzV5kgOgL0u/m6Xka/fbr8uBOUq9qKO5DG5pFnflDp2y0qnjZYNA1cVciciCzbF2E+T754jN0jYrw5BXRX5tbdSoL/FY3F9kqdKGa9VYL6Zb8syv8jAFIRG+tHC70ZkQXNHI9T3UcOdE0+duq1tBgjqqNjbeBV7+J/m8O/JUuep2kGcBLnO5rSMbn+gBX278i9cZix92l9YVZrbxZG+ieruJNscENQRUUOdwE7BnWaeFaHws5uczEbLdy+zTTE2UV1daax92l9UdcQVT4yWHPW5HPktKGtx9HIEe/M3mHFWtdxwq9g6SfLVqbZZRicK3LmVjqFbxdZvUcNbwf+8GOcTobFKks1sqC5mNpgq9bLUU3WKZNNrTVzXR9omak80p39//gWrCnncJi+a9VuhvotCZ6bcTAFB7Uhu6uRxVP56qk4gR+gC9ae2HYJ44cJtOKa8oefyVq1izifKNRpqibj0ttkgaKuiUB1r8sGmngqOQCqShPfd822TtSYOAU+K53NM3euh4NaQtpEwMdLrmYuo0Y/7t6BUUUMfRA11nVnoqlZPlTWSL468deQ7B9vm27rEHeNVYHnPJgDbpZnfCvUTbMROr/zl/FDLojnO3uxVXUCh91ySC0b41xLSVr57k0R6tim3LHbHPtGzu4JjYfj+Lbkm1vuwbU6oBxVPf9t2FOi5vIg9JMWRuVykV2bEsLPDxLZo6/OIZvftyj/0EBLtY0Bc/iFu7FBfQ3V9kG1aqEdEDdfhEPAXhb2fqixIjjhwfx8PDLzUNu2LxcYqNO5Y2i8ArdOsK5EXfQJ9bmGviYUyE9X73sl9/X2z2EtNVdq4AK3T9LICNdU28fMVL5qwPRusZUgKZoiEAsl1GsvjSA/Eiye8xDY3VBHZnO9nuH9XmlQK8lTZIYu+795gm/r5knuXzeqAncHsMdfYsIsbanl+37FNDpVYyetQ7kc5/LtLFiWUKXQAc8JEr6PIfU/S6puJJ9K3EA52kM2P+cjDr3X9Ftv0UMnEHtWhvMD/Z3LtC/JUHcUUaqsv2KZPRNGU3dhgPYJVogtIGYR0QkM/EQfu4vi4w15luwEquCjoey2v+PLe3xqzuCP86zyygRW4d8cD3sttN4h3pftN2IJwsHvI4pAk5u+QCmjbFVABFc+YsD2F7sncT4+YPJUsOml9CrJHFgWeK+zVfsB2h6wc7pcQDuZEswwi0tdQ4L3XdglUEElu15QpyPxAmUI+SETiu+eYDonjeByHJr/F7mCONMsgIr1WFg+pkDadA+Umqjv7sbG63HjCUlOV1m+gO0hNlu/eknTMXG8P8tVquLkFYLgMQj/A3laA2067Lzre2YVCbxEbq+TWT+Sp8kc2qnz1DA3VxsvDEhPMKoKOKQ4SeshVG1IGUaRnviuuONDTqeHdbgwVNqCKg81jxaFzmHTSgOmgtB8E+WHKIJKJw4bru/IwgZ1XUMaiqHYgLwzX4jaFAiO1bmyrJKl4HhLuBUZC9SS/9TcK1D9LyGLnGTRGUTRxN/aozqKGftrMAUQZxUXmgK/Ok4LRJdj9KAHiEkunBeq/KXCPsXMOGqW4DeVx0vuMoUL4V3xkJ51tlRisWyrxmmyv0CyDaHg/pMg70M4/qEVJ6Qi33XXm1AGq1MtDJLVY7jIxWD9A3F4yNpVBrOZOPDfzhygrKKqrf+CQ4svSZkn4l9KuoLgkHtYNYrDOTBJaKT8Eio2UQSSGazmHN7PwKEa6pG24je43hgqX6ZWTpBbrMunME8z97Wk/BMpBswyi4d046meSKiiqu++Xh0JwmV4FEKfKV6dLWcO7zU4UdkjKjYQ44m2FagNF3td7+dLAeNDb3VycGOp1CP8qgPSfXOZXd9xxcXjkTrwSPYqdkoogi4+cvWp4fyZfnWjncM8orquT2GDfjfCvQiQJ92dNpbvIJN6lg9N+GJQTUwRpDlX/mMP+TSfdKypehQ9gj8oWfyL8qxSS7gjUT2xXJ0lJ3ENdQTbtJm6ghr6AZnt72C6vjGhB3648fj/FXtVTSfiH1Ea14P40CffNogUZyOxlPY56rIrSDBMD9YBZnCpwqNq88BSogMftvcZQIaVRTUw5g/of9rJeabs+EXf8+ShvqDhmN1Hulveup1C9z3Z9qSQPeVDdOYW9xgew+9cDyELrq7Ns92+S3DHOK9bTWKkqjtlNZKNl7t7SF9Es9Xo7BEoheQ2Yje18anjrUfBccdgWsU16hhr9b7Td/3zx//kZJN97hGaYGOq/8OQP4gnleoKMfH248bIwXquL3A3nuxfZLn+xaO6H9mCj9Td4WT2EhFRJYn4p1d1JdiiUQiYqCPXvYbQqCC+ocosG26O32e5OFwXuGRgAPYjsEssgifTFNLvvzXY4FF40szaeB/XS+GTkXyuFyV05X7XdvGUlT36ph5HM7EGGi071I2wETnne00oFltkxlBosLLTVQHJXoX6Shpx9bBdvXeTrk9H5PYwJE4+KKdC3UuB4dlgUWuYprkD9CJ5WBUhKcD5ru3Zk0SmTdyTf/TMqhnscCROT1e7SMlzRbDytSN+MxbbE8GJJgfugRHq2W1sTr64fNXUuab8U9A5SOS67NfKKjLxUPTDxFXaIFFLm4HOo/gCjVVK436juBLY7W5dUQ7Ol+yWO7ACD7ByL4ZJXZQI93Q6TQirZPVQPok6rZJgjOO4faKj2MtuV7YkCb7LJZ+B8FmgiRoDh0OsqOXBsh0rhJPeCUaP/2XgIJTqloHmFzFhzpuyeXRvPRyITbEbzUHWonmX+RV6fscOlUIoHnQFjYLHgFh8ZT757ne260Yvd63fyaroadwuBF9EMEyN9J8nNtXbMFEk8Cb4lu06pnx8UA7nvKvSek8tEbbeNTdzpX8HBaLBFmmFiqP5TriW2w6YQkk0CNqbLkIstMBzBsY3Z8hGcdkVDzt4U6Mdw/QzYIs0wUV7yibzPx6G7px0+uYsN1qEk1yUjSigebFPYtvwtHvReZ7srG5GvTkUuC4yIGAVTBqH/Qr72i3L3Fq/gZ6LUoYCYMgb347abspO5+z1w7zTuf9pfDMDmyO6ybFOH3o3s4eR+RTPNP3gHHr9/QGhYICSNEKg/iW2x3ZStuMOPQYeDlpGtavP8mF7PA/PrFOZ79xYFzmQa8tZj17AAmDIGk/f8X7Z7slccG9caRx9AezQPVUf6YWqo+aMuDMxAvOhejl3DAmBCQeentls6Jwr6DqWGt9YMwrQPAsCWMIeqjeH6JdNnh1RXJWcipX4Md77liLnrylvD/dCda7rjuvttlDmAUSNpBTlUHalL8jhUTb76ArysHJFNmUH3YtsdnZfcsUyRtwJlDmDUiIduvC3vMQr7P9HNu7do1qTXUKCewLGdHJDbGEL9RDw34zKGkUS++2msUmDMiNEQwxWq22lQTbXDq+OKA/dziBJyQHKZQQfKGEaSqSD23ftwZxbIBAkTk9X3SvL12+0w65jkNks2kqtQTNpFZFfQV3fF4fTOlDGMJLaUH0WZA8gMKTcQr72hV/LYOqPtS9zaFHtZ30aU0CWaZQz1DpYxjCTzRlzgLJXrdFM/JACjYfhQtXc3e0HH2uGWucyRnUhvRF1WF5Cw31fX26bPT/Z9uA0ocwCZI+kGuSOpoX5IdX2QHXKZSW6XoLr7M0QJHUbKGOTh3kH3PUnL5yyqO5cigQk6QvNQdajWsEf0RRqqjbfDLhOxwYrk96f+3SAbJNEeqpGf7OqWJIHJA2slivFAx5DkuCmDUPdSqGdmdfcWBVNey6HKUxi7HcLcxqAeo6DvtbbJiyHu9E9ipQIdR8JEDuHYaN0g6Qg7/MYk8t1rMHY7hCwygXOKberiiI53dmGjhafBQOdpHqqWvEikLqRo0mvsMByV2GDNTvJYyMNmiiwsvrqN5k/bwTZ1scQdf5zpeBlQaV8AgCyRjR7ZTTR3b6khqo3uULWpyfLV37FxlCG2jCEO3Cm2mYuneOG4bShwb4R7DbpK8+6tSN9CkTvJDseWFU8dty0brF8kXlbK7wftI6FgXV1rm7i4kju9eeCsRwUx6DqJ0dpIDf0NGnD2sUOyJXF0cA4W2ozguc/9sJoXj3fY5i22uPMvRgUxyIVmmBioJyjQp9EJk3e0w3Kr4gnWbzw1pDPGjpQx+M55tmmLL7lQnkJ3BU7Dg9yQMgXxmCL9W2ooZYfmFhUH+k0UuKuQxxojch40UA9lXS/XccW+Oh0uNsgdyUslh6q/R3Nq+9vh+SLR0NDLZEcrSRSn/B7QGknuatA2a3lEp0zekUNDPFoB8qd5qDrSK6nRvzCenv7oAY/X72ORHQOSQwzUL+Pp07ezTVouUd2ZluQF4GaDAtA8VN3wbk87VB3X3cXYKRwlEkpz+1Lofcg2ZzlFdfcnWLVAoRCvX646ifRV8Rx1gB2q48SIwWCNEpNody+zTVleke+8S7Y4kcwEhaJ5qDrSq+JAf455VTzo7cv/ewMigjYxnpVaRXX9Fjvtyy2qqwtQ5gAKSTNM9NUyCt2F/O9WYnFtEzO33cV2updfNNfbgwL9V5PPSvvCAOSNjE2zJe+uT/3/QToSWgfqHrky3U73aojj2xC5LFBoUDTaHuYQOhss3/mInebVUTxjwvZsiX+PpCYAFUFygL67RF6Er6QocCabnAGSmgCUm4Zce+w9x3P6vXZ6V1PsZV2JBDwAJUfKGOruhXZaV1dm6zjUuJIWgLJiNifUIzR/6l52WldbFLhnw8sCoKRI7mrQadjpXH3Rgr5d2ULfh3OGAJQMsyvo/q605wVHK/KdGWbHEFvJAJSDSMs5zA1xQ0+007h3JFuhbKlvRm0WACVBQsG6e7mdwr0nGvQOochbh+uUASg4zfOCbV49XTlR3fkGvCwACk5y3nKRnba9K/PybqAex3XKABQUOS/oqzvjMP3iw54TBe4C42UhAQ9AsZBTKXPlimlnmp2ukLwMS757G84ZAlAwJNHuu9fZqQo1RYOOh+uUASgQ9n1BjnyGb2WFNhPV1VVIwANQECTRXnc+b6cn9ELRkLMfhepZlDkAkDMmb6UeiAeP2N1OTyhN5KuzcM4QgJyRfHK9dpKdltCWFM844pUUuPfjOmUAckLSMr66KZ46dVs7LaGtib2sE5NzhkjAA9BV5LxgpNfIKRQ7HaGRFC9cuA17WTciAQ9AlzEV7e5X7FSEWlVyzlCvxZNLAHQJczGffigO3T3tNITaEdXdr4nFT21cAEC2yF1XgZplpx/UrsTSU6geQQIegA6TGKtfSjrGTj9oNKLAaeCcIQAdxFzMp9eTXzvcTjtotIoXTd+OfPdX8Twk4AHoCJJoD9Q37JSDxipquB+khrcRCXgAMiZJtD+MRHvG4hXgUpQ5AJAhw0/Nu7PtNIOyUlyvvYFCtQLvGQKQEewAkK+WoqK9Q4p9dTq8LAAyIKloX0t1fZCdXlDWSi76U7ebYztpnQAAaA1zdYz7RTu1oE6J420dN3DRHwCjxlwdo++haMpudlpBnRR7Wd9DaAjAKNiUaD/OTieo06Kho/eRN9KQgAegTRJjdbM8ZAx1UeaiP3hZALROaJ6a3xgHPfjUfN6KB73deaV4BO8ZAtAipozBvcZOIajb4sZfCC8LgBaQTSpJoQzAu8pNNLM2nkPDx5DLAmAEJHdVd39mpw6Ul8h3zsOjFQVBrgGSGrm5/Kcg/4yrgfJHdgallAE7g/mLwtr+FKrVeBosRyTcmDclpsC9kyfH6RSoDwjJP/O/k5s2UDeXH3LA2XeXx+H0ney0gfIUd8Z1yGXlhNygIcncSF9EDWcX2yXDkn9Hgb7IGC3ctpEPHIHwHDnHdgmUt8TVNeEHLvnrLuI1mZ0n9QXbFVuU/IxZVOBpdRc5MxjqjRQ477VdAeUtiibuxkYLyfdu0oaxagpGKwfmmkLR38UTJrzEdgNUBOG+rC7SDAMD9Xnb/C1L/hvTTwgPu8N8uU3UPcM2P1QUUd05XlYThIUdZgzGqiny9TkwWl1APFmDd5hteqgooiFnb15JVmG3sIOMIgzckhAedoFkd/B+OmXyjrbZoSKJV/2fmuR7WueBsWGMleRDxm6smkqMlnjFMFodQRaEwL3CNjdUNLGHdXbSSSmdB0ZPhp7VCwVPq4NIdXuo5tumhoomdn8/bCqrMfizI4Oc1UhCIr4DyBzg9uS2PdQ2M1Q0Udj/Zl6x12DgZ8SwZ+Wea5u4Y5K/A55WhjQ86bfHyZ/6atvEUNFEJ0zekTvpDpxfy4BhY5V9GLglITzMkKT+6r/igYGX2uaFiijupP8wgz6tE0FrdCEM3JIQHmZE0n+X22aFiirupAtgsMZAjsaqKRitDJCEe6A+a5sUKqoocheYq03SOhFsnWYYmKOxamrYaCE8HB1mDugB25xQUUWBd4y5NhkDvT1yyFmNpOGKePRle0h7SdI91K5tSqio4kF+uDkEjUHeOtJWEkIUyFg1ZRLx5iYO9GfLNA0Wbmgovqiu32lyHxjgrWOMlfs124SFk3w2Y7TSPjt4MTz+KVRrqe7sZ5sQKqpowNmHQhdvFraKnDcL1J/i8MjC3kYpn818RpSrtIYJB90VbLReb5sQKqqkk6SzYLBaJNlNOsU2X2ElnxFeVouYcNB9Mq7X3mCbDyqqpJNMZ8FgtYY8ThCqCbb5Civ5jNj9bREYrPIIBqtNYLCqBwxWeQSD1SYICauHGCzksMoh6STksNoASffqkRisVbIBZZsQKqp4YL+NjdZaHOtoA/GyUNZQHaSkR0ob6vqdtgmhoooi70BzTTLqsFpH2soYLRSOVgJpK/GyfH24bUaoqGLvqmbCQQzw9pD2wtGcaiDtNSSJd+8Y25RQUcUh4Syzm4TXc9qnabRw+Ln8yO5v5C6wzQkVVRQ4n0G+YwxI7k+MVqhze9pc/m5jrJCHHD3JwvNl26RQUUW++10z2NM6EbRG02jl4GkNe1YwVmND+s93/8M2K1RExVOnbssDfik8rAzIIadlEuxirBAGjh0pV/HdO+TacNu8UNFE0ZTdeNA/jBqsjBg2WniEonRIWYOv1sjDLLaJoaKJ6vogM+Ax6LOjC+EhwsAOIHMg8bI+bJsZKpp44AfyWgh2CDNm2NPKPjxEGNhBzELjnm2bGiqaePBfYgZ/WueBsWGMVrbFpYmxQlFox5Bi4ED91DY3VCTR/Gk7sPt7N86bdZAMPS14Vl0gMrc2rKIhZ2/b7FBRRKF6H7MRE6DDZJDTGq5gR86qs0hqRB5UrTvH26aHiiIK3YXx/KPTOw5kyxiMFhLsXSbpp0tt80NFEYcYP0f9VRdphodtGC0Yqxwwh6Ddx+NBb3fbDVDeYtf3AAr1OkyELtNGTgs5q5yQsFCS7wgLiyNeQc6MFyAczAVZJGRCRPqitFVcLlTkn/u28X6xoOSDWVTc62yXQHnK7g7eg93BHBGvSYxWqJZT4F7EoV9Avp7H/XIJ/7tH43nwrHJFdgtDtZrC2v522kB5iSfIMcl1MpgQuSOLhhgn8aYECQFxTKoYLBAvyznPThsoD8UMr+I3msmR1kkAgASTfFeP0cza+GT2QF0XBc4RuF0UgBZJclkL7fSBui12ca8yYUda5wAAno9cm+y7j6DEIQdxw3+QGnoDvCsA2sB4WeosO42gbiiO2WDV3Z+ZBG9apwAA0pFcVqhW0dDReLOwW2Lv6jiTaMc1MgC0T+Jlfc9OJ6iTMreKhvoeU8qQ1hkAgK0jaZSGvPjteXZaQZ0Se1fnoqodgDEihb6+eyfN7N/ZTi0oa8kVyBRpPEMPQBYkZQ5n2ukFZSnzIo6vlqKMAYCMSBLwz1LYjyM7WYtXgtlItAOQMYmXhYPRWSoO3T0pUA/jgDMAGSMJeHnWPnSm2ekGjVW8AnxFDm+mNjgAYGzINcqhupsazi52ykGjFfnOwRThcj4AOsqCo+WSv8/aaQeNRvHChdtQ4P4MiXYAOoxJwOtnkIAfgyhQs3B1DABdQu7MCtS1dvpB7ShJtOuHkGgHoEtIAn5IHAR3ip2GUKuiuns+KtoB6DKSgPfVnXTC5B3tVIRGEg2676GGtxqJdgByYP7RbLQ0LvprRTbRvgSJdgByIknAP0VDDq6gGUkUqmORaAcgZ8yjFe737bSE0kSz+3Zl7+o+iaNTGxEA0B0iHVPD20j1vkl2ekIvFNXds1HRDkBBMFfQOLfSUO1ldopCTVHd2U9Ojkv8nNp4AIDuYw5HqyE7TaGm2GDhBRwAisaQHIxWj9KQs7edqhD5ut8UiOIFHACKhyTg6+7X7HTtbdH8aTtQoG7HziAABUUS8JG3jj2t99lp27si3z0ZoSAABUfmqO/eFNt525OK53qvY+/qCSTaASg4ctOvHNsZVCfY6dt74rj4m/CuACgJcjNpoO6jaOJudgr3juLQOYwaej3OCwJQIuScYdBjF/3FC8dtQ777c3hXAJSM5KWdVfGgt6+dztUXBe7H8AIOACWFHQ2qqyvtdK62JP5l7+p+PDUPQEkxF/31y+Fox07r6op8519wXhCAkmPOGbp/qPQ5Q/L123FeEIAKIOkcCQ39WnXPGeK8IAAVQsLCQD1K0VGvsVO8OuIvpuK57FnhvCAA1cG8Z+heaKd5NRTPmLA9x7u34bxge7CR32gOhSOEBkVFzhmGeh3V9UF2updfFLhzEQq2idmFUbdR4HyKvdKVZqMC3ikoIiaXpa63073cooHaXhTox4ynkPZlQTqJwbrHPMrh197KxuoK42nh+mhQNCQBn9xO+hE77csriW9RxjAKxNUO1HMU1oafDuf/PZVZZtoTYSIoEnLO0Fd30cxDd7bDtXyihj6IIr0G5wVHiQyCULu2OY3i8Mid4oY6ndv1cRNmI0wERcFc9Of8sx2q5ZLcmyNxLXJXY0Dc7EClDoB4sG9fDrUvNZ4WNjNAEeCxSKF6Mg70m+wwLY8knjX5FngAo0eMfd29wjZpqmhQ1dgL+4X5WeQJQd5ImcOg8x07PMshOq1/Z/YM/oTzgmNELkzz3TviAe/ltmlTJccjOEScxx7XX01+CyE4yAvJvcq1UaF3mB2exZfEsUi0Z0CSeF8rR5ps025V7I6/nn/+62y8NiT5rZTfCUCnSVIZS+PFE15ih2ZxZSZNqFbEDXhXmZB0/izbvC2JDd2RbLR+anJbCBNBt7FlDvznSXZIFlfkq+9IHJv6RUD7mJ0Xdblt3pYVT526LfmOz8buL8bbQpgIuom9TjkO9KvskCyezLXHEo4g0Z4dUkAaqOU0s39U9S1x6O5Jof4CNbzVSZiIvgFdgscb1d0z7FAslpIV3b3ZTIq0Dw9Gh7jXsl0ceJNtU49KFHmHcKj+E7Nzi80Q0A3MuNVPUX3SW+wwLI7YCzghiVuxgmeOrFS++qpt6jGJf8+J7HHdhWp50BXEgRmhNKfrooazC3tX9+KcW4cw5wrd5VLlbpt8TDLXVIfeWRy+P20MFxYZ0Ckkd2oWRj3RDr/8Rb6zCIn2DiJhoTFaut82eSaigdqBbLSuNjuJWGxAp5gnEYL7q0KUOVDY92aSZ38QXnQWCQsD9/u22TMVG62jmduM+45+BFkzfJuDO9sOufxEgboURaJdwCQw1dPU6H+jbfpMFQ9MfAUPqE9TqJ80hgthIsgSc5BfPZDrq9FxvXYkNfRGDO4uIV5WqBbZ5u+IqK7fwkYLh6pB9ohjU3c/Z4dad2UulpPye1mN0z4cyB5Tk+U+MNqarHZEgeex4fqN6V/JcaV9HgDaQaKEKKdXo+O6OkmSaSY+TftwoDNILiBQge2GjioeOPDl5OuTqeE9bAwXquXBWJFx1O0yB5PvCNRyFCDmgOQCfPfPdMLkHW13dFwchr6eV8ZvGoOFRQqMBUkfmY2dLpY5sIVcjER7ToixkFxWl7yszUV1dxKHiUtNbgthIhgtUuYQqF/G06dvZ4dW50Rz+t/IVnIltr9zxOSy8jlYao5gRV6d+YupvUOYCNpFvKz5R8mh/rZuIRmVKHD+Hd5VARAvy+/sjuHWFA96r2Oj+WUOF9eZvATCRNAOSWrj3o4uuuY2hoa3DqtqAZAdl1CtksJd2z25iKLaIRTp/4dD1aBt5DrloEO3OSSPSuA2hkJhclnu1UkP5Ss2WjMo1MuN9410AWiF5qIbuf9oh1F2orB2bHIbQ8pfDPJBcgFS5lBXx9puylXkT341G65/ZS/86SRMhCcORoAXOPIzfrRCChUpUHfB5S8gkgsI1YMU9L3Wdlfusoeqr0nCRFTLg63AixqPlQ3k68Pt8Bm72AL+byTaC4xJwLtXS9heJPEg/Ag19DKzm4gwEWyJZPzenMn4lZWbAvdxPCpRYMw2MXd63T3NdlthRMc7u3CIuIgitQJhIkhFxgR74rLA2WEzelHd+Sq8qxIgCcyGt5YGnQ/ZriuUyJ/8dh6YV5iCUxyqBi/EGCz3jjGd4IhDdQCF3nNxBHe+FEinh96DcpTGdmHhxJ/tKB5PvzXeFsJEsDljjRLYu7o2no+bREuFdHqk/yueN+WVthsLp3j6kTvxYng6G68VxntHXR8Q5ARHqB6lgdpedqi0LhpUNeO+I+dQPqQgL1TXxIu6cFZrDDJ3bzX0NyjyNiJMBAZT5uCeb4dIa5JDieSrX2MQlZik438gZ/9stxZW5Os+4xVKmIhD1b0Ne9sU6r9TWNvfDo+Rldx1BWNVaqTAV4xW4H6Thmovs11bWMUzJmzPXuEQD9aHECb2OJLW8J3v2aGxdcXh9J14kN+NItEK0DRaof4BTZu2g+3iQouGnL05RLyQP/M6s2jiZEXvIYuVMOgcZofFlhX76nTjmqf9IlA+ho2Wukpqomw3F140qCbwZ7/JGC0snr0H9zv56nq5it0OiRdLrnog330oHsJ2c+UQoxW5NxfpCM9IiseN2yYO+09ij+veJEzEuOwZZLNPdg0brmOHw4slVz3Au6owkhsI9Z9osHaI7fJSiGZ7e/DY/BJ7iWvM+MTOdW9gclnuj+0weL7Ir72VQvdZFPNVHHG1G946qrvRVt3tAooC573U0NeaEBFhYvWRHcNIrWcP+8ULLK9g5xq3O+0/BNVASgakGj7S9/PKdXIhng4fhdhLPJ4H8R3mQQyUQVQb42WpS2zXJzIut68ewwHniiJec9Lx93JYNRjPOKKwVfCtyuZbQ15o78dtEBUmkkv+3Gcp7N90sy4FahbqriqI5HrEUEXeU+yVfIIW9O1qu7wyoqHaeA5xz5LviPxWRZENo0B9ynY5d7pUREtnp/0wKCc2z8OG6to4VAfYrq6s5Dua74r8VvWQcRy4fzQ51+R1X/cRuNQVQbb+E6/qbjmxYOdzz4jH8nEU6TtNPhZjuhqI18yQr99urrM1VaVwpctNM/wL9Rpq6HPiQW93O4d7Tia/ZcJE/QzCxIogYztwPyb5qxPkUcPUHwLlQEIgKVcI9Y8oVO+z87bnZe6W99VVzfZJbTtQDsRg+eo8caHPNLssaT8Eio2Ef5KQDPU97E3MsPMUeoG4bY5mj+tW423hFEc5kar3QP0oSbjjZZNy0Qz/Ir2aPaovyPNadm5CW1AcHrkTt9fHub0eT475IEwsFQ1PQsJficG6BfVXJULCG3PGyvshRd6Bdj5CLSoO9Jt4pf46G6+1pvAUt0GUA2Ow1G/EYC1BtXAJkB0vU4+i76K6Pt7OP2iUknfwOJS+3uS2UAZRfCRH67vflUcBzjOxfdoPgfyx4R8brJXsHSyOZxT3rvayKV4ot0Gok9hw3YVq+YKTXPt9qrjIA0i6FxRZ/SVJHOorqO7sZ+cZlLHigYmvoND7JDX0E2ZxQH6reMgZ2EBNHReHzmFmZUGtSnGQED1Jqv+a/Fq/nVdQhyU3lnD7f5s9ro2m1Adzohg0+6Hh7ZucxfLVM1hVCoD0geSpIu+vbKzmxdPfVuhXb6oqCpwjTH5LclvIb+UPRxnku/fHiyZsL7c6JjuFKKzLD9mpSjyq9eTri2nA2SeZOlCeolAdS5H6o80hpvcd6DwyN+rqStstxmCdY2pT0n4YdBZThd0vxmoJ1d332y6BCiK5iocXFHn01dZvwXB1HQ7PKXDn2i4RF1h9AHmsLiPtPV92PvQ9zEzxdKHiytRvRfor1PBWG48Lc6U7RFpKeZ5jG/U22xWyS+K9nC3Y3ajH6gIy0JPwbxX56iyaWRtvuwEqgcw1zZF3tZkrSKN0HlN/pX4ev3BFZ4OFK5I7jSlTkDNR3v+hoP+fbNNDJZRssceh+1uzm4iFvnMk+av5ttk3iSL3PRyarMNuYQdolikE6ncUqqNsk0Mll7yoTXJNc+TdbxZ7JOazhduTQncFLVD/YJv8+eLGv8HE52n/MWifTZfpPcgh4NwyPBkPtS85fE6BPpsX/FVm/mDRzwYp8am737TN/GLFgTvFeANIKI6N4TyVWste1YVlerwUGr1owH0H9/clpv/NwWrMo1EjyfaG5vnjvNc274sVDwy8lC3a75FMHANyVY85RqB/zIP3UNu0UA+JJ9uRmwpPMZdGhfGuNqu92pI4LPywaWisDu1hyhRM+PdHDv8+YpsT6mHxXDqOx8MfTJiIxHzryNNekX6O227k65PkZYrYd28yjZz2y8DzEcMuJ8kjtYI9qk9xKIDbFKBhmYsDA3UKe9x/NXMKifmRkfnkuxfZJhxZ5DsHs3XDjuHWkOM0UiMS6Q3cVt+ksG/TQ48Q9ALRHGdvNlyfl/o7Y7gQwaQjZT+R/iuHg+k7g1sSW7jzce3MFjDHaY6SQXcTt9MHbZNB0IiisLY/NfS/G2cgGUPpY6wXkbaQtIrvzLTN1brMHUGButPsdqT98l5E3HlJBob6LgqcWfHUqdva5oKgthQHeiLPr582N2lSx1uvIaFg4F5um6h9mWs2Ir2m5+NuWQ3FUDW8FfzPi8WY2yaCoFErHjduG55jJ/Acu63nE/OSXgnVPTTX28M2z+hEvjq1Z2Num6cSg8Ve1aXm5VkIylg0bdoOFHkL2HD9T09WzEveqqGfzey2EvLdy+KTeyyfJatdYqxu4oacZJsCgjomk5iXZ9tC9awxXL2w6SWnQdhAs2N0om2GsYtO69+Z4+2lPZGEl9VNEn+R/jOF7hzkqaBui+r6nezRf5fHYLWvahaDLHNtsHaq/erZiebX9kpuX6yo0bKNx2HgSgrcs/E4KZS32NOaQA31k0om5mW+zZMNLLXIft3sRY3+N7LVX2YmdtqHKCMmT2V2/jawQf6OPERgvy4EFUK8gB7DE/t3lbnKxkQxJsneOWPVlL15sRpGy571ooZ3I+qpoCKLTpm8I/nOPF5Yl5vUTFkT85KvGurfyPPtE/ardV7ySAI1Smy0pLOl5iNUd3PDzY4nTHiJ/WoQVGjFg97uHE4tZqfhcWO4ynTHvOwGDnkbadCt26/TPRmjFerbS5WIl7jZ1FPpx5lP4BVlqKwy8y/SF/EcfC7JvRY8MS8hYEM/GQfOdPsVui8aqO3FDXa92YItcoM1S/5DtZ4/78U0x/1H+xUgqNSiqHYIBer/mqjB3MGVMv7zROaeiWb0f1O97yD7sfMTTTt4B26wC80uRhETglJLNZdd0VD/iHx9uP3YEFQpUeROklysPBlXmB1FW8vI9uGSwu26szGYwQ32aGG8rWZjNfRvyPc+bD8mBFVa1FDH8jy81YSJeTkQzdRLpB9mR6H9g8zdUjzo7csf8upc60bMlqlprPspdKN4xoTt7ceDoJ4QzTxUCr0bFOjuPo4xnHqREiH9rdK8YE7yxHeo7+iqlZfdEomVI7UiDvTn4tDd034cCOpJ0WxvD/LVIp6Lj5m52CnDZQ2V/H7+u64vZYmQ3GgQmye+9X0mGSgeVydCRekEY6j002ysvkxhPy7Sg6DNxA7E6yn0zuI5kqRssnIi5PdI6Bfqjfx3/IgiV9u/sryiaMpu/GWG+Ev9rhmumT/HupshjSW/K9IrqaEvoCFnP/tXQhCUonjQex1F3mfZcC03c0c2pFp1ImS+ys82551sZJm0C8893znY/hXVUTx9+nbk6z52Uf+NDdiDm744N5ok6UZqOGkwc/6If16S6ZF+gD2qz0rlvf0rIAhqQVJ8Sg0voEAvNXNL5qE1QsaZsDcomDkq0ZHUWtqcNM/dOylwv8WGahrNrI23v7LaoqHaeBryPKq7X+Iv/muOef9uGqnZcNJQzQaThrINxj+3hg3VEnY9Z0uj218HQdAoFAuBfjcbrtPYEF1Ogfo9G6MH+M9nmMf4n//If17H8+58Crw6e1Lvopn9Oyf/dY9KGk1uGYxD5zButEFuvHPZC1vCjbSMuZEb9AoK3YVUd47Gg6QQ1DmZF7MGvJfT7L5d5UqpeHHRjqyNG/f/AVJnrfQ/9IrIAAAAAElFTkSuQmCC;fontSize=19;fontStyle=1" parent="1" vertex="1">
          <mxGeometry x="568" y="332.5" width="90" height="90" as="geometry" />
        </mxCell>
        <mxCell id="BTzXB5By77-qZBhdRWKN-19" value="" style="shape=image;verticalLabelPosition=bottom;labelBackgroundColor=default;verticalAlign=top;aspect=fixed;imageAspect=0;image=data:image/png,iVBORw0KGgoAAAANSUhEUgAABLAAAAKjCAMAAAA6bQbyAAAC/VBMVEVHcEz/hiHrQTbpQjXqQjTqQjTqQjXqQjPqQjTqQjTqQjTqQjTqQjTqQjTqQjTqQzXqQjTqQzX4jRPrQjTqQjTqQjTqQjTqQzXqQjTlQjTqQjTqQjTqQjTqQjTsQDR2eHDqQjTqQjTyQC3dSENbetdjeM44if9BhPRFh/9ChfRBhfRAhvRBhPRChPBBhfREgPNBhPNAiPVBhfNBhfRBhfTeR0JBhfRChPRBhfRBhPNBhfNBhfJBhPNChfVBhfRChfdBhPTgR0FBhPRBhPJKdZJBhPNBhfVBhfTdR0KtXHNChfRBhPTqQTXpPjfpPDfrSTPtUi/uXSrvZSfxcCLyeh/0ghv2kRb3nBH4pA75rQv6tQf7vAX8wwL8wAPxeR/6vAX7vAT6vAX7vAX7vAP/uwP6vAX6vAT6vARBhfT7vAT7vAX/vQD7uwP5uwX7vAT8vAVAhPX6vAT8vQf6vAX7vAT7vAT6vAX4vQb/vAD7vAT8vAX7vATxdyD7uwVChPT7vAT7vAX7vAT6vAX6uwRBhfRBhfT6vAT7vAX4uwb7vAT7vAX6vAT9vAT/vQGfsykyqFMzqFM0qVb/vQArp1YxqFQ0qFMzqFMzqFI0p1Isp1Yzp1Izp1IzqFM0qFIzqFIzqFIzp1M0qVA1pl5Bh+lChPehsyiksyeosyU+p05iamYuolEzp1I0p1JZZmQ0qVA1pl5gZGheY2heY2hfY2hfYmddYmZfYWhfY2heYmdfY2deYmZfX2pfY2leY2dfYmdfY2deYmdfYmhfY2hfY2deY2deYmdfYmdfYmdbYmheY2deY2deYmdeYmdfX19eYmdeYmdeYmhfYmhVVVVeYmdeY2deYmheYmdeYmZfY2hdY2ZgZWlfYmhgYGtgY2deY2hfY2deYmdfYmheY2htbW1eYmdfY2deY2deY2deYmheYmhgYGdfY2hcY2lfYmddYmZfY2heYmdfYmhfY2heYmdeYmdgZWVeZGpeYmdeY2hfYmheY2deY2hfYmheYWdfY2jOTTulAAAA/3RSTlMAAxIjN0ddcYGao7XG2Ip6ZisGHL/n+P8+CfGR4K0NAc9S//+J//+fBv+oC7sRwhbOGcm0kf94WvRC5CT6S+kfiv9lKANvNNzXFuyB////////////////////////m/TptoJHGP52NdXYkwtBLvdTT3of7pee+yMR4F3PvoktqMhM8muXO32/JzuPr////7ldD//////dlEb/omo568WBT////////+clBRb0IAzr6xYzS1ptcXBkUkAhCS9poc3v+//z37mGRBM20eimCL39gdsG1uuMHDzIVzqXDydPf7SU+AeR9uOqXxglcyOaOK/Byv7HehErn5wpnUd2LMsu/UPDAAAmy0lEQVR4AezBRQFDUQAAoG/PtX/ZWYfdgAMAAAAAAAAAAAAAAAAAAAAAAAAAAAAAAAAAAAAAAAAAAAAAAAAAAAAAAAAAAAAAAAAAAAAAAAAAAAAAAAAAAAAAAAAAAAAAAAAAAAAAAAAAAAAAAAAAAAAAAACA/zmv+wkx5VJb672Pn957a7XMtcObvbtAdFVXAyj8l1KopV6CQ4+7u753df4jupbjfvZuupuwvkEsiIfLoCdnCgBW6zAajjZqm+hvSrZqMx4u0n4mBwcAQRjNJirXPyVRm2KRBnIgALBaRsVmq08sn44WYSZ2AUAWxmOV6FNLyioOa7EEAPrRWOk9KqvFspE9A4BVONwkeu+S6TDNZG8AYJXOlLZGFYNa9gAAeuFMactUka7kdACgP2/1QbTDpZwYANS7KtcHk0yiQE4CAPpDpQ+snC3lZwFAOs71GUiqQU9+HACsdht9ZqZRJj8GALJFq8+UigP5PgAIYqXPXDlfy7cBQBYrfRTKeS1fBwC9hdJHo4wz+QoA2E31UVFRT74AAMKJPjrTVD4FAOtRoo/RuC8fAoDeYquPVD7P5B0ASKf6iLUDMQAgKBJ93EbsygLwn53SR6+MBACCkXbCeC0AOm6gtAv4yQJQF9oho0AAdFbYaqeoVDoKwCLXjknmjXQQgGCsHTRZCwCGg44oU+kYAFGuHZXEAqBLejPtsFEmADojqLTTNn0B0BHLVjuuDAVAJwy22nn5TgB0QJRoH8TiPQCx9sK58xfEcwBmvvTq4qXLV8RjAFYjf3p19eq16+ItAKvKo17948ZN8RSA2q9e/ePWbfESgHrjU6+MO3cFgBPoFcUCnEGvKBbgAObb37t3UwA4gF75t1YIoBn52Svj/hXxB4CZr70yrjXiCwBzf3tlPBBPAIg86dVD06sveSReADBIvO6V8Vg8AGC59Xs8aDx5KgCcFyjf/6+MZ88FcBx6E/97Zdy5Lm4DUHShV8Y1cRqAqCO9YqnQfUCYd6NXxouX4iwAgepKr4xXr8VVAKru9Mq4dUXcBCDuUq+M/4mTAIRJp3plvBQHAajbbvXKeHZX3AOg8KFX/ze9+gn3xTkAdt37vzJ+EccACMru9cp48qu4BcBYH1xStptqNJvPF/+Yz2ejatKWySHHg8aN3+RrADAgzNtqGKXroCef6NXrMJpXbX6gXhm/y5cAYEC4nQwH/Z58U7MezKvtAXplPHku7gAw0geRTIdpID+oTueb3HavjPuNuAJAqg8gnyyW8pP6UZXb7ZXxWBwBYNVq66ZxX05kvdgkFntlPLstTgDQxNqy7SiUk2uWs9Jer4wHAsAJ61xbpeK1nErTBIvWVq+MF38IALZgtVEme7DabSz1yrjRCICOz7i30Ur2pNlNLfTKpXl3AM1GW6OinuzTrrXRK+PP6wKgu3vc83kte5bFWwu9cuRJCgCZ0paM+2LBerT/Xhmv7gqAbl6LrHZiyaC10CsHrksGUJfaiiIQa7LZvntlPHktxwzAXNtQ7sSqVJ2iV47uHgUQbLUF1VosC0Z76BW/WAA/WEksB7D4m727apRah8IwvM7B3SkuV0w37u4Oacbqaba7Oy7/HNnummYy5Xtue//Wkqxj6+0VHrEA8IB1YhNpsfHN+nqFRywA/CLcuYE0eXvdVu4GGQoAjp6wVNt+irTJ3bBVe3eVzAQAmy3Vdp8mnW7Zqr0nADDSf2csxbaQZs8e2Grdu0gAYKJNlmJ7Sbvbd2y1nhEAmGiHtVLsD8fhszkOY8yadngzVcBDxcW68oLMAwD7Dq8oVQ7nDrPyhWKxVC67E8rlUrFYyFtjVx2mrVcainWXzAMAx62ljcXIKhTLnh+EUSxEMosUcRQFvlcuFfIO54f3UoU8fGCrVEMAUF2LRpnDnXyh7AVRLGSSSCnFAqSUY+WKAq9cu58q5batEqaqAhho85KxKrp+NJYqsQJ/u1VX39DY1EwV8RIrGwAy7uBitWKFsh+JsVatRosQor6htW0/6ffEVqg9R0YBgNP7Di9YK6vohWOxWrOOzqYu0q3GVughmQUAdltzMc7GaiXFenV0du8nrc5fwWd3gH/nKHfGecEdq5UaHY09pNHp+49sZd5dJgAwd5U746zkx4kUyrSI3oa+LtKnP7Or3QFg26xc5cuhTIRyHQODVfnh/ToBgJmLsBgvuFEiRSqGhntIk9ylbC7FAoCzM3Lljb0LpqV3pI30eH7HVuUlmQMAtuvJ1USyeqpt/egFAgDDphEynnfHcpW20eEPpMMFnO0OkNV/hJyVo0QKLYYaP1bVS+EzAgCDDmpgvBgmUujS8ukzpe9W5v4TAsD+XYwXfJEIrRraKG25dluNdxfJCABwep/DynEidKtr7KKUPczafkIA2FIIEikq4Es3pew6BhQCZMzXlT9eKTb6rYtS9f1Bls6YAYDmH1KKivnZQ6k6Z6vxm737Smokafcw/mcLbKAuIfEuGgFqi4uAJeQFphFCg4eGFigab4ce72fO+bzb5ee9LaneLKmo57eIJzKz3qwcnlDTATg/8k11camQJgrOxrNRNReAtuWSb7bTqgK6clZGOgWgiVaWfAuolRXOScFZ6ZsQgKYpV3xLuDjOxu+Sx8cEoEmOL3yrWI4UyrWzU5wWgKa48S3kdF2h9DlDI5FSB6D9wLeU25VsPKza1a2UAagu+RZTuVMY3ePOUt+gUgVg5cy3nKOywnjhTK1NKEUA9mq+BS1uKIiZojM1e6LUANir+JZ08VohTA05W+MnyieAXoUv1hNHsQB6lZFinRQpFkCv7F3cy1405CgWwPdBe4tl2Zt35mafC0Bg67e+xR3dydyYszfQLwBBtZ36lldbCT87aqGvWwBC+tBnwG27rHW5ALoEIJzo0mfCgYxF0y6EeQEI5vzQZ8OujM24IEYFIJC7fZ8RpXPZ6h13IRSuBSCI9ZrPjMU72epzQcwOCkAIBz5Dausy9cKFMTwlAPYufZbctMnUKxfIvACY27zwGbIqY9cukOKYABhbr+W6VxosuEBm+wXA1rt890qday6ULgEwtVHKd6+kHhfMqAAYqlby3it1uGCePRcAOx/mvlead+F0CYCZ+8Pc9yp65QLaEQAj7bXc90racQHN9gqAjVV6pWjMhfRCAEzs7dMracaFVDgRgHzdIdxVOCdFF9KwABgoH9Kr8MFyTwUkhmiJ/WCMuzmJDXQqKQCvWV/90eCcC+uVEgLQdkav0gnWbLeSAbBNr1IKlpuWAYAFFr1KI1jj3UoCwDa9sgkWp1jhAWf0yiRYnGKFB2zQK5tg8WOs8IAHepVmsIam1CgAm1v0ym5wNIYxAWjV//ZtLVZqv1dZXCi1eq/U3zcw+6zgwupSgwBUF30wR0vLx/d71fW231uv7pW3dx8qJcNe2Zua6u59fj06Pzzrgik8V2MAHPswtm5376v6F+2bl0v75r2y1z0z3VNwYTxRQwBEtz6E2u6d/qO9y1uDXoU3MT3kQljrVCMAbB56e0vn7frv7g8u7HtlLxrrKnLsDrSMZW9uaUMx3B0cGvQqvJkuZ65DDQDQXvHGaueKqbxk0avwxvqcsWe9aj6AKfetm3XFd7zo/4cbtYCp6Tmm3YHHN4RVK6suew8W66vwJnsYxXpswI7wzbrqtXposL4Kr/OFszTXKwB1isolb+fwUg04X7ToVXijhcfzCjTAN8KLbTVks2LRq/Cux/lO2ExAdObN7N+rQXe1LPRK0ck4f8VqIuDtlmWvGrZSsehVeJbFulazANwj3NpIFM4ji16Fd/KM+4RA9t+nLx0rkfKFRa/CGys4Iz1KC8BQg3VftkvGvQrkFcPuTQLcbXkbD8bfK2/Usq44xMo2cIR1tKLE2m4z0St1D3CIlWXgXk7pXAbuLsL3ysJMgds5QDPcehMHMrEavlcm5p2J2U4BSP1v7osrMtF+loleqXvNWShMCEB8RhcJV2VkI3yvTIw6E08FIO0z98q6rCxloleKhjh1B1L3zhsoXcrMvV9WFuxw6g5k84n6o3WZaT9XJkwNOQNDkQDE1VbzBpaVQ6+cgfFeAUj1I+HWW+VQ77hLrjghADFFd4c+uQfl0lW6rxMCeO0NHCuXxpyBVwKQ5lTDxYpyqXOWuQYgVas+uVvlVIdL7koA0rz6vKt8ikZdcsMCENepT25DOTVZdIn1CUCK/2rYX1HDOMRamxKA9J74qkXKq+EUn/oC0FbxiZ0qt164xMb7BSCe9SOf2Ds1jts5hecCEE/VIFiXyq0dgpUx4CrhtnLr2iV3IgDx7F34xM6VW5MEK2NAsMrKredFgpVvIFgECwDBIlgAwdpQbk0QLCBFK/scuicww6F7xoA5rGM1jl/4FScFpIdgrSq3RhkcBdITtVd8Yh8ot564xOYGBSC9V76WlFtXab7zBeDMJ/W+sq68GnKJzXYKQExLPrGtO+VU7zOX2EAkADEd8MpXc+8+9whAXO98cm84c29clwDEFF36xEqVNuVTj0vuhQDEte2TK5WVS4MFl9y0AMR1X/LJLfOD5IaNCkBce1s+uUo7O8JGzQiA4SsUMbxWDp0UXXKFQQGIK7r1Bh6UQyPOMTcKpOvAG9jaVO4MzjnGsICUrXoLB8qdeWdhRADie+1ZYjVvgeVeCUB8bxe8hQdOsBpyLQDxNfRHLH6UPFNwFub6VQcAD95EpaocmepzJoZUDwC73sYbrj3X70r1ALDhjWyzIeRiDhD+pS8bi3fKid41Fx9P5gCWbr2Rs6pyIRp2RtY6VRcAy97KQzsTDXXpUH0AbHgzB4y4c4TVOsAPG3ijcNrFxyOqgLlTb+egnfVVbH2qF4Bjb+ihqkes88oZmle9AOxdeEO1TT1ag8PO0ozqBuDWGyrtH+uRGltziTDUABi49LYOVvQIdc4XnakXqh+AvQVvqnR0rEdnbMgZuxaABix5a0v3elQmO5y1gSkBaMCxN1c6vdejMTlScOaeCEAjqove2vuPPv7k08/0CHSOdcXPVfiLzwDemPfq84+/+PKrr7/59rOM12pmfsAFMazGACiXzNdX33351R98/f0P/5fRaHWfjF6tuVB2BKAx0Zlxr/6wvvqr///R9z/+4dOfBLETwtPRV/MdPeNFF85stwA06DhgrwL66c9+/guXSfMC0KjqUYBeESx+1BAEcJNmrwhWhxoGIFrZt/s++N3/6BXBKs4oAQAfWH4fJFjMNIQEvL0IsB8kWFwjDAJ4YzYvSrACL7AAvF0wWF/9MsZ+kGCNKSEAHwTeDxKs8AssgA+F8ddXf+oVweITYXDATRr7QYLVoQAAxt2bMM8QPFgMuQPcKHz/ebz1FcGalwUAbbcB9oMEK8hvGgCUDwPvBwnWjowA+DDsfpBgdckKgGolZK8I1txzmQFwHvL8imBNyxCAg3DrK4LVEwloJjaFsXtFsOYmZArARinQfpBgvZIxAO/C9IpgdckagPbbEPtBgjXbL3MA3i7ar68IVvFaAQA4L8VcX8X/nwzBmlYQAJZ9HHWsrwhWh8IA0PZgux8kWEPdCgRAtWY5L0qwxicUDIC7xf+1H/xV7F4RrMK1AgJwv/Df94N19IpgjSooANuHRusrgjWtwABc/pd5hjp6RbBeKDgANxb7QYJ1FSk8AMvJ11cEqysSgGYV6309vSJYXZ1KB4DlMPvBAMGiVwCWw6yvAgSLXgG4abxXBOtKqQJweRhiPxggWMwzAIi2F4KsrwIEi3lRABuL9feKYBVGBaAJ7mr1zl8RrPFrAWiK6ml951cEq++5ADRHFC3Xc9+ZYHV0C0DzbP86bq8IVuGVADTVbz75KhaCtXb9O/bt4iCSBQqg6Mukdri7u5PMj6BDwKmmvXc4hPht3H2m5Jwg7u4G8IfddgTra/QOB/CnJclVKlhfsjIbmQDcVQXr8yYXIyuAbipYn7awERkCnFbvBesTelcjW4DmsWB9zNhyZA6QnKSC9b6Vmb7IICA57bQE621zU+ORVcBD9V6wXlkaqEQS2QXc1O8F60WudiLrgJtqS7DmcpIr4KGTljtYK1OVyAvg9KRd3mCNbY9GrgDNaquMwZobWO6LnAGS5O7k+L5cwVoa2V6NnAJuGsf3ZQnW0shMJXINeGjUW8UP1sHk9mYUAHB61TluFTdYcxNry6NRHMDdv9FK74sWrKXdycPl1Sge4PbmqlNvp/dFCNbcwsTA4V+VwSgy4PGh2W106sftdpq2fomn55WDX2Nhd2xksndte3Z+sRypApJkK4mIrcfTu19k9BcZHtyKJHE0AwAAAAAAAAAAAAAAAAAAAAAAAAAAAAAAAAAAAAAAAAAAAAAAAAAAAAAAAAAAAAAAAAAAAAAAAAAAAAAAAAAAAAAAAAAAAAAAAAAAAAAAAAAAAAAAAAAAAAAAAAAAAAAAAAAAAAAAAAAAAAAAAAAAAAAAAAAAAAAAAAAAAAAAAAAAAP+wd8fNhSRvAMefd+LNeLP5QxUkAcTMM4hDiECSRcQkYDdBsmw2R7Z+u8G0HtN6JPZXXD2f//Y2nVHq7ns9Pa1ZcLo9Xt/h0fHxkT8QDIWBEEJ2kjMSPYkpKhq0eCJ5moIdQwgh/yTTKlrIZAOuvcyvy+CE/xBCyJkvl0eh+HkI9o63YPDAfwYh5MJfxPVK5QrsGR8aLuG/ghByeoVymWMn7JVrNHyB/wZCSKqK9uQiFCyxg3DttzMH/D2EkGAB7dL8FCwLjvpNI5tLxxVFKRVit83oZQ3+BkLIsY4bqN5RsHhnwftYC03anW4PLHxtzty7YYd4q80/qt9gtxHibOJmEikK1pKHRhGtlR77sOIU5+qwQ5I4k4adRsjZAC2UisPcbSL3FNdxVaxGwVp4aGoo9jzwgEkQZ1oPsEPOceY77DJCwqu9amejnt4dvKs9eJNDHXmjAwrWTLih4Hp6eUzB+lsI9UodBGpg8mNUxCXfYIaCFYyhXDFIwdoKQhxZ5ORPImDF1S2u9IqCNdLRDv2YgrUNhCSR8xQEEVejhe+O4B0Fy5XFFbqiKFoezcoUrM8jxIecsgvW+Ce2NL+iYPWGyFFyZd/lj0qoEoqcRh9jKi47cVKwPomQuoJLtGtYr3Zi9IqCVUnjEq0TcJtO6eHX/apnFKxPIeRgiEsylyBVHsE7ClYqhox2X7c8/CKNTJeC9SmEHHO98oBtFKyzBDLZOlgLj1o491KjYH0GIZUSMkof7KNgPaKh5AOxfhHf/XQABYuQz6gi8xwACpZ9fjTE6rBOL4e/PTqAgkXIZ7zqyJwDBetDDytux7BeLYdYpn1YW0RogjV0UrDscyRYr8IgM043gYJFyOf0FDToHqBg2efDhSsXyNUcFCxCPukQmSZQsOwLF3CuXQG7KFiEfILjOxqUEAVrA1Gcy3uBgkXI/0Nd/ZsTLIf7a8Tjea24NhrzsPGYWuj3kHrqU8F6v2zdDXbdFXHuEShYhPxfRNGgRmCbLvrfOulMCxFVpTAsB9wgd+A54sb0QK52c/89riGi3n669559KFj16Mnssnom9q+vAnZ4ca7U+yvBOni4OUw+Pv6sNvzBHvwNvclh+fcFyoeTyn4Ei5AOGq4cWz0vOI28UnYC64VG6WfTmI5X8qIi921cVpzWACAwzM0MD+XBOvMldFymnAQ3eecasP1gOYL3aR0N2rDxBhZeg5d/BL+CFec/87+26l3Kn1BwQcsd9nY/WIRcFNAwgq0JWZ8XPPSCWOVesRwTALHQi4pmxQDAES5UpcEKpHHVIAISbmWRt97Wg3XRvUIz/dai9wOceQEr4zaKTgJyTePIy5yPdz1YhNRbuJDvw7ZESyjQeRCOyaDAoL7hdcrgx4V7SbBCHbSkTWG9AM6dwLaDFfwuf/P4YP27YbC8aVxVuAGAox0OFiETNGRcsB3uAYplAmAl1UGx0rXolBuB5pHdYJ22UaTjgnWaODfZcrAOkioKlLqCYP1cH6xj4DjO82gp6QA/BYvsx5r7ELYjUsS1prDqNY1rNWBV5QqFFJvB6uoolquBmDOGM+3adoOVusU1yo7PB+suiyL/ws1+BIvQ0cj/gogjfLZe2AmGywxKlMGs30aJezB7KKKEPFh+XOv2zsYHBAaw1WC5n3CtF+dng3XWQbFRf4eDRci/dj73/KUo03HCXKSEUkng/cggblo5dxo/HawbFdd7BKFLnJtuNVi1K+TorZaKnOong+XIrruCWlYpWGQvdjUcgsgEZZQUzPQKKCS6lLuINhzBsrMhfjpYPxQ00XXhCzXr4px3m8FyDJBp3R4GQ71e3dv4jktGnwvWOTJ64mh2hWQMF553N1iE3KLBDyKnKKPW4Z0zgZx2duSbBKL3TyofhktgHLemMZ3fY26iZdMYNQhL7s1jptengaOT+AbBCn/HZdog+qVe70ezGjKtCAiMcEZ93WawRmhQ79lvdpwm0JA//UywJs8sTT/fYME5ySFDwSK7H6zoJ4KFfXg3xWW/umOY8zxy+Sm6wHCIy9L+FMxFmi1cEh+DwcuP6S7GuK6fbAdryuXw/ivMhe7z0vN2WDEV9xaD5VFxIf0FOL4SLhTGHw9WrYALcS8sc0S1/3qwCM2w+BujBw0ZfXoAS/pcSs5hIaQgo4/uYInnu/UyVq2AjNoIA3PRUO0FK6QIv5TZq6DBB9ZecCbu2l6wHENc6NTA5C2NC8mPByuJC1cVMAmWdjxYhHS2NMO6MS/hYya47vtGtZDV+YGKF3jhE2RaX8FicqQFgHfdshWsMjI5N3C8Oi4UwmApizPpi+0FK8B65YQVlSLOaQ8fDVZFw7mnFKzoKxQssvdPCe0Hq95a+2UWzuzqdImblGlBMHO8WDwgq7XRoE/AzGcnWO4SGoY1MLlHQxcsJbYfLHbSz3fLSr6WcK780WCd41wmBBYCeQoW2Zd9WC+fDlYZce0RUeErNGTGKw+t8gFYdTfEObZe5Mf188KyjWB10RDvAa93nJZ8JJylIn2wtWB9WeRCqUtOOG3XPhascBznAmDpkYJF9n+nu801rHCc64SFtxYaruGPi6Js11NdWVlmG6KhAxbOivJg3aIhAJz+YwmXPPfBygm7ZdxWsJrST6En+Je8cbC8OJcAa5XSLgeLEC8aMrWN92HxFbhEQzsFlspoyMIfnmdcUCrSSeAt/PFVx4VWHaxcS4OVKlmHutbNPSPvZe1cJDPeVrAOFpnNpIRD8uw1bR4slsTnCQiUdzlYhNR1XHj+AgLugKWb6bMx9hUARvL1sJCGC/Gwafm8LP4QDN9UPxpOwNJBURasoOUiVT0ZxxVp17qM6qFtBetNlR786ojhTPHsI8FyLoannSAQUXc4WITcxdEw+vj0TOtxd1nqDxAYmM437bA/e0Aga/qZR9bYIFhLyoL1DRe0CsxceDstXPE96l7/3R2X2wqWD+eCINRgG3U3DxZ7RlgGEWeRgkX2ZF/Dd8eHV+wLLnbG+dr/g0f5pSNHGheKByDQRYOPX8JquyQxEAaLRS8G7yrf0rhCOwk6ZLHubitYSelNJhuD3o2DxY8W+knB+q+iM90T3DpQr2TjgWOfP2YmlREunzMRlTtm5iyOC7cg4FYkwbpl1zUttDPFUQiEXlV2ge0Eq2MjFT0NZw4/Eqyu/DaWDvAje7OIhU3YyLiEC1X+N41ApKLgQpnfhZUEEXeJe4U9BVEWi4uiJFhX7HcYC+0cfXAThjVci2z+cmwpWEMbJ5iGiziT3DxY7D64PQYhOg+L7M/3EvZgE15+v0GE+6PAOM7F502VHYzAT6lO+O2pUxAZSoIVw4VsI44r4sk3ux9q0utbCtaTpMLcDzU/Eqykjb1jX3Y6WIQcInMPmzjhF8PfpLvD+X1XWbvBAjZmAACvOi4cgUhOHiyxYXcMUlOc+7alYF2x216x3GeCVWZLjBQssqd6Chr0CFiQ390VLuzOsFwFXKjaDZaTjcn+/WApPy/BDk8eZ2KO7Qbr/O8Hy0HBInurioLTVCQapsWv17wsJPzK/D1/ezcCkVSGi1xIk3/80XElCdYvtBY7qoA9B2mcO93uLWEThNjrvv9IsM5xpngBQpc7HSxCWDQECZBPsDBo+gdVe0/8uH79BJFXnVuZr7F+nYCAqy0JVgItaJ2JE2wb4VxiO8HKsceW8glqw1aw4nywjmwsugd2PFiEPCLzHACbsmgoXrDnZpJ/27to6PLf4yp+2hZAQ5Tfu5UWjfmhSoL1givi53XYRMgIfWArwcrizC8QYls/o3ywHsGKO8MHy8e2nQpNdzxYhFQUZJQvYIt/9Yu7htzucWsvwpmO/mDjnjXI75bX69JXJwjWFHn5nK8GUoJkF2rbCNa5jWe1E5yb8MHKgpUHnQ9W30ZhT3Y9WIQc45LMG9gw0dFQcq8cInUI1sYZ06gknz3R7R0XwoZ8zK0sWBNclml6YHPsQOOTbQTr2sY+9PJiTIgPVmL9vpNj03baexC5K+x6sAg5GCJ/VKiUV0OmsXrrlr6TpjFn3ssVd9k8ASeIsvNA33RJsLjz+2JRN3zICR9oqbOXoDhYbOPtiXxTSPqAD1YMrCRNwXJcSc/EuczvfLAIedVwiXYNEn4dDeyGyK3Ipli9DBqOzFMunMq2mmKDO4ZOvAkqu9F5WC9g6XoMEuxYeDUAcmcDLPXFwXKm2Tk7stW8pukOO2OVXEfaFCwoS+8JX3D3g0WIDznlMKxRq+KygNUHqZU3YUj4JasTNGgeyaqX+rpyqpZmdR1vfqMTR/NesNDF4qn9TbetGzu9Qlas1WBBUrZ/1/kL5ybmIZew6vTZHKxLnHtyCp8YU7DIHkgi5ykIQt606Hy7U2TSlbU7t3Bg/DfEFCzGfEMmAezkqIW0G8weMigLFj+1a1tcN6gh5ss1WMuRYDGNwnqVHCIrlkWw2JYP/QtYOlq5E/av+yRmDs3BOihK7mEHSMEi+8CRRU7+xAOW+gPkpMdgcAyRiVUsnpgzRhFzyKRDYHL8jMzEYiqHV27gVdIoDxZfzyc3mEyU2Qs6lVSojYbyGaxxWkBkxbIMFrtNLbjBQrC1ssm2v2YB8BpXggVH62ezh0jBIvvhLoE8dRAYg0nPl3hGTumH8CzlQhCWjR9xyQAWgs/IxE/X3HwmHDAX0ZEpfuGLWkRbwXJnkIl5+Hwf64tw39dgnaCOhu99EKklVWStEAWL3cMNLa7qyeBcJrX6BHW6bp55vLL3HeMPsOJGp2CRfVFLoFk7G/X0DuCdKxT8NiihiRIETpZLXvMrLIR9XEe0OndkHJOv1llDA9yYVkRwB6snK7DgPm+hvWCBn3tBDTcYJjlkipe2V//U5gNYuesWkWnXrYPF3ZE9PYDJacnqSUMH57RL4Lh/IXNs8Zi24AETXwspWGRvuDpooVS8uh0MElcFDRlRr6DX5v8+2/W4a6mQN1lEziEwqbjp8zH+9zET85gpMK4Y/yJPfG+/x9QD1Qyi3WA5+EJnHq9//45xaDK6Qo53g01sSvWLA0x60TT3Wt9AGKy6wrJ2DcvOpjouXN1ZfQogcwpLvj6hZbDOYrig+WFZrYxIwSJ75KCKMoJeMacq8vJau6SjSdYhuK1iY1poMuDG/FCQp2ptRUdGFiy2AMWoVtedgsShist+JU8rTiOsEX+nhMvawkV386zvdnIAc+NuGg1ahD9HcEEvh4yfPyyhdbDA00JDznsGc+5oASlYZM8cq7iBggdW+VFu6AJOF+WeasDxqiglCRZcaij1CFI+DXlK8falXC7fZ4dtFXnpOqwLFjS5H276g5HI5DDLlbUrPM5MG0xv/on0u81FxfTVYEEUlxSrv6/gmRxnM0a0nylYZG8EC2hbogJWpihz5QaTI5SJ9VYyoX46WODVUOLFCXKXBbSp44b1wXIOUGIKnHAahW4fLYIFZVxDm+YpWGR/pKpoT6vhBGtRVRK6lGjrvFiuJ5/YbB4sebHKDrCj10E7tCMASbDAJSlWY6WWKgq0e2WrYDmaKNZ9QwoW2SenV2hDzgNC3gyu0TwDC5M4rvEYBgtB4Zhc0mawoF9AMT0KdnXbKHX7BvJggbOKYvohrIiKeuWBKhcsQxJFRtCnYO0XcuYvokT62gFrhG5RpO0TjRmgSKa74XVi467dYIE7iyLpS7DPXdZwrVhAfFoDL6qgQDEIFkZoJf0G0LQOFvgVtKL56YjkPUTC3eEzCuVzvjOQ6Fo3T6tWQOjaeoz+GAIhfxxXdVJwaA6WDw2XwLtJoxUtWYON1MttFBpeX4AgWOpXMKl3ntGCVh6DpesMmuWrYwCoio6sfkvgqqFn6aNSv2B/ENJPpvNoQU0nPbaa579Cs0zzbeNOZh4jsE5qVEBe2sc9O2vMq1TKzJU8q/s6h3k0KVXrsDG3P6GghcJ9H1Z9yczELYJ82dFW3706iIQeNeQkgvBHspT5o+S3iNx35MW6DvjNMx9yC/uEEGckepIuqWhQS7/+9b85wCZH/3xYwgWt+HLtBilPI1fKszEnPvkYV+Cl2MKZ53b2Osx/UHAE7856hgOr646WrtuKZ7s9+JiQrznMqGjQCoNRPwxWLnozbidYCB3esj0RrUJW8k58HQ0XrVQL1SDM1HozYVjlPG0a75teePHewbuD3kwK9g0hTrfH2z1sNM6n0etJZOyADaX6Af/o/PzYd/rgBJvGnpvfYxqbjDmoe/8MiQb+ca08uo+CTan3655/607qZ/AptcjEF/3zpvkDl6GLz/wer396fn70+xXdgVwv6DtunB8FPGHY6H0b+b2vd/9r7x6sHg2DAIxOJ2lmm83RbyuZb23btm3vxjl+g3vbGDwBFHM4/7oaowygtpN/PQ2AUbAxoIbVkq0oDeDK3ta9pFYLreXCwgDq8/fu9I0u72lpQ5cFcHbpYMvrggHndStREsDsk9P5R2Mzupw8n9l69gJQzpvT+c/uh9HpRmtnB6CsxQFvBOu387+FACjryMH8r7G1K/6bO5rtJXuAsvYdyxavVtZr8dODq/duZov7ATBqperq67N37569amSbo7UAKK5+PYdqXAmAEXD5RQ7RvBoAI+Hs1xyouRIAI+LNnhyguhAAI+Pk7ezr4IEAGCUXdmdPd85cDoDRMrv3UHap3n8JgNEzu3W0kS2q558fB8CIWr96bXvP+VfnX13fvja/HgAAAAAAAAAAAAAAAAAAAAAAAAAAAAAAAAAAAAAAAAAAAAAAAAAAAAAAAAAAAAAAAAAAAAAAAAAAAAAAAAAAAAAAAAAAAAAAAAAAAAAAAAAAAAAAAAAAAAAAAACMh+8Fk73g/0uaMwAAAABJRU5ErkJggg==;" parent="1" vertex="1">
          <mxGeometry x="742" y="991" width="263.33" height="148.12" as="geometry" />
        </mxCell>
        <mxCell id="GCuUB6PzgqnTOFlLj93c-9" value="" style="sketch=0;aspect=fixed;html=1;points=[];align=center;image;fontSize=12;image=img/lib/mscae/Docker.svg;fillColor=#B7C2D4;" vertex="1" parent="1">
          <mxGeometry y="1024.16" width="90" height="73.8" as="geometry" />
        </mxCell>
      </root>
    </mxGraphModel>
  </diagram>
</mxfile>
